<svg width="15" height="15" viewBox="0 0 15 15" fill="none" xmlns="http://www.w3.org/2000/svg">
<g clip-path="url(#clip0_142_348)">
<rect width="14" height="14" transform="translate(0.5 0.400024)" fill="white" fill-opacity="0.01"/>
<path d="M7.96838 1.77588H7.03088C6.94755 1.77588 6.90588 1.81755 6.90588 1.90088V6.80713H2.25C2.16667 6.80713 2.125 6.8488 2.125 6.93213V7.86963C2.125 7.95296 2.16667 7.99463 2.25 7.99463H6.90588V12.9009C6.90588 12.9842 6.94755 13.0259 7.03088 13.0259H7.96838C8.05172 13.0259 8.09338 12.9842 8.09338 12.9009V7.99463H12.75C12.8333 7.99463 12.875 7.95296 12.875 7.86963V6.93213C12.875 6.8488 12.8333 6.80713 12.75 6.80713H8.09338V1.90088C8.09338 1.81755 8.05172 1.77588 7.96838 1.77588Z" fill="#6B71C7"/>
</g>
<defs>
<clipPath id="clip0_142_348">
<rect width="14" height="14" fill="white" transform="translate(0.5 0.400024)"/>
</clipPath>
</defs>
</svg>
