<svg width="24" height="24" viewBox="0 0 24 24" fill="none" xmlns="http://www.w3.org/2000/svg">
<path d="M16.5 4C16.5 2.8955 15.6045 2 14.5 2C13.3955 2 12.5 2.8955 12.5 4C12.5 4.627 12.5 8.8705 12.5 9.5C12.5 10.6045 13.3955 11.5 14.5 11.5C15.6045 11.5 16.5 10.6045 16.5 9.5C16.5 8.8705 16.5 4.627 16.5 4Z" fill="#33D375"/>
<path d="M21.5 9.5C21.5 10.6045 20.6045 11.5 19.5 11.5C18.9025 11.5 17.5 11.5 17.5 11.5C17.5 11.5 17.5 10.007 17.5 9.5C17.5 8.3955 18.3955 7.5 19.5 7.5C20.6045 7.5 21.5 8.3955 21.5 9.5Z" fill="#33D375"/>
<path d="M4 7C2.8955 7 2 7.8955 2 9C2 10.1045 2.8955 11 4 11C4.627 11 8.8705 11 9.5 11C10.6045 11 11.5 10.1045 11.5 9C11.5 7.8955 10.6045 7 9.5 7C8.8705 7 4.627 7 4 7Z" fill="#40C4FF"/>
<path d="M9.5 2C10.6045 2 11.5 2.8955 11.5 4C11.5 4.5975 11.5 6 11.5 6C11.5 6 10.007 6 9.5 6C8.3955 6 7.5 5.1045 7.5 4C7.5 2.8955 8.3955 2 9.5 2Z" fill="#40C4FF"/>
<path d="M7 19.503C7 20.606 7.8955 21.5 9 21.5C10.1045 21.5 11 20.606 11 19.503C11 18.877 11 14.6395 11 14.011C11 12.908 10.1045 12.014 9 12.014C7.8955 12.014 7 12.908 7 14.011C7 14.6395 7 18.877 7 19.503Z" fill="#E91E63"/>
<path d="M2 14.011C2 12.908 2.8955 12.014 4 12.014C4.5975 12.014 6 12.014 6 12.014C6 12.014 6 13.5045 6 14.011C6 15.114 5.1045 16.008 4 16.008C2.8955 16.008 2 15.114 2 14.011Z" fill="#E91E63"/>
<path d="M19.5 16.5C20.6045 16.5 21.5 15.6045 21.5 14.5C21.5 13.3955 20.6045 12.5 19.5 12.5C18.873 12.5 14.6295 12.5 14 12.5C12.8955 12.5 12 13.3955 12 14.5C12 15.6045 12.8955 16.5 14 16.5C14.629 16.5 18.873 16.5 19.5 16.5Z" fill="#FFC107"/>
<path d="M14 21.5C12.8955 21.5 12 20.6045 12 19.5C12 18.9025 12 17.5 12 17.5C12 17.5 13.493 17.5 14 17.5C15.1045 17.5 16 18.3955 16 19.5C16 20.6045 15.1045 21.5 14 21.5Z" fill="#FFC107"/>
</svg>
