<svg width="14" height="14" viewBox="0 0 14 14" fill="none" xmlns="http://www.w3.org/2000/svg">
<path d="M2.01357 13.1667C1.67579 13.1667 1.39475 13.0545 1.17044 12.8302C0.946137 12.6059 0.833984 12.3249 0.833984 11.9871V2.01291C0.833984 1.67513 0.946137 1.39409 1.17044 1.16979C1.39475 0.945482 1.67579 0.833328 2.01357 0.833328H6.35961V1.49999H2.01357C1.88523 1.49999 1.76767 1.5534 1.66086 1.6602C1.55405 1.76701 1.50065 1.88458 1.50065 2.01291V11.9871C1.50065 12.1154 1.55405 12.233 1.66086 12.3398C1.76767 12.4466 1.88523 12.5 2.01357 12.5H11.9877C12.1161 12.5 12.2336 12.4466 12.3404 12.3398C12.4472 12.233 12.5007 12.1154 12.5007 11.9871V7.64104H13.1673V11.9871C13.1673 12.3249 13.0552 12.6059 12.8309 12.8302C12.6066 13.0545 12.3255 13.1667 11.9877 13.1667H2.01357ZM5.09523 9.39104L4.60961 8.90541L12.015 1.49999H9.00065V0.833328H13.1673V5H12.5007V1.98562L5.09523 9.39104Z" fill="#3E44A3"/>
</svg>
