<svg width="21" height="20" viewBox="0 0 21 20" fill="none" xmlns="http://www.w3.org/2000/svg">
<path d="M7.7502 20L7.3502 16.8C7.13353 16.7167 6.92936 16.6167 6.7377 16.5C6.54603 16.3833 6.35853 16.2583 6.1752 16.125L3.2002 17.375L0.450195 12.625L3.0252 10.675C3.00853 10.5583 3.0002 10.4458 3.0002 10.3375V9.6625C3.0002 9.55417 3.00853 9.44167 3.0252 9.325L0.450195 7.375L3.2002 2.625L6.1752 3.875C6.35853 3.74167 6.5502 3.61667 6.7502 3.5C6.9502 3.38333 7.1502 3.28333 7.3502 3.2L7.7502 0H13.2502L13.6502 3.2C13.8669 3.28333 14.071 3.38333 14.2627 3.5C14.4544 3.61667 14.6419 3.74167 14.8252 3.875L17.8002 2.625L20.5502 7.375L17.9752 9.325C17.9919 9.44167 18.0002 9.55417 18.0002 9.6625V10.3375C18.0002 10.4458 17.9835 10.5583 17.9502 10.675L20.5252 12.625L17.7752 17.375L14.8252 16.125C14.6419 16.2583 14.4502 16.3833 14.2502 16.5C14.0502 16.6167 13.8502 16.7167 13.6502 16.8L13.2502 20H7.7502ZM9.5002 18H11.4752L11.8252 15.35C12.3419 15.2167 12.821 15.0208 13.2627 14.7625C13.7044 14.5042 14.1085 14.1917 14.4752 13.825L16.9502 14.85L17.9252 13.15L15.7752 11.525C15.8585 11.2917 15.9169 11.0458 15.9502 10.7875C15.9835 10.5292 16.0002 10.2667 16.0002 10C16.0002 9.73333 15.9835 9.47083 15.9502 9.2125C15.9169 8.95417 15.8585 8.70833 15.7752 8.475L17.9252 6.85L16.9502 5.15L14.4752 6.2C14.1085 5.81667 13.7044 5.49583 13.2627 5.2375C12.821 4.97917 12.3419 4.78333 11.8252 4.65L11.5002 2H9.5252L9.1752 4.65C8.65853 4.78333 8.17936 4.97917 7.7377 5.2375C7.29603 5.49583 6.89186 5.80833 6.5252 6.175L4.0502 5.15L3.0752 6.85L5.2252 8.45C5.14186 8.7 5.08353 8.95 5.0502 9.2C5.01686 9.45 5.0002 9.71667 5.0002 10C5.0002 10.2667 5.01686 10.525 5.0502 10.775C5.08353 11.025 5.14186 11.275 5.2252 11.525L3.0752 13.15L4.0502 14.85L6.5252 13.8C6.89186 14.1833 7.29603 14.5042 7.7377 14.7625C8.17936 15.0208 8.65853 15.2167 9.1752 15.35L9.5002 18ZM10.5502 13.5C11.5169 13.5 12.3419 13.1583 13.0252 12.475C13.7085 11.7917 14.0502 10.9667 14.0502 10C14.0502 9.03333 13.7085 8.20833 13.0252 7.525C12.3419 6.84167 11.5169 6.5 10.5502 6.5C9.56686 6.5 8.7377 6.84167 8.0627 7.525C7.3877 8.20833 7.0502 9.03333 7.0502 10C7.0502 10.9667 7.3877 11.7917 8.0627 12.475C8.7377 13.1583 9.56686 13.5 10.5502 13.5Z" fill="#1C1F4A"/>
</svg>
