<svg width="24" height="24" viewBox="0 0 24 24" fill="none" xmlns="http://www.w3.org/2000/svg">
<path d="M9.20039 2.40002C8.09559 2.40002 7.20039 3.29522 7.20039 4.40002C7.20039 5.50482 8.09559 6.40002 9.20039 6.40002H11.2004V4.40002C11.2004 3.29522 10.3052 2.40002 9.20039 2.40002ZM14.0004 2.40002C12.8956 2.40002 12.0004 3.29522 12.0004 4.40002V9.20002C12.0004 10.3048 12.8956 11.2 14.0004 11.2C15.1052 11.2 16.0004 10.3048 16.0004 9.20002V4.40002C16.0004 3.29522 15.1052 2.40002 14.0004 2.40002ZM4.40039 7.20002C3.29559 7.20002 2.40039 8.09522 2.40039 9.20002C2.40039 10.3048 3.29559 11.2 4.40039 11.2H9.20039C10.3052 11.2 11.2004 10.3048 11.2004 9.20002C11.2004 8.09522 10.3052 7.20002 9.20039 7.20002H4.40039ZM18.8004 7.20002C17.6956 7.20002 16.8004 8.09522 16.8004 9.20002V11.2H18.8004C19.9052 11.2 20.8004 10.3048 20.8004 9.20002C20.8004 8.09522 19.9052 7.20002 18.8004 7.20002ZM4.40039 12C3.29559 12 2.40039 12.8952 2.40039 14C2.40039 15.1048 3.29559 16 4.40039 16C5.50519 16 6.40039 15.1048 6.40039 14V12H4.40039ZM9.20039 12C8.09559 12 7.20039 12.8952 7.20039 14V18.8C7.20039 19.9048 8.09559 20.8 9.20039 20.8C10.3052 20.8 11.2004 19.9048 11.2004 18.8V14C11.2004 12.8952 10.3052 12 9.20039 12ZM14.0004 12C12.8956 12 12.0004 12.8952 12.0004 14C12.0004 15.1048 12.8956 16 14.0004 16H18.8004C19.9052 16 20.8004 15.1048 20.8004 14C20.8004 12.8952 19.9052 12 18.8004 12H14.0004ZM12.0004 16.8V18.8C12.0004 19.9048 12.8956 20.8 14.0004 20.8C15.1052 20.8 16.0004 19.9048 16.0004 18.8C16.0004 17.6952 15.1052 16.8 14.0004 16.8H12.0004Z" fill="#0A0A0B"/>
</svg>
