<svg width="32" height="32" viewBox="0 0 32 32" fill="none" xmlns="http://www.w3.org/2000/svg">
<rect width="32" height="32" rx="16" fill="#BFBFBF"/>
<path d="M22.9608 21.052C22.5819 20.1544 22.0319 19.339 21.3417 18.6513C20.6535 17.9617 19.8382 17.4118 18.941 17.0321C18.9329 17.0281 18.9249 17.0261 18.9169 17.0221C20.1684 16.1181 20.9821 14.6455 20.9821 12.9842C20.9821 10.2319 18.7521 8.00201 15.9999 8.00201C13.2477 8.00201 11.0178 10.2319 11.0178 12.9842C11.0178 14.6455 11.8314 16.1181 13.0829 17.0241C13.0749 17.0281 13.0669 17.0301 13.0588 17.0342C12.1588 17.4138 11.3513 17.9583 10.6582 18.6534C9.96852 19.3415 9.41867 20.1568 9.03897 21.054C8.66596 21.9324 8.46479 22.8742 8.44634 23.8284C8.4458 23.8498 8.44956 23.8711 8.4574 23.8911C8.46524 23.9111 8.47699 23.9293 8.49197 23.9446C8.50694 23.96 8.52484 23.9722 8.54461 23.9805C8.56437 23.9888 8.58561 23.9931 8.60705 23.9931H9.81241C9.9008 23.9931 9.97112 23.9228 9.97312 23.8364C10.0133 22.2855 10.6361 20.833 11.737 19.7322C12.876 18.5931 14.3888 17.9663 15.9999 17.9663C17.6111 17.9663 19.1238 18.5931 20.2629 19.7322C21.3638 20.833 21.9865 22.2855 22.0267 23.8364C22.0287 23.9248 22.099 23.9931 22.1874 23.9931H23.3928C23.4142 23.9931 23.4354 23.9888 23.4552 23.9805C23.475 23.9722 23.4929 23.96 23.5079 23.9446C23.5228 23.9293 23.5346 23.9111 23.5424 23.8911C23.5503 23.8711 23.554 23.8498 23.5535 23.8284C23.5334 22.8681 23.3345 21.9339 22.9608 21.052ZM15.9999 16.4395C15.0778 16.4395 14.21 16.0799 13.5571 15.427C12.9042 14.7741 12.5446 13.9063 12.5446 12.9842C12.5446 12.0621 12.9042 11.1942 13.5571 10.5413C14.21 9.8884 15.0778 9.5288 15.9999 9.5288C16.922 9.5288 17.7899 9.8884 18.4428 10.5413C19.0957 11.1942 19.4553 12.0621 19.4553 12.9842C19.4553 13.9063 19.0957 14.7741 18.4428 15.427C17.7899 16.0799 16.922 16.4395 15.9999 16.4395Z" fill="white"/>
</svg>
