<svg width="132" height="120" viewBox="0 0 132 120" fill="none" xmlns="http://www.w3.org/2000/svg">
<g clip-path="url(#clip0_22_4)">
<path d="M57.6923 98.919H2.61538C1.92198 98.9182 1.2572 98.6434 0.76689 98.1548C0.27658 97.6663 0.000780377 97.0038 0 96.3129V21.8088C0.000780378 21.1179 0.27658 20.4554 0.76689 19.9669C1.2572 19.4783 1.92198 19.2035 2.61538 19.2027H57.6923C58.3857 19.2035 59.0505 19.4783 59.5408 19.9669C60.0311 20.4554 60.3069 21.1179 60.3077 21.8088V96.3129C60.3069 97.0038 60.0311 97.6663 59.5408 98.1548C59.0505 98.6434 58.3857 98.9182 57.6923 98.919Z" fill="white"/>
<path d="M27.671 38.5926C27.671 40.7443 26.9879 42.8409 25.7194 44.5823C24.4509 46.3237 22.6621 47.6205 20.6089 48.2873C20.5475 48.3067 20.4862 48.3262 20.4238 48.3447C20.1579 48.4263 19.8882 48.4958 19.6138 48.5551C19.1174 48.6624 18.6134 48.7321 18.1064 48.7636C17.886 48.7784 17.6644 48.7858 17.4415 48.7858C16.2898 48.787 15.1463 48.594 14.0592 48.215C14.0276 48.2039 13.996 48.1928 13.9653 48.1817C12.204 47.5478 10.6512 46.4444 9.47586 44.9917C8.30056 43.539 7.54795 41.7928 7.30003 39.9432C7.0521 38.0937 7.31838 36.2118 8.06984 34.5027C8.82131 32.7936 10.0291 31.3227 11.5617 30.2505C13.0943 29.1782 14.8928 28.5457 16.7613 28.4218C18.6297 28.2979 20.4965 28.6874 22.1581 29.5479C23.8197 30.4084 25.2125 31.7068 26.1846 33.3016C27.1567 34.8965 27.6708 36.7266 27.671 38.5926Z" fill="white"/>
<path d="M17.1964 45.346C19.9452 45.346 22.1735 43.1256 22.1735 40.3866C22.1735 37.6476 19.9452 35.4272 17.1964 35.4272C14.4477 35.4272 12.2194 37.6476 12.2194 40.3866C12.2194 43.1256 14.4477 45.346 17.1964 45.346Z" fill="#1C1F4A"/>
<path d="M17.487 43.0587L17.4921 42.8734C17.1461 42.8638 16.8411 42.8422 16.6118 42.6753C16.5469 42.6253 16.4934 42.562 16.4552 42.4895C16.417 42.4171 16.3949 42.3374 16.3904 42.2557C16.3864 42.2058 16.3939 42.1556 16.4125 42.1091C16.4311 42.0626 16.4602 42.021 16.4976 41.9875C16.5842 41.9352 16.6834 41.9071 16.7846 41.9062C16.8859 41.9053 16.9855 41.9316 17.0731 41.9824L17.2269 42.0527L16.9318 39.9037L16.7476 39.9289L16.9986 41.7569C16.8958 41.7189 16.7852 41.7071 16.6767 41.7227C16.5682 41.7383 16.4654 41.7806 16.3775 41.8459C16.3185 41.8973 16.2721 41.9617 16.2421 42.0339C16.2121 42.1061 16.1992 42.1842 16.2045 42.2622C16.21 42.372 16.2394 42.4792 16.2908 42.5764C16.3422 42.6736 16.4144 42.7585 16.5021 42.825C16.7967 43.0395 17.1794 43.0501 17.487 43.0587Z" fill="#2F2E41"/>
<path d="M15.8363 40.0865H14.8346V40.2719H15.8363V40.0865Z" fill="#2F2E41"/>
<path d="M18.9982 40.0865H17.9965V40.2719H18.9982V40.0865Z" fill="#2F2E41"/>
<path d="M18.6105 47.3199C18.6236 47.259 18.6305 47.1969 18.6309 47.1345C18.6306 46.9012 18.5374 46.6775 18.3718 46.5125C18.2062 46.3475 17.9817 46.2546 17.7475 46.2542H16.4455C16.2113 46.2544 15.9867 46.3472 15.8211 46.5123C15.6554 46.6773 15.5623 46.9011 15.5621 47.1345C15.562 47.1972 15.5689 47.2596 15.5825 47.3208C15.091 47.4751 14.6265 47.7042 14.2053 48C14.1234 48.0566 14.0425 48.1177 13.9653 48.1817C13.996 48.1928 14.0276 48.2039 14.0592 48.215C15.1463 48.594 16.2898 48.787 17.4415 48.7858C17.6647 48.7858 17.8863 48.7784 18.1064 48.7636C18.6135 48.7321 19.1174 48.6624 19.6139 48.5551C19.8882 48.4958 20.1579 48.4263 20.4239 48.3448C19.8977 47.8809 19.28 47.5318 18.6105 47.3199Z" fill="#2F2E41"/>
<path d="M18.443 48.6459C18.3223 48.6548 18.2061 48.6954 18.1063 48.7636C18.6134 48.7321 19.1173 48.6624 19.6138 48.5551L18.443 48.6459Z" fill="#2F2E41"/>
<path d="M21.7103 39.2085L13.0641 36.0567C12.9715 36.0229 12.8961 35.9539 12.8545 35.8647C12.813 35.7755 12.8087 35.6736 12.8426 35.5813L12.8718 35.4435C13.5471 33.6042 15.7852 32.4467 17.631 33.1195L20.2916 34.0894C22.1374 34.7623 22.9397 36.9402 22.2644 38.7794L22.1874 38.9878C22.1535 39.0801 22.0842 39.1552 21.9947 39.1966C21.9053 39.238 21.803 39.2423 21.7103 39.2085Z" fill="#2F2E41"/>
<path d="M22.176 39.3834C10.125 39.8265 9.07194 38.3177 12.7438 35.9451L13.5228 34.5168L22.4504 37.7601L22.176 39.3834Z" fill="#2F2E41"/>
<path d="M19.8131 33.8632C19.8796 33.6426 19.5946 33.3623 19.1765 33.2371C18.7584 33.1119 18.3656 33.1892 18.2991 33.4097C18.2325 33.6303 18.5175 33.9106 18.9356 34.0358C19.3537 34.161 19.7465 34.0837 19.8131 33.8632Z" fill="#2F2E41"/>
<path d="M17.4415 49.0638C16.2584 49.0651 15.0837 48.8668 13.967 48.4774L13.8699 48.4429C11.5309 47.6006 9.56751 45.9589 8.32889 43.8099C7.09027 41.6608 6.65675 39.1436 7.1054 36.706C7.55406 34.2684 8.85582 32.0684 10.7792 30.4972C12.7025 28.926 15.1228 28.0854 17.6096 28.1251C20.0963 28.1647 22.4884 29.0819 24.3603 30.7136C26.2323 32.3453 27.4628 34.5857 27.833 37.0364C28.2032 39.487 27.6891 41.9891 26.3821 44.0976C25.0752 46.2061 23.0601 47.7843 20.6952 48.5517C20.6291 48.5726 20.5669 48.5923 20.5037 48.6111C20.2396 48.6921 19.9593 48.7649 19.673 48.8267C19.1627 48.937 18.6447 49.0086 18.1236 49.041C17.8997 49.0561 17.6696 49.0638 17.4415 49.0638ZM17.4415 28.6773C15.1 28.6776 12.8336 29.5007 11.0409 31.0016C9.24816 32.5026 8.04398 34.5853 7.64013 36.8836C7.23627 39.1818 7.6586 41.5484 8.83283 43.567C10.0071 45.5856 11.858 47.1271 14.0601 47.9202L14.1522 47.9529C15.2094 48.3215 16.3215 48.5091 17.4415 48.5078C17.6571 48.5078 17.8745 48.5005 18.0876 48.4862C18.5811 48.4555 19.0716 48.3877 19.5549 48.2834C19.8257 48.2249 20.0905 48.1561 20.3418 48.0791C20.4041 48.0605 20.4631 48.0418 20.5222 48.0231C22.7746 47.292 24.6915 45.7844 25.9282 43.7711C27.1649 41.7579 27.6404 39.3711 27.2691 37.0398C26.8979 34.7085 25.7042 32.5857 23.9028 31.0528C22.1014 29.5199 19.8104 28.6776 17.4415 28.6773Z" fill="#CCCCCC"/>
<path d="M57.6923 98.919H2.61538C1.92198 98.9182 1.2572 98.6434 0.76689 98.1548C0.27658 97.6663 0.000780377 97.0038 0 96.3129V21.8088C0.000780378 21.1179 0.27658 20.4554 0.76689 19.9669C1.2572 19.4783 1.92198 19.2035 2.61538 19.2027H57.6923C58.3857 19.2035 59.0505 19.4783 59.5408 19.9669C60.0311 20.4554 60.3069 21.1179 60.3077 21.8088V96.3129C60.3069 97.0038 60.0311 97.6663 59.5408 98.1548C59.0505 98.6434 58.3857 98.9182 57.6923 98.919ZM2.61538 19.5093C2.00356 19.51 1.41699 19.7525 0.984368 20.1836C0.551742 20.6147 0.308386 21.1992 0.307692 21.8088V96.3129C0.308386 96.9225 0.551736 97.507 0.984362 97.9381C1.41699 98.3692 2.00356 98.6117 2.61538 98.6124H57.6923C58.3041 98.6117 58.8907 98.3692 59.3233 97.9381C59.7559 97.507 59.9993 96.9225 60 96.3129V21.8088C59.9993 21.1992 59.7559 20.6147 59.3233 20.1836C58.8907 19.7525 58.3041 19.51 57.6923 19.5093H2.61538Z" fill="#CCCCCC"/>
<path d="M47.03 38.5529H31.4452C31.1184 38.5525 30.8052 38.4229 30.5743 38.1925C30.3434 37.9622 30.2137 37.6499 30.2137 37.3243C30.2137 36.9988 30.3434 36.6865 30.5743 36.4561C30.8052 36.2258 31.1184 36.0962 31.4452 36.0958H47.03C47.1921 36.0956 47.3526 36.1272 47.5023 36.1888C47.6521 36.2505 47.7882 36.341 47.9028 36.4551C48.0175 36.5692 48.1084 36.7047 48.1705 36.8538C48.2326 37.003 48.2645 37.1629 48.2645 37.3243C48.2645 37.4858 48.2326 37.6457 48.1705 37.7948C48.1084 37.944 48.0175 38.0795 47.9028 38.1936C47.7882 38.3077 47.6521 38.3982 47.5023 38.4598C47.3526 38.5215 47.1921 38.5531 47.03 38.5529Z" fill="#E6E6E6"/>
<path d="M52.1159 42.6993H31.4452C31.1184 42.6989 30.8052 42.5693 30.5743 42.3389C30.3434 42.1086 30.2137 41.7963 30.2137 41.4708C30.2137 41.1452 30.3434 40.8329 30.5743 40.6026C30.8052 40.3722 31.1184 40.2426 31.4452 40.2422H52.1159C52.4426 40.2426 52.7558 40.3722 52.9867 40.6026C53.2176 40.8329 53.3473 41.1452 53.3473 41.4708C53.3473 41.7963 53.2176 42.1086 52.9867 42.3389C52.7558 42.5693 52.4426 42.6989 52.1159 42.6993Z" fill="#E6E6E6"/>
<path d="M47.0074 58.6026H8.19174C8.0297 58.6028 7.86921 58.5711 7.71945 58.5095C7.56968 58.4478 7.43358 58.3574 7.31893 58.2433C7.20428 58.1292 7.11333 57.9936 7.05127 57.8445C6.98921 57.6953 6.95728 57.5355 6.95728 57.374C6.95728 57.2125 6.98921 57.0526 7.05127 56.9035C7.11333 56.7543 7.20428 56.6188 7.31893 56.5047C7.43358 56.3906 7.56968 56.3002 7.71945 56.2385C7.86921 56.1768 8.0297 56.1452 8.19174 56.1454H47.0074C47.3341 56.1458 47.6473 56.2754 47.8782 56.5058C48.1091 56.7361 48.2388 57.0484 48.2388 57.374C48.2388 57.6996 48.1091 58.0118 47.8782 58.2422C47.6473 58.4725 47.3341 58.6021 47.0074 58.6026Z" fill="#E6E6E6"/>
<path d="M52.0932 62.749H8.19174C8.0297 62.7492 7.86921 62.7176 7.71945 62.6559C7.56968 62.5942 7.43358 62.5038 7.31893 62.3897C7.20428 62.2756 7.11333 62.1401 7.05127 61.9909C6.98921 61.8418 6.95728 61.6819 6.95728 61.5204C6.95728 61.3589 6.98921 61.1991 7.05127 61.0499C7.11333 60.9008 7.20428 60.7652 7.31893 60.6511C7.43358 60.537 7.56968 60.4466 7.71945 60.3849C7.86921 60.3233 8.0297 60.2916 8.19174 60.2918H52.0932C52.2553 60.2916 52.4158 60.3233 52.5655 60.3849C52.7153 60.4466 52.8514 60.537 52.9661 60.6511C53.0807 60.7652 53.1717 60.9008 53.2337 61.0499C53.2958 61.1991 53.3277 61.3589 53.3277 61.5204C53.3277 61.6819 53.2958 61.8418 53.2337 61.9909C53.1717 62.1401 53.0807 62.2756 52.9661 62.3897C52.8514 62.5038 52.7153 62.5942 52.5655 62.6559C52.4158 62.7176 52.2553 62.7492 52.0932 62.749Z" fill="#E6E6E6"/>
<path d="M47.0073 72.279H8.19168C7.86468 72.279 7.55108 72.1496 7.31986 71.9192C7.08864 71.6888 6.95874 71.3763 6.95874 71.0505C6.95874 70.7246 7.08864 70.4121 7.31986 70.1817C7.55108 69.9513 7.86468 69.8219 8.19168 69.8219H47.0073C47.3343 69.8219 47.6479 69.9513 47.8791 70.1817C48.1104 70.4121 48.2402 70.7246 48.2402 71.0505C48.2402 71.3763 48.1104 71.6888 47.8791 71.9192C47.6479 72.1496 47.3343 72.279 47.0073 72.279Z" fill="#E6E6E6"/>
<path d="M52.0932 76.4255H8.19168C7.86468 76.4255 7.55108 76.296 7.31986 76.0656C7.08864 75.8352 6.95874 75.5227 6.95874 75.1969C6.95874 74.8711 7.08864 74.5586 7.31986 74.3282C7.55108 74.0978 7.86468 73.9683 8.19168 73.9683H52.0932C52.4202 73.9683 52.7338 74.0978 52.965 74.3282C53.1962 74.5586 53.3261 74.8711 53.3261 75.1969C53.3261 75.5227 53.1962 75.8352 52.965 76.0656C52.7338 76.296 52.4202 76.4255 52.0932 76.4255Z" fill="#E6E6E6"/>
<path d="M47.0073 85.9555H8.19168C7.86468 85.9555 7.55108 85.8261 7.31986 85.5957C7.08864 85.3653 6.95874 85.0528 6.95874 84.727C6.95874 84.4011 7.08864 84.0886 7.31986 83.8582C7.55108 83.6278 7.86468 83.4984 8.19168 83.4984H47.0073C47.3343 83.4984 47.6479 83.6278 47.8791 83.8582C48.1104 84.0886 48.2402 84.4011 48.2402 84.727C48.2402 85.0528 48.1104 85.3653 47.8791 85.5957C47.6479 85.8261 47.3343 85.9555 47.0073 85.9555Z" fill="#E6E6E6"/>
<path d="M52.0932 90.1019H8.19168C7.86468 90.1019 7.55108 89.9725 7.31986 89.7421C7.08864 89.5117 6.95874 89.1992 6.95874 88.8734C6.95874 88.5475 7.08864 88.2351 7.31986 88.0047C7.55108 87.7742 7.86468 87.6448 8.19168 87.6448H52.0932C52.4202 87.6448 52.7338 87.7742 52.965 88.0047C53.1962 88.2351 53.3261 88.5475 53.3261 88.8734C53.3261 89.1992 53.1962 89.5117 52.965 89.7421C52.7338 89.9725 52.4202 90.1019 52.0932 90.1019Z" fill="#E6E6E6"/>
<path d="M129.385 80.2163L74.3077 80.2163C73.6143 80.2156 72.9495 79.9407 72.4592 79.4522C71.9689 78.9636 71.6931 78.3012 71.6923 77.6102L71.6923 3.10616C71.693 2.41521 71.9688 1.75279 72.4591 1.26422C72.9495 0.775645 73.6142 0.500821 74.3076 0.500043L129.385 0.5C130.078 0.500777 130.743 0.775596 131.233 1.26417C131.723 1.75274 131.999 2.41516 132 3.10611L132 77.6102C131.999 78.3011 131.723 78.9636 131.233 79.4521C130.743 79.9407 130.078 80.2155 129.385 80.2163Z" fill="white"/>
<path d="M129.385 80.2163L74.3077 80.2163C73.6143 80.2156 72.9495 79.9407 72.4592 79.4522C71.9689 78.9636 71.6931 78.3012 71.6923 77.6102L71.6923 3.10616C71.693 2.41521 71.9688 1.75279 72.4591 1.26422C72.9495 0.775645 73.6142 0.500821 74.3076 0.500043L129.385 0.5C130.078 0.500777 130.743 0.775596 131.233 1.26417C131.723 1.75274 131.999 2.41516 132 3.10611L132 77.6102C131.999 78.3011 131.723 78.9636 131.233 79.4521C130.743 79.9407 130.078 80.2155 129.385 80.2163ZM74.3076 0.806644C73.6958 0.807336 73.1092 1.04983 72.6766 1.48092C72.244 1.91201 72.0006 2.4965 72 3.10616L72 77.6102C72.0007 78.2199 72.2441 78.8044 72.6767 79.2355C73.1093 79.6666 73.6959 79.909 74.3077 79.9097L129.385 79.9097C129.996 79.909 130.583 79.6665 131.016 79.2354C131.448 78.8043 131.692 78.2198 131.692 77.6102L131.692 3.10611C131.692 2.49645 131.448 1.91197 131.016 1.48087C130.583 1.04978 129.996 0.807292 129.385 0.806601L74.3076 0.806644Z" fill="#CCCCCC"/>
<path d="M99.3891 19.7883C99.3891 21.8044 98.7892 23.7751 97.6651 25.4514C96.5411 27.1277 94.9435 28.4342 93.0743 29.2057C91.2051 29.9772 89.1482 30.179 87.1639 29.7857C85.1796 29.3924 83.3569 28.4216 81.9262 26.9961C80.4956 25.5705 79.5213 23.7543 79.1266 21.777C78.7319 19.7997 78.9345 17.7501 79.7087 15.8876C80.483 14.025 81.7941 12.433 83.4764 11.313C85.1586 10.1929 87.1364 9.59509 89.1596 9.59509C91.8724 9.59594 94.4738 10.6701 96.392 12.5816C98.3102 14.493 99.3883 17.0852 99.3891 19.7883Z" fill="white"/>
<path d="M93.8874 21.5325C93.7757 28.0516 84.0441 28.0506 83.9333 21.5323C84.0451 15.0134 93.7766 15.0144 93.8874 21.5325Z" fill="#1C1F4A"/>
<path d="M88.7128 23.556L88.7076 23.3707C89.9895 23.5412 90.2656 21.9581 88.9728 22.55L89.2679 20.401L89.4522 20.4262L89.2012 22.2541C90.5624 22.0522 90.0589 23.7412 88.7128 23.556Z" fill="#2F2E41"/>
<path d="M91.3652 20.5838H90.3635V20.7691H91.3652V20.5838Z" fill="#2F2E41"/>
<path d="M88.2034 20.5838H87.2017V20.7691H88.2034V20.5838Z" fill="#2F2E41"/>
<path d="M90.5238 28.4665C90.7191 27.1534 89.1764 27.4129 88.3598 27.3999C88.2282 27.4003 88.0983 27.43 87.9796 27.4868C87.8609 27.5435 87.7564 27.626 87.6737 27.728C87.5911 27.8301 87.5323 27.9493 87.5017 28.0769C87.4711 28.2045 87.4694 28.3373 87.4968 28.4656C86.8649 28.6602 86.2797 28.9819 85.7773 29.4108C87.8942 30.1463 90.1944 30.1717 92.327 29.4831C91.8071 29.0178 91.1918 28.671 90.5238 28.4665Z" fill="#2F2E41"/>
<path d="M86.5705 19.1868C87.4928 18.6557 88.6114 19.0632 89.5642 19.286C91.3719 19.8397 93.9068 19.1463 94.1266 17.0006C94.3554 15.005 91.6158 13.8928 90.7402 15.879L90.9951 15.8458C88.1553 11.6404 83.2156 11.7999 83.2481 17.5816C83.2376 17.7602 83.5166 17.7596 83.527 17.5815C83.4225 14.1744 85.6853 11.8455 88.884 14.035C89.5984 14.5923 90.2283 15.2494 90.7542 15.9861C91.0874 16.3581 91.1597 14.756 92.7542 15.1757C94.5089 15.853 93.9363 18.3567 92.3679 18.9064C90.4301 19.8929 88.3313 17.9801 86.4297 18.9467C86.399 18.9659 86.3771 18.9963 86.3685 19.0313C86.36 19.0664 86.3654 19.1034 86.3836 19.1345C86.4019 19.1657 86.4316 19.1886 86.4665 19.1983C86.5013 19.2081 86.5386 19.204 86.5705 19.1868Z" fill="#2F2E41"/>
<path d="M89.1595 30.2596C86.5179 30.2574 83.9741 29.263 82.0355 27.4748C80.097 25.6865 78.9062 23.2359 78.7006 20.6115C78.495 17.9872 79.2897 15.3821 80.9262 13.3157C82.5627 11.2494 84.9208 9.87362 87.5301 9.46289C90.1394 9.05217 92.8082 9.63663 95.0043 11.0997C97.2003 12.5628 98.7622 14.797 99.3784 17.3567C99.9946 19.9164 99.6198 22.6135 98.3289 24.9101C97.0379 27.2067 94.9256 28.934 92.4132 29.7475C91.3625 30.088 90.2644 30.2608 89.1595 30.2596ZM89.1595 9.8731C87.1911 9.87283 85.2668 10.4542 83.63 11.5438C81.9932 12.6333 80.7174 14.1821 79.964 15.9942C79.2106 17.8063 79.0134 19.8003 79.3973 21.7241C79.7813 23.6478 80.7291 25.415 82.121 26.8019C83.5129 28.1889 85.2863 29.1334 87.2169 29.516C89.1476 29.8985 91.1487 29.702 92.9672 28.9513C94.7858 28.2006 96.34 26.9293 97.4335 25.2983C98.5269 23.6673 99.1103 21.7498 99.1101 19.7884C99.1071 17.1596 98.0578 14.6393 96.1923 12.7805C94.3269 10.9217 91.7977 9.87607 89.1595 9.8731Z" fill="#CCCCCC"/>
<path d="M118.722 19.8502L103.137 19.8502C102.81 19.8502 102.497 19.7208 102.266 19.4904C102.034 19.26 101.905 18.9475 101.905 18.6217C101.905 18.2958 102.034 17.9833 102.266 17.7529C102.497 17.5225 102.81 17.3931 103.137 17.3931L118.722 17.3931C119.049 17.3931 119.363 17.5225 119.594 17.7529C119.825 17.9833 119.955 18.2958 119.955 18.6217C119.955 18.9475 119.825 19.26 119.594 19.4904C119.363 19.7208 119.049 19.8502 118.722 19.8502Z" fill="#E6E6E6"/>
<path d="M123.808 23.9966L103.137 23.9966C102.975 23.9968 102.815 23.9652 102.665 23.9036C102.515 23.8419 102.379 23.7514 102.265 23.6373C102.15 23.5232 102.059 23.3877 101.997 23.2386C101.935 23.0894 101.903 22.9295 101.903 22.7681C101.903 22.6066 101.935 22.4467 101.997 22.2976C102.059 22.1484 102.15 22.0129 102.265 21.8988C102.379 21.7847 102.515 21.6942 102.665 21.6326C102.815 21.5709 102.975 21.5393 103.137 21.5395L123.808 21.5395C124.135 21.5395 124.449 21.6689 124.68 21.8993C124.911 22.1297 125.041 22.4422 125.041 22.7681C125.041 23.0939 124.911 23.4064 124.68 23.6368C124.449 23.8672 124.135 23.9966 123.808 23.9966Z" fill="#E6E6E6"/>
<path d="M118.7 39.8999L79.884 39.8999C79.5573 39.8995 79.2441 39.7699 79.0132 39.5395C78.7823 39.3092 78.6526 38.9969 78.6526 38.6714C78.6526 38.3458 78.7823 38.0335 79.0132 37.8032C79.2441 37.5728 79.5573 37.4432 79.884 37.4428L118.7 37.4427C119.027 37.4427 119.34 37.5722 119.571 37.8026C119.803 38.033 119.933 38.3455 119.933 38.6713C119.933 38.9972 119.803 39.3096 119.571 39.5401C119.34 39.7705 119.027 39.8999 118.7 39.8999Z" fill="#E6E6E6"/>
<path d="M123.786 44.0463L79.884 44.0463C79.722 44.0465 79.5615 44.0149 79.4117 43.9532C79.262 43.8916 79.1258 43.8011 79.0112 43.687C78.8965 43.5729 78.8056 43.4374 78.7435 43.2883C78.6815 43.1391 78.6495 42.9792 78.6495 42.8177C78.6495 42.6563 78.6815 42.4964 78.7435 42.3472C78.8056 42.1981 78.8965 42.0626 79.0112 41.9485C79.1258 41.8344 79.262 41.7439 79.4117 41.6823C79.5615 41.6206 79.722 41.589 79.884 41.5892L123.786 41.5891C124.113 41.5891 124.426 41.7186 124.657 41.949C124.889 42.1794 125.018 42.4919 125.018 42.8177C125.018 43.1435 124.889 43.456 124.657 43.6864C124.426 43.9168 124.113 44.0463 123.786 44.0463Z" fill="#E6E6E6"/>
<path d="M118.7 53.5763L79.884 53.5764C79.5573 53.576 79.2441 53.4463 79.0132 53.216C78.7823 52.9856 78.6526 52.6734 78.6526 52.3478C78.6526 52.0222 78.7823 51.71 79.0132 51.4796C79.2441 51.2493 79.5573 51.1196 79.884 51.1192L118.7 51.1192C119.027 51.1192 119.34 51.2486 119.571 51.479C119.803 51.7094 119.933 52.0219 119.933 52.3478C119.933 52.6736 119.803 52.9861 119.571 53.2165C119.34 53.4469 119.027 53.5763 118.7 53.5763Z" fill="#E6E6E6"/>
<path d="M123.786 57.7228L79.884 57.7228C79.722 57.723 79.5615 57.6914 79.4117 57.6297C79.2619 57.5681 79.1258 57.4776 79.0112 57.3635C78.8965 57.2494 78.8056 57.1139 78.7435 56.9647C78.6815 56.8156 78.6495 56.6557 78.6495 56.4942C78.6495 56.3328 78.6815 56.1729 78.7435 56.0237C78.8056 55.8746 78.8965 55.7391 79.0112 55.625C79.1258 55.5109 79.2619 55.4204 79.4117 55.3587C79.5615 55.2971 79.722 55.2655 79.884 55.2657L123.786 55.2656C124.113 55.2656 124.426 55.3951 124.657 55.6255C124.889 55.8559 125.018 56.1684 125.018 56.4942C125.018 56.82 124.889 57.1325 124.657 57.3629C124.426 57.5933 124.113 57.7228 123.786 57.7228Z" fill="#E6E6E6"/>
<path d="M118.7 67.2528L79.8841 67.2529C79.5571 67.2529 79.2435 67.1234 79.0122 66.893C78.781 66.6626 78.6511 66.3501 78.6511 66.0243C78.6511 65.6985 78.781 65.386 79.0122 65.1556C79.2435 64.9252 79.5571 64.7957 79.8841 64.7957L118.7 64.7957C119.027 64.7957 119.34 64.9251 119.572 65.1555C119.803 65.3859 119.933 65.6984 119.933 66.0243C119.933 66.3501 119.803 66.6626 119.572 66.893C119.34 67.1234 119.027 67.2528 118.7 67.2528Z" fill="#E6E6E6"/>
<path d="M123.786 71.3992L79.8841 71.3993C79.5571 71.3993 79.2435 71.2698 79.0122 71.0394C78.781 70.809 78.6511 70.4966 78.6511 70.1707C78.6511 69.8449 78.781 69.5324 79.0122 69.302C79.2435 69.0716 79.5571 68.9421 79.8841 68.9421L123.786 68.9421C124.113 68.9421 124.426 69.0715 124.657 69.3019C124.889 69.5323 125.019 69.8448 125.019 70.1707C125.019 70.4965 124.889 70.809 124.657 71.0394C124.426 71.2698 124.113 71.3992 123.786 71.3992Z" fill="#E6E6E6"/>
<path d="M96.1538 112.256H41.0769C40.3835 112.255 39.7187 111.981 39.2284 111.492C38.7381 111.003 38.4623 110.341 38.4615 109.65V35.146C38.4623 34.455 38.7381 33.7926 39.2284 33.304C39.7187 32.8155 40.3835 32.5406 41.0769 32.5399H96.1538C96.8472 32.5406 97.512 32.8155 98.0023 33.304C98.4926 33.7926 98.7684 34.455 98.7692 35.146V109.65C98.7684 110.341 98.4926 111.003 98.0023 111.492C97.512 111.981 96.8472 112.255 96.1538 112.256Z" fill="white"/>
<path d="M45.6704 51.7202C45.6686 53.0618 45.9335 54.3905 46.4497 55.6296C46.9658 56.8688 47.7231 57.9938 48.6779 58.9398C48.7579 59.0185 48.8397 59.0973 48.9225 59.1742C49.421 59.6383 49.965 60.0515 50.5462 60.4076C50.6578 60.4762 50.7694 60.542 50.8838 60.6059C51.4716 60.936 52.0909 61.207 52.7325 61.4149C52.8432 61.451 52.9557 61.4853 53.0682 61.5168C55.1079 62.0997 57.2787 62.0388 59.2822 61.3426C59.3213 61.3287 59.3603 61.3148 59.3985 61.3009C61.1573 60.6633 62.7068 59.5572 63.8785 58.1029C65.0502 56.6486 65.799 54.9019 66.0436 53.053C66.2881 51.204 66.0189 49.3236 65.2654 47.6165C64.5118 45.9094 63.3027 44.441 61.7697 43.3712C60.2367 42.3013 58.4386 41.671 56.571 41.5488C54.7035 41.4266 52.8381 41.8173 51.1779 42.6783C49.5177 43.5392 48.1263 44.8375 47.1552 46.4318C46.1842 48.0261 45.6706 49.8552 45.6704 51.7202Z" fill="white"/>
<path d="M53.7397 56.7163C53.7447 57.506 53.4526 58.2689 52.921 58.8547C52.395 59.4299 51.612 59.8113 50.8218 59.6535C50.0942 59.5082 49.5029 58.8745 49.5767 58.1079C49.5889 57.9418 49.6373 57.7805 49.7186 57.635C49.7998 57.4895 49.912 57.3634 50.0471 57.2655C50.1823 57.1677 50.3372 57.1003 50.5012 57.0682C50.6651 57.0361 50.8341 57.0401 50.9964 57.0797C51.6876 57.2585 51.963 58.2511 51.387 58.717C51.2488 58.8288 51.0503 58.6333 51.1898 58.5205C51.2758 58.4421 51.3407 58.3435 51.3786 58.2336C51.4164 58.1238 51.426 58.0062 51.4065 57.8917C51.3869 57.7772 51.3388 57.6694 51.2667 57.5782C51.1945 57.487 51.1005 57.4153 50.9933 57.3697C50.8668 57.3293 50.7328 57.3182 50.6013 57.3371C50.4699 57.356 50.3445 57.4044 50.2346 57.4787C50.1247 57.5531 50.0332 57.6513 49.9671 57.7661C49.901 57.8809 49.8619 58.0091 49.8529 58.1412C49.8072 58.7874 50.3041 59.2741 50.9134 59.3887C51.5725 59.5127 52.2261 59.1765 52.6727 58.7125C53.1846 58.1737 53.467 57.4582 53.4607 56.7163C53.462 56.6803 53.4772 56.6461 53.5032 56.621C53.5292 56.5959 53.564 56.5819 53.6002 56.5819C53.6364 56.5819 53.6712 56.5959 53.6973 56.621C53.7233 56.6461 53.7385 56.6803 53.7397 56.7163Z" fill="#2F2E41"/>
<path d="M56.4639 58.4836C59.2126 58.4836 61.4409 56.2632 61.4409 53.5242C61.4409 50.7852 59.2126 48.5648 56.4639 48.5648C53.7151 48.5648 51.4868 50.7852 51.4868 53.5242C51.4868 56.2632 53.7151 58.4836 56.4639 58.4836Z" fill="#1C1F4A"/>
<path d="M56.2093 55.6403L56.2041 55.455C56.5501 55.4454 56.8552 55.4238 57.0844 55.2569C57.1494 55.2069 57.2028 55.1435 57.241 55.0711C57.2792 54.9987 57.3013 54.9189 57.3058 54.8373C57.3099 54.7874 57.3023 54.7372 57.2837 54.6907C57.2651 54.6441 57.236 54.6025 57.1986 54.569C57.112 54.5167 57.0129 54.4886 56.9116 54.4878C56.8103 54.4869 56.7107 54.5132 56.6232 54.564L56.4693 54.6343L56.7644 52.4853L56.9487 52.5105L56.6976 54.3385C56.8004 54.3005 56.9111 54.2887 57.0195 54.3043C57.128 54.3198 57.2309 54.3622 57.3187 54.4275C57.3778 54.4789 57.4241 54.5432 57.4542 54.6154C57.4842 54.6876 57.497 54.7658 57.4917 54.8438C57.4863 54.9535 57.4568 55.0608 57.4054 55.158C57.354 55.2552 57.2819 55.34 57.1941 55.4066C56.8996 55.621 56.5168 55.6317 56.2093 55.6403Z" fill="#2F2E41"/>
<path d="M58.8617 52.6681H57.86V52.8534H58.8617V52.6681Z" fill="#2F2E41"/>
<path d="M55.6998 52.6681H54.6981V52.8534H55.6998V52.6681Z" fill="#2F2E41"/>
<path d="M53.0682 61.5168C55.1079 62.0997 57.2787 62.0389 59.2822 61.3426C59.3213 61.3287 59.3603 61.3148 59.3985 61.3009C58.9264 60.938 58.3924 60.663 57.8222 60.4892C57.8625 60.3467 57.8619 60.1958 57.8203 60.0536C57.7639 59.8735 57.6506 59.7162 57.4973 59.6054C57.344 59.4945 57.1588 59.4359 56.9694 59.4383H55.7568C55.5677 59.4358 55.3828 59.4942 55.2298 59.605C55.0768 59.7157 54.9638 59.8728 54.9077 60.0527C54.8662 60.1952 54.8655 60.3464 54.9059 60.4892C54.4036 60.6424 53.929 60.8742 53.4998 61.1758C53.4133 61.2361 53.3296 61.2991 53.2487 61.3649C53.1873 61.414 53.1269 61.4649 53.0682 61.5168Z" fill="#2F2E41"/>
<path d="M60.3629 52.9981C60.3629 53.8339 60.7758 54.527 61.3124 54.6475C61.367 54.6597 61.4229 54.6659 61.4789 54.666C62.0936 54.666 62.5948 53.9182 62.5948 52.9981C62.6087 52.5237 62.4568 52.0592 62.1652 51.6841C62.0745 51.5747 61.9629 51.4843 61.8369 51.4181C61.7263 51.3606 61.6036 51.3304 61.4789 51.3301C61.3076 51.3322 61.1413 51.3879 61.0036 51.4895C60.6251 51.7563 60.3629 52.3318 60.3629 52.9981Z" fill="#3F3D56"/>
<path d="M50.4123 52.9981C50.4123 53.7171 50.7173 54.3306 51.1451 54.565C51.2622 54.6304 51.3941 54.6652 51.5283 54.6661C51.5581 54.666 51.588 54.6642 51.6176 54.6605C52.1904 54.5929 52.6442 53.8738 52.6442 52.9981C52.6442 52.2966 52.3531 51.6952 51.9421 51.4496C51.8178 51.3727 51.6746 51.3313 51.5283 51.3301C51.4036 51.3304 51.2808 51.3606 51.1702 51.4181C51.0439 51.4846 50.932 51.5753 50.841 51.685C50.5502 52.0602 50.3987 52.5242 50.4123 52.9981Z" fill="#3F3D56"/>
<path d="M51.2147 54.4052C51.2369 54.4051 51.2587 54.3999 51.2784 54.3898C51.2981 54.3797 51.3151 54.3651 51.328 54.3472C51.3409 54.3292 51.3494 54.3085 51.3527 54.2867C51.3559 54.2649 51.354 54.2426 51.3469 54.2217C51.0803 53.4317 51.0001 52.5911 51.1126 51.7652C51.225 50.9393 51.527 50.1503 51.9952 49.4597C52.4634 48.769 53.0851 48.1952 53.812 47.7829C54.5389 47.3705 55.3514 47.1308 56.1864 47.0822C57.0214 47.0337 57.8565 47.1777 58.6265 47.5029C59.3966 47.8282 60.0811 48.3261 60.6267 48.9578C61.1723 49.5896 61.5644 50.3382 61.7724 51.1454C61.9805 51.9527 61.9989 52.7969 61.8263 53.6124C61.8188 53.6485 61.8259 53.686 61.8461 53.7168C61.8663 53.7477 61.898 53.7692 61.9341 53.7768C61.9703 53.7844 62.008 53.7774 62.0389 53.7574C62.0699 53.7373 62.0916 53.7058 62.0993 53.6698C62.2809 52.8124 62.2616 51.9248 62.0429 51.076C61.8242 50.2272 61.4121 49.4401 60.8385 48.7758C60.2648 48.1116 59.5452 47.5881 58.7355 47.2461C57.9259 46.9041 57.0479 46.7527 56.17 46.8038C55.2921 46.8548 54.4378 47.1069 53.6735 47.5405C52.9093 47.9741 52.2557 48.5774 51.7635 49.3036C51.2713 50.0299 50.9538 50.8594 50.8357 51.7278C50.7176 52.5962 50.8021 53.48 51.0825 54.3105C51.0919 54.3381 51.1097 54.3621 51.1334 54.379C51.1571 54.396 51.1855 54.4051 51.2147 54.4052Z" fill="#3F3D56"/>
<path d="M58.9641 50.3109C59.0467 50.4453 59.081 50.6036 59.0614 50.7599C59.0418 50.9163 58.9695 51.0613 58.8564 51.1714C58.5862 51.4721 58.1553 51.4911 57.7812 51.4353C57.3614 51.3726 56.9161 51.1766 56.4911 51.3087C56.1288 51.4213 55.8704 51.7487 55.494 51.8309C55.1603 51.9038 54.7612 51.8073 54.6441 51.4528C54.5879 51.2825 54.8572 51.2095 54.9132 51.3789C54.9889 51.6082 55.3157 51.6037 55.5029 51.5402C55.803 51.4384 56.0343 51.1907 56.3292 51.0724C56.6808 50.9639 57.0573 50.965 57.4083 51.0754C57.742 51.1503 58.126 51.2613 58.4584 51.1214C58.7044 51.0179 58.9001 50.6919 58.7232 50.4512C58.617 50.3068 58.859 50.1679 58.9641 50.3109Z" fill="#2F2E41"/>
<path d="M55.9 62.1914C54.9159 62.1922 53.9366 62.055 52.9909 61.7839C52.8798 61.7528 52.763 61.7174 52.6457 61.6791C51.9868 61.4654 51.3507 61.187 50.7469 60.8482C50.6337 60.7849 50.52 60.7181 50.3998 60.6443C49.8029 60.2784 49.2442 59.854 48.732 59.3773C48.6475 59.2988 48.5637 59.2182 48.4819 59.1376C46.8711 57.5374 45.825 55.4595 45.5006 53.2161C45.1762 50.9728 45.5911 48.6852 46.683 46.6969C47.7748 44.7086 49.4847 43.127 51.5557 42.1897C53.6267 41.2525 55.9469 41.0102 58.1679 41.4992C60.3889 41.9882 62.3907 43.1821 63.8726 44.9016C65.3544 46.6211 66.2363 48.7733 66.3858 51.0349C66.5352 53.2965 65.9442 55.5454 64.7014 57.4437C63.4587 59.342 61.6313 60.7872 59.4938 61.5622C59.4555 61.5762 59.4157 61.5903 59.376 61.6044C58.2589 61.9942 57.0836 62.1927 55.9 62.1914ZM55.9 41.8049C53.9306 41.805 52.0055 42.3874 50.3685 43.4783C48.7314 44.5693 47.4561 46.1197 46.7039 47.9333C45.9517 49.747 45.7564 51.7422 46.1429 53.6665C46.5294 55.5907 47.4802 57.3574 48.8749 58.7429C48.9521 58.8189 49.032 58.8958 49.1128 58.971C49.5979 59.4224 50.127 59.8243 50.6924 60.1708C50.8062 60.2408 50.9134 60.3037 51.0203 60.3635C51.5921 60.6844 52.1946 60.9481 52.8187 61.1505C52.9291 61.1865 53.0382 61.2197 53.1437 61.2492C55.1282 61.8166 57.2405 61.7576 59.19 61.0803L59.3027 61.0398C61.5011 60.2424 63.3474 58.6987 64.5172 56.6798C65.687 54.6608 66.1055 52.2958 65.6994 49.9999C65.2932 47.7041 64.0883 45.6242 62.2963 44.1255C60.5042 42.6268 58.2395 41.8052 55.9 41.8049Z" fill="#CCCCCC"/>
<path d="M96.1538 112.256H41.0769C40.3835 112.255 39.7187 111.981 39.2284 111.492C38.7381 111.003 38.4623 110.341 38.4615 109.65V35.146C38.4623 34.455 38.7381 33.7926 39.2284 33.304C39.7187 32.8155 40.3835 32.5406 41.0769 32.5399H96.1538C96.8472 32.5406 97.512 32.8155 98.0023 33.304C98.4926 33.7926 98.7684 34.455 98.7692 35.146V109.65C98.7684 110.341 98.4926 111.003 98.0023 111.492C97.512 111.981 96.8472 112.255 96.1538 112.256ZM41.0769 32.8465C40.4651 32.8471 39.8785 33.0896 39.4459 33.5207C39.0133 33.9518 38.7699 34.5363 38.7692 35.146V109.65C38.7699 110.26 39.0133 110.844 39.4459 111.275C39.8785 111.706 40.4651 111.949 41.0769 111.95H96.1538C96.7657 111.949 97.3522 111.706 97.7849 111.275C98.2175 110.844 98.4608 110.26 98.4615 109.65V35.146C98.4608 34.5363 98.2175 33.9518 97.7849 33.5207C97.3522 33.0896 96.7657 32.8471 96.1538 32.8465H41.0769Z" fill="#3F3D56"/>
<path d="M85.4916 51.8901H69.9068C69.5798 51.8901 69.2662 51.7606 69.035 51.5302C68.8037 51.2998 68.6738 50.9873 68.6738 50.6615C68.6738 50.3357 68.8037 50.0232 69.035 49.7928C69.2662 49.5624 69.5798 49.4329 69.9068 49.4329H85.4916C85.8186 49.4329 86.1322 49.5624 86.3635 49.7928C86.5947 50.0232 86.7246 50.3357 86.7246 50.6615C86.7246 50.9873 86.5947 51.2998 86.3635 51.5302C86.1322 51.7606 85.8186 51.8901 85.4916 51.8901Z" fill="#1C1F4A"/>
<path d="M90.5775 56.0365H69.9068C69.5798 56.0365 69.2662 55.907 69.035 55.6766C68.8037 55.4462 68.6738 55.1337 68.6738 54.8079C68.6738 54.4821 68.8037 54.1696 69.035 53.9392C69.2662 53.7088 69.5798 53.5793 69.9068 53.5793H90.5775C90.9045 53.5793 91.2181 53.7088 91.4493 53.9392C91.6806 54.1696 91.8105 54.4821 91.8105 54.8079C91.8105 55.1337 91.6806 55.4462 91.4493 55.6766C91.2181 55.907 90.9045 56.0365 90.5775 56.0365Z" fill="#1C1F4A"/>
<path d="M85.4689 71.9397H46.6532C46.3262 71.9397 46.0126 71.8103 45.7814 71.5799C45.5502 71.3495 45.4203 71.037 45.4203 70.7111C45.4203 70.3853 45.5502 70.0728 45.7814 69.8424C46.0126 69.612 46.3262 69.4826 46.6532 69.4826H85.4689C85.7959 69.4826 86.1095 69.612 86.3407 69.8424C86.5719 70.0728 86.7018 70.3853 86.7018 70.7111C86.7018 71.037 86.5719 71.3495 86.3407 71.5799C86.1095 71.8103 85.7959 71.9397 85.4689 71.9397Z" fill="#CCCCCC"/>
<path d="M90.5547 76.0861H46.6532C46.3262 76.0861 46.0126 75.9567 45.7814 75.7263C45.5502 75.4959 45.4203 75.1834 45.4203 74.8575C45.4203 74.5317 45.5502 74.2192 45.7814 73.9888C46.0126 73.7584 46.3262 73.629 46.6532 73.629H90.5547C90.8817 73.629 91.1953 73.7584 91.4266 73.9888C91.6578 74.2192 91.7877 74.5317 91.7877 74.8575C91.7877 75.1834 91.6578 75.4959 91.4266 75.7263C91.1953 75.9567 90.8817 76.0861 90.5547 76.0861Z" fill="#CCCCCC"/>
<path d="M85.4689 85.6162H46.6533C46.3266 85.6158 46.0133 85.4862 45.7825 85.2558C45.5516 85.0255 45.4219 84.7132 45.4219 84.3876C45.4219 84.0621 45.5516 83.7498 45.7825 83.5194C46.0133 83.2891 46.3266 83.1595 46.6533 83.1591H85.4689C85.7959 83.1591 86.1095 83.2885 86.3407 83.5189C86.572 83.7493 86.7019 84.0618 86.7019 84.3876C86.7019 84.7135 86.572 85.026 86.3407 85.2564C86.1095 85.4868 85.7959 85.6162 85.4689 85.6162Z" fill="#CCCCCC"/>
<path d="M90.5548 89.7626H46.6533C46.3266 89.7622 46.0133 89.6326 45.7825 89.4022C45.5516 89.1719 45.4219 88.8596 45.4219 88.534C45.4219 88.2085 45.5516 87.8962 45.7825 87.6659C46.0133 87.4355 46.3266 87.3059 46.6533 87.3055H90.5548C90.8818 87.3055 91.1954 87.4349 91.4266 87.6653C91.6578 87.8957 91.7877 88.2082 91.7877 88.534C91.7877 88.8599 91.6578 89.1724 91.4266 89.4028C91.1954 89.6332 90.8818 89.7626 90.5548 89.7626Z" fill="#CCCCCC"/>
<path d="M85.4689 99.2926H46.6532C46.3262 99.2926 46.0126 99.1632 45.7814 98.9328C45.5502 98.7024 45.4203 98.3899 45.4203 98.0641C45.4203 97.7382 45.5502 97.4258 45.7814 97.1954C46.0126 96.965 46.3262 96.8355 46.6532 96.8355H85.4689C85.7959 96.8355 86.1095 96.965 86.3407 97.1954C86.5719 97.4258 86.7018 97.7382 86.7018 98.0641C86.7018 98.3899 86.5719 98.7024 86.3407 98.9328C86.1095 99.1632 85.7959 99.2926 85.4689 99.2926Z" fill="#CCCCCC"/>
<path d="M90.5547 103.439H46.6532C46.3262 103.439 46.0126 103.31 45.7814 103.079C45.5502 102.849 45.4203 102.536 45.4203 102.211C45.4203 101.885 45.5502 101.572 45.7814 101.342C46.0126 101.111 46.3262 100.982 46.6532 100.982H90.5547C90.8817 100.982 91.1953 101.111 91.4266 101.342C91.6578 101.572 91.7877 101.885 91.7877 102.211C91.7877 102.536 91.6578 102.849 91.4266 103.079C91.1953 103.31 90.8817 103.439 90.5547 103.439Z" fill="#CCCCCC"/>
<path d="M95.5147 95.291C93.9183 95.2892 92.3372 95.601 90.8619 96.2085C89.3865 96.816 88.0457 97.7073 86.9163 98.8315C85.7868 99.9557 84.8908 101.291 84.2795 102.76C83.6682 104.23 83.3535 105.805 83.3535 107.395C83.3535 108.986 83.6682 110.561 84.2795 112.031C84.8908 113.5 85.7868 114.835 86.9162 115.959C88.0457 117.084 89.3864 117.975 90.8618 118.582C92.3372 119.19 93.9182 119.502 95.5146 119.5C98.7326 119.494 101.817 118.217 104.091 115.947C106.364 113.678 107.641 110.602 107.641 107.395C107.641 104.189 106.364 101.113 104.091 98.8438C101.817 96.5744 98.7327 95.2966 95.5147 95.291Z" fill="#1C1F4A"/>
<path d="M94.3621 112.423C94.0424 112.423 93.7311 112.32 93.4752 112.129L93.4593 112.117L90.1187 109.571C89.8067 109.332 89.6025 108.979 89.5512 108.591C89.4998 108.202 89.6054 107.809 89.8448 107.497C90.0843 107.186 90.4378 106.982 90.8279 106.931C91.218 106.879 91.6127 106.984 91.9252 107.223L94.089 108.876L99.2021 102.229C99.3206 102.075 99.4685 101.946 99.6372 101.848C99.8059 101.751 99.9922 101.688 100.185 101.663C100.379 101.637 100.575 101.65 100.763 101.7C100.951 101.75 101.128 101.837 101.283 101.955L101.283 101.956L101.251 101.999L101.284 101.956C101.596 102.194 101.8 102.547 101.851 102.936C101.903 103.324 101.797 103.718 101.558 104.029L95.5442 111.844C95.4051 112.024 95.2262 112.17 95.0214 112.27C94.8166 112.37 94.5915 112.421 94.3634 112.421L94.3621 112.423Z" fill="white"/>
</g>
<defs>
<clipPath id="clip0_22_4">
<rect width="132" height="119" fill="white" transform="translate(0 0.5)"/>
</clipPath>
</defs>
</svg>
