<svg width="140" height="120" viewBox="0 0 140 120" fill="none" xmlns="http://www.w3.org/2000/svg">
<g clip-path="url(#clip0_22_97)">
<path d="M6.47056 24.4326C7.70261 24.4326 8.70138 23.2337 8.70138 21.7546C8.70138 20.2756 7.70261 19.0766 6.47056 19.0766C5.23852 19.0766 4.23975 20.2756 4.23975 21.7546C4.23975 23.2337 5.23852 24.4326 6.47056 24.4326Z" fill="#E6E6E6"/>
<path d="M13.1629 24.4326C14.395 24.4326 15.3938 23.2337 15.3938 21.7546C15.3938 20.2756 14.395 19.0766 13.1629 19.0766C11.9309 19.0766 10.9321 20.2756 10.9321 21.7546C10.9321 23.2337 11.9309 24.4326 13.1629 24.4326Z" fill="#E6E6E6"/>
<path d="M19.8554 24.4326C21.0875 24.4326 22.0863 23.2337 22.0863 21.7546C22.0863 20.2756 21.0875 19.0766 19.8554 19.0766C18.6234 19.0766 17.6246 20.2756 17.6246 21.7546C17.6246 23.2337 18.6234 24.4326 19.8554 24.4326Z" fill="#E6E6E6"/>
<path d="M26.5478 24.4326C27.7799 24.4326 28.7786 23.2337 28.7786 21.7546C28.7786 20.2756 27.7799 19.0766 26.5478 19.0766C25.3158 19.0766 24.317 20.2756 24.317 21.7546C24.317 23.2337 25.3158 24.4326 26.5478 24.4326Z" fill="#E6E6E6"/>
<path d="M33.2403 24.4326C34.4724 24.4326 35.4712 23.2337 35.4712 21.7546C35.4712 20.2756 34.4724 19.0766 33.2403 19.0766C32.0083 19.0766 31.0095 20.2756 31.0095 21.7546C31.0095 23.2337 32.0083 24.4326 33.2403 24.4326Z" fill="#E6E6E6"/>
<path d="M39.9327 24.4326C41.1648 24.4326 42.1635 23.2337 42.1635 21.7546C42.1635 20.2756 41.1648 19.0766 39.9327 19.0766C38.7007 19.0766 37.7019 20.2756 37.7019 21.7546C37.7019 23.2337 38.7007 24.4326 39.9327 24.4326Z" fill="#E6E6E6"/>
<path d="M46.6252 24.4326C47.8573 24.4326 48.856 23.2337 48.856 21.7546C48.856 20.2756 47.8573 19.0766 46.6252 19.0766C45.3932 19.0766 44.3944 20.2756 44.3944 21.7546C44.3944 23.2337 45.3932 24.4326 46.6252 24.4326Z" fill="#E6E6E6"/>
<path d="M51.7801 25.0159H1.31554C1.07486 25.0155 0.84411 24.9006 0.673921 24.6963C0.503732 24.492 0.407998 24.215 0.407715 23.926V19.5833C0.407997 19.2944 0.503732 19.0174 0.673921 18.813C0.84411 18.6087 1.07485 18.4938 1.31554 18.4935H51.7801C52.0208 18.4938 52.2516 18.6087 52.4218 18.813C52.592 19.0174 52.6877 19.2944 52.688 19.5833V23.926C52.6877 24.215 52.592 24.492 52.4218 24.6963C52.2516 24.9006 52.0208 25.0155 51.7801 25.0159ZM1.31554 18.9294C1.17112 18.9296 1.03267 18.9985 0.930556 19.1211C0.82844 19.2437 0.771001 19.4099 0.770844 19.5833V23.926C0.771002 24.0994 0.82844 24.2656 0.930556 24.3882C1.03267 24.5108 1.17112 24.5797 1.31554 24.5799H51.7801C51.9246 24.5797 52.063 24.5108 52.1651 24.3882C52.2672 24.2656 52.3247 24.0994 52.3248 23.926V19.5833C52.3247 19.4099 52.2672 19.2437 52.1651 19.1211C52.063 18.9985 51.9246 18.9296 51.7801 18.9294L1.31554 18.9294Z" fill="#E6E6E6"/>
<path d="M12.1153 0.626163C12.2536 0.626353 12.3862 0.692385 12.484 0.809771C12.5817 0.927156 12.6367 1.08631 12.6369 1.25232V14.8212C12.6367 14.9872 12.5817 15.1463 12.484 15.2637C12.3862 15.3811 12.2536 15.4471 12.1153 15.4473H1.0432C0.904918 15.4471 0.77234 15.3811 0.674556 15.2637C0.576773 15.1463 0.521768 14.9872 0.52161 14.8212V1.25233C0.521768 1.08632 0.576773 0.927165 0.674556 0.80978C0.77234 0.692394 0.904918 0.626362 1.0432 0.626172L12.1153 0.626163ZM12.1153 8.99376e-06H1.0432C0.76653 8.99376e-06 0.501187 0.13195 0.305549 0.366807C0.109911 0.601665 0 0.9202 0 1.25234V14.8212C0 15.1533 0.109911 15.4718 0.305549 15.7067C0.501187 15.9415 0.76653 16.0735 1.0432 16.0735H12.1153C12.392 16.0735 12.6573 15.9415 12.853 15.7067C13.0486 15.4718 13.1585 15.1533 13.1585 14.8212V1.25233C13.1585 0.920191 13.0486 0.601656 12.853 0.366798C12.6573 0.131941 12.392 9.51483e-06 12.1153 8.99376e-06Z" fill="#E6E6E6"/>
<path d="M10.3883 4.19281H3.00105C2.96667 4.19306 2.93258 4.18515 2.90075 4.16953C2.86893 4.15391 2.83999 4.13089 2.8156 4.1018C2.79121 4.0727 2.77186 4.0381 2.75865 3.99999C2.74545 3.96188 2.73865 3.92101 2.73865 3.87973C2.73865 3.83846 2.74545 3.79759 2.75865 3.75948C2.77186 3.72137 2.79121 3.68677 2.8156 3.65767C2.83999 3.62858 2.86893 3.60556 2.90075 3.58994C2.93258 3.57432 2.96667 3.5664 3.00105 3.56666H10.3883C10.4227 3.5664 10.4567 3.57432 10.4886 3.58994C10.5204 3.60556 10.5493 3.62858 10.5737 3.65767C10.5981 3.68677 10.6175 3.72137 10.6307 3.75948C10.6439 3.79759 10.6507 3.83846 10.6507 3.87973C10.6507 3.92101 10.6439 3.96188 10.6307 3.99999C10.6175 4.0381 10.5981 4.0727 10.5737 4.1018C10.5493 4.13089 10.5204 4.15391 10.4886 4.16953C10.4567 4.18515 10.4227 4.19306 10.3883 4.19281Z" fill="#1C1F4A"/>
<path d="M10.3883 6.40994H3.00105C2.96667 6.4102 2.93258 6.40228 2.90075 6.38666C2.86893 6.37104 2.83999 6.34802 2.8156 6.31893C2.79121 6.28983 2.77186 6.25523 2.75865 6.21712C2.74545 6.17901 2.73865 6.13814 2.73865 6.09686C2.73865 6.05559 2.74545 6.01472 2.75865 5.97661C2.77186 5.9385 2.79121 5.9039 2.8156 5.87481C2.83999 5.84571 2.86893 5.82269 2.90075 5.80707C2.93258 5.79145 2.96667 5.78354 3.00105 5.78379H10.3883C10.4227 5.78354 10.4567 5.79145 10.4886 5.80707C10.5204 5.82269 10.5493 5.84571 10.5737 5.87481C10.5981 5.9039 10.6175 5.9385 10.6307 5.97661C10.6439 6.01472 10.6507 6.05559 10.6507 6.09686C10.6507 6.13814 10.6439 6.17901 10.6307 6.21712C10.6175 6.25523 10.5981 6.28983 10.5737 6.31893C10.5493 6.34802 10.5204 6.37104 10.4886 6.38666C10.4567 6.40228 10.4227 6.4102 10.3883 6.40994Z" fill="#1C1F4A"/>
<path d="M10.3883 8.62689H3.00105C2.96667 8.62715 2.93258 8.61923 2.90075 8.60361C2.86893 8.58799 2.83999 8.56497 2.8156 8.53588C2.79121 8.50678 2.77186 8.47218 2.75865 8.43407C2.74545 8.39596 2.73865 8.35509 2.73865 8.31381C2.73865 8.27254 2.74545 8.23167 2.75865 8.19356C2.77186 8.15545 2.79121 8.12085 2.8156 8.09175C2.83999 8.06266 2.86893 8.03963 2.90075 8.02401C2.93258 8.00839 2.96667 8.00049 3.00105 8.00074H10.3883C10.4227 8.00049 10.4567 8.00839 10.4886 8.02401C10.5204 8.03963 10.5493 8.06266 10.5737 8.09175C10.5981 8.12085 10.6175 8.15545 10.6307 8.19356C10.6439 8.23167 10.6507 8.27254 10.6507 8.31381C10.6507 8.35509 10.6439 8.39596 10.6307 8.43407C10.6175 8.47218 10.5981 8.50678 10.5737 8.53588C10.5493 8.56497 10.5204 8.58799 10.4886 8.60361C10.4567 8.61923 10.4227 8.62715 10.3883 8.62689Z" fill="#1C1F4A"/>
<path d="M10.3883 10.844H3.00105C2.96667 10.8442 2.93258 10.8363 2.90075 10.8207C2.86893 10.8051 2.83999 10.7821 2.8156 10.753C2.79121 10.7239 2.77186 10.6893 2.75865 10.6512C2.74545 10.6131 2.73865 10.5722 2.73865 10.5309C2.73865 10.4896 2.74545 10.4488 2.75865 10.4107C2.77186 10.3726 2.79121 10.338 2.8156 10.3089C2.83999 10.2798 2.86893 10.2567 2.90075 10.2411C2.93258 10.2255 2.96667 10.2176 3.00105 10.2178H10.3883C10.4227 10.2176 10.4567 10.2255 10.4886 10.2411C10.5204 10.2567 10.5493 10.2798 10.5737 10.3089C10.5981 10.338 10.6175 10.3726 10.6307 10.4107C10.6439 10.4488 10.6507 10.4896 10.6507 10.5309C10.6507 10.5722 10.6439 10.6131 10.6307 10.6512C10.6175 10.6893 10.5981 10.7239 10.5737 10.753C10.5493 10.7821 10.5204 10.8051 10.4886 10.8207C10.4567 10.8363 10.4227 10.8442 10.3883 10.844Z" fill="#1C1F4A"/>
<path d="M10.3883 13.0611H3.00103C2.93187 13.0611 2.86553 13.0281 2.81662 12.9694C2.76771 12.9107 2.74023 12.8311 2.74023 12.748C2.74023 12.665 2.76771 12.5854 2.81662 12.5266C2.86553 12.4679 2.93187 12.4349 3.00103 12.4349H10.3883C10.4574 12.4349 10.5238 12.4679 10.5727 12.5266C10.6216 12.5854 10.6491 12.665 10.6491 12.748C10.6491 12.8311 10.6216 12.9107 10.5727 12.9694C10.5238 13.0281 10.4574 13.0611 10.3883 13.0611Z" fill="#1C1F4A"/>
<path d="M49.9313 0.626163C50.0696 0.626353 50.2022 0.692385 50.3 0.809771C50.3978 0.927156 50.4528 1.08631 50.4529 1.25232V14.8212C50.4528 14.9872 50.3978 15.1463 50.3 15.2637C50.2022 15.3811 50.0696 15.4471 49.9313 15.4473H38.8592C38.721 15.4471 38.5884 15.3811 38.4906 15.2637C38.3928 15.1463 38.3378 14.9872 38.3376 14.8212V1.25233C38.3378 1.08632 38.3928 0.927165 38.4906 0.80978C38.5884 0.692394 38.721 0.626362 38.8592 0.626172L49.9313 0.626163ZM49.9313 8.99376e-06H38.8592C38.5826 8.99376e-06 38.3172 0.13195 38.1216 0.366807C37.926 0.601665 37.816 0.9202 37.816 1.25234V14.8212C37.816 15.1533 37.926 15.4718 38.1216 15.7067C38.3172 15.9415 38.5826 16.0735 38.8592 16.0735H49.9313C50.208 16.0735 50.4734 15.9415 50.669 15.7067C50.8646 15.4718 50.9745 15.1533 50.9745 14.8212V1.25233C50.9745 0.920191 50.8646 0.601656 50.669 0.366798C50.4734 0.131941 50.208 8.99376e-06 49.9313 8.99376e-06Z" fill="#E6E6E6"/>
<path d="M48.2044 4.19281H40.8172C40.7828 4.19306 40.7487 4.18515 40.7169 4.16953C40.6851 4.15391 40.6561 4.13089 40.6318 4.1018C40.6074 4.0727 40.588 4.0381 40.5748 3.99999C40.5616 3.96188 40.5548 3.92101 40.5548 3.87973C40.5548 3.83846 40.5616 3.79759 40.5748 3.75948C40.588 3.72137 40.6074 3.68677 40.6318 3.65767C40.6561 3.62858 40.6851 3.60556 40.7169 3.58994C40.7487 3.57432 40.7828 3.5664 40.8172 3.56666H48.2044C48.2733 3.56716 48.3392 3.60037 48.3878 3.65903C48.4364 3.71769 48.4636 3.79703 48.4636 3.87973C48.4636 3.96244 48.4364 4.04178 48.3878 4.10044C48.3392 4.15909 48.2733 4.1923 48.2044 4.19281Z" fill="#1C1F4A"/>
<path d="M48.2044 6.40994H40.8172C40.7828 6.4102 40.7487 6.40228 40.7169 6.38666C40.6851 6.37104 40.6561 6.34802 40.6318 6.31893C40.6074 6.28983 40.588 6.25523 40.5748 6.21712C40.5616 6.17901 40.5548 6.13814 40.5548 6.09686C40.5548 6.05559 40.5616 6.01472 40.5748 5.97661C40.588 5.9385 40.6074 5.9039 40.6318 5.87481C40.6561 5.84571 40.6851 5.82269 40.7169 5.80707C40.7487 5.79145 40.7828 5.78354 40.8172 5.78379H48.2044C48.2733 5.7843 48.3392 5.81751 48.3878 5.87616C48.4364 5.93482 48.4636 6.01416 48.4636 6.09686C48.4636 6.17957 48.4364 6.25891 48.3878 6.31757C48.3392 6.37623 48.2733 6.40944 48.2044 6.40994Z" fill="#1C1F4A"/>
<path d="M48.2044 8.62689H40.8172C40.7828 8.62715 40.7487 8.61923 40.7169 8.60361C40.6851 8.58799 40.6561 8.56497 40.6318 8.53588C40.6074 8.50678 40.588 8.47218 40.5748 8.43407C40.5616 8.39596 40.5548 8.35509 40.5548 8.31381C40.5548 8.27254 40.5616 8.23167 40.5748 8.19356C40.588 8.15545 40.6074 8.12085 40.6318 8.09175C40.6561 8.06266 40.6851 8.03963 40.7169 8.02401C40.7487 8.00839 40.7828 8.00049 40.8172 8.00074H48.2044C48.2733 8.00125 48.3392 8.03445 48.3878 8.09311C48.4364 8.15177 48.4636 8.23111 48.4636 8.31381C48.4636 8.39652 48.4364 8.47586 48.3878 8.53452C48.3392 8.59318 48.2733 8.62639 48.2044 8.62689Z" fill="#1C1F4A"/>
<path d="M48.2044 10.844H40.8172C40.7828 10.8442 40.7487 10.8363 40.7169 10.8207C40.6851 10.8051 40.6561 10.7821 40.6318 10.753C40.6074 10.7239 40.588 10.6893 40.5748 10.6512C40.5616 10.6131 40.5548 10.5722 40.5548 10.5309C40.5548 10.4896 40.5616 10.4488 40.5748 10.4107C40.588 10.3726 40.6074 10.338 40.6318 10.3089C40.6561 10.2798 40.6851 10.2567 40.7169 10.2411C40.7487 10.2255 40.7828 10.2176 40.8172 10.2178H48.2044C48.2733 10.2183 48.3392 10.2516 48.3878 10.3102C48.4364 10.3689 48.4636 10.4482 48.4636 10.5309C48.4636 10.6136 48.4364 10.693 48.3878 10.7516C48.3392 10.8103 48.2733 10.8435 48.2044 10.844Z" fill="#1C1F4A"/>
<path d="M48.2044 13.0611H40.8172C40.748 13.0611 40.6817 13.0281 40.6328 12.9694C40.5839 12.9107 40.5564 12.8311 40.5564 12.748C40.5564 12.665 40.5839 12.5854 40.6328 12.5266C40.6817 12.4679 40.748 12.4349 40.8172 12.4349H48.2044C48.2736 12.4349 48.3399 12.4679 48.3888 12.5266C48.4378 12.5854 48.4652 12.665 48.4652 12.748C48.4652 12.8311 48.4378 12.9107 48.3888 12.9694C48.3399 13.0281 48.2736 13.0611 48.2044 13.0611Z" fill="#1C1F4A"/>
<path d="M87.5638 26.7159C87.7021 26.7161 87.8347 26.7821 87.9324 26.8995C88.0302 27.0169 88.0852 27.176 88.0854 27.342V40.9109C88.0852 41.0769 88.0302 41.236 87.9324 41.3534C87.8347 41.4708 87.7021 41.5368 87.5638 41.537H76.4917C76.3534 41.5368 76.2208 41.4708 76.123 41.3534C76.0253 41.236 75.9703 41.0769 75.9701 40.9109V27.3421C75.9703 27.176 76.0253 27.0169 76.123 26.8995C76.2208 26.7821 76.3534 26.7161 76.4917 26.7159L87.5638 26.7159ZM87.5638 26.0897H76.4917C76.215 26.0897 75.9497 26.2217 75.754 26.4565C75.5584 26.6914 75.4485 27.0099 75.4485 27.3421V40.9109C75.4485 41.243 75.5584 41.5616 75.754 41.7964C75.9497 42.0313 76.215 42.1632 76.4917 42.1632H87.5638C87.8405 42.1632 88.1058 42.0313 88.3014 41.7964C88.4971 41.5616 88.607 41.243 88.607 40.9109V27.3421C88.607 27.0099 88.4971 26.6914 88.3014 26.4565C88.1058 26.2217 87.8405 26.0897 87.5638 26.0897Z" fill="#1C1F4A"/>
<path d="M85.8368 30.2826H78.4495C78.4152 30.2828 78.3811 30.2749 78.3492 30.2593C78.3174 30.2437 78.2885 30.2206 78.2641 30.1915C78.2397 30.1625 78.2203 30.1279 78.2071 30.0897C78.1939 30.0516 78.1871 30.0108 78.1871 29.9695C78.1871 29.9282 78.1939 29.8873 78.2071 29.8492C78.2203 29.8111 78.2397 29.7765 78.2641 29.7474C78.2885 29.7183 78.3174 29.6953 78.3492 29.6797C78.3811 29.6641 78.4152 29.6562 78.4495 29.6564H85.8368C85.9057 29.6569 85.9716 29.6901 86.0201 29.7488C86.0687 29.8074 86.096 29.8868 86.096 29.9695C86.096 30.0522 86.0687 30.1315 86.0201 30.1902C85.9716 30.2488 85.9057 30.2821 85.8368 30.2826Z" fill="#1C1F4A"/>
<path d="M85.8368 32.4997H78.4495C78.3804 32.4997 78.314 32.4667 78.2651 32.408C78.2162 32.3493 78.1887 32.2696 78.1887 32.1866C78.1887 32.1036 78.2162 32.0239 78.2651 31.9652C78.314 31.9065 78.3804 31.8735 78.4495 31.8735H85.8368C85.9059 31.8735 85.9723 31.9065 86.0212 31.9652C86.0701 32.0239 86.0975 32.1036 86.0975 32.1866C86.0975 32.2696 86.0701 32.3493 86.0212 32.408C85.9723 32.4667 85.9059 32.4997 85.8368 32.4997Z" fill="#1C1F4A"/>
<path d="M85.8367 34.7166H78.4495C78.4151 34.7168 78.3811 34.7089 78.3493 34.6932C78.3175 34.6776 78.2886 34.6546 78.2642 34.6255C78.2399 34.5964 78.2205 34.5618 78.2074 34.5237C78.1942 34.4856 78.1874 34.4448 78.1874 34.4035C78.1874 34.3623 78.1942 34.3214 78.2074 34.2834C78.2205 34.2453 78.2399 34.2107 78.2642 34.1816C78.2886 34.1525 78.3175 34.1295 78.3493 34.1138C78.3811 34.0982 78.4151 34.0903 78.4495 34.0905H85.8367C85.9056 34.091 85.9715 34.1242 86.0201 34.1828C86.0687 34.2415 86.0959 34.3208 86.0959 34.4035C86.0959 34.4862 86.0687 34.5656 86.0201 34.6242C85.9715 34.6829 85.9056 34.7161 85.8367 34.7166Z" fill="#1C1F4A"/>
<path d="M85.8368 36.9337H78.4495C78.4152 36.934 78.3811 36.9261 78.3492 36.9104C78.3174 36.8948 78.2885 36.8718 78.2641 36.8427C78.2397 36.8136 78.2203 36.779 78.2071 36.7409C78.1939 36.7028 78.1871 36.6619 78.1871 36.6206C78.1871 36.5794 78.1939 36.5385 78.2071 36.5004C78.2203 36.4623 78.2397 36.4277 78.2641 36.3986C78.2885 36.3695 78.3174 36.3465 78.3492 36.3308C78.3811 36.3152 78.4152 36.3073 78.4495 36.3076H85.8368C85.9057 36.3081 85.9716 36.3413 86.0201 36.3999C86.0687 36.4586 86.096 36.5379 86.096 36.6206C86.096 36.7033 86.0687 36.7827 86.0201 36.8413C85.9716 36.9 85.9057 36.9332 85.8368 36.9337Z" fill="#1C1F4A"/>
<path d="M85.8368 39.1508H78.4495C78.4152 39.1511 78.3811 39.1432 78.3492 39.1275C78.3174 39.1119 78.2885 39.0889 78.2641 39.0598C78.2397 39.0307 78.2203 38.9961 78.2071 38.958C78.1939 38.9199 78.1871 38.879 78.1871 38.8377C78.1871 38.7965 78.1939 38.7556 78.2071 38.7175C78.2203 38.6794 78.2397 38.6448 78.2641 38.6157C78.2885 38.5866 78.3174 38.5636 78.3492 38.5479C78.3811 38.5323 78.4152 38.5244 78.4495 38.5247H85.8368C85.9057 38.5252 85.9716 38.5584 86.0201 38.617C86.0687 38.6757 86.096 38.755 86.096 38.8377C86.096 38.9204 86.0687 38.9998 86.0201 39.0584C85.9716 39.1171 85.9057 39.1503 85.8368 39.1508Z" fill="#1C1F4A"/>
<path d="M31.1682 16.0735H19.8062C19.4989 16.073 19.2043 15.9263 18.9871 15.6655C18.7698 15.4047 18.6476 15.051 18.6472 14.6822V4.9222C18.6476 4.55332 18.7698 4.19966 18.987 3.9388C19.2043 3.67795 19.4989 3.5312 19.8062 3.53076H31.1682C31.4755 3.53117 31.7701 3.6779 31.9874 3.93875C32.2047 4.19961 32.3269 4.55329 32.3273 4.9222V14.6822C32.3269 15.0511 32.2047 15.4047 31.9874 15.6655C31.7701 15.9264 31.4755 16.0731 31.1682 16.0735ZM19.8062 4.15693C19.6372 4.15718 19.4752 4.23789 19.3557 4.38136C19.2362 4.52483 19.169 4.71933 19.1688 4.9222V14.6822C19.169 14.885 19.2362 15.0795 19.3557 15.223C19.4752 15.3664 19.6372 15.4471 19.8062 15.4473H31.1682C31.3372 15.4471 31.4992 15.3664 31.6187 15.223C31.7382 15.0795 31.8055 14.8851 31.8057 14.6822V4.9222C31.8055 4.71931 31.7382 4.52481 31.6187 4.38134C31.4992 4.23788 31.3372 4.15717 31.1682 4.15693H19.8062Z" fill="#E6E6E6"/>
<path d="M29.1809 7.89819H21.7936C21.7247 7.89769 21.6588 7.86448 21.6102 7.80582C21.5617 7.74716 21.5344 7.66782 21.5344 7.58512C21.5344 7.50242 21.5617 7.42307 21.6102 7.36441C21.6588 7.30576 21.7247 7.27255 21.7936 7.27204H29.1809C29.2152 7.27179 29.2493 7.2797 29.2812 7.29532C29.313 7.31094 29.3419 7.33396 29.3663 7.36306C29.3907 7.39215 29.41 7.42675 29.4233 7.46486C29.4365 7.50297 29.4433 7.54384 29.4433 7.58512C29.4433 7.62639 29.4365 7.66726 29.4233 7.70537C29.41 7.74348 29.3907 7.77808 29.3663 7.80718C29.3419 7.83628 29.313 7.8593 29.2812 7.87492C29.2493 7.89054 29.2152 7.89845 29.1809 7.89819Z" fill="#1C1F4A"/>
<path d="M29.1809 10.1153H21.7936C21.7247 10.1148 21.6588 10.0816 21.6102 10.0229C21.5617 9.96426 21.5344 9.88492 21.5344 9.80222C21.5344 9.71952 21.5617 9.64017 21.6102 9.58152C21.6588 9.52286 21.7247 9.48965 21.7936 9.48914H29.1809C29.2152 9.48889 29.2493 9.4968 29.2812 9.51242C29.313 9.52804 29.3419 9.55106 29.3663 9.58016C29.3907 9.60926 29.41 9.64385 29.4233 9.68196C29.4365 9.72007 29.4433 9.76094 29.4433 9.80222C29.4433 9.8435 29.4365 9.88437 29.4233 9.92248C29.41 9.96059 29.3907 9.99519 29.3663 10.0243C29.3419 10.0534 29.313 10.0764 29.2812 10.092C29.2493 10.1076 29.2152 10.1155 29.1809 10.1153Z" fill="#1C1F4A"/>
<path d="M29.1809 12.3322H21.7936C21.7247 12.3317 21.6588 12.2985 21.6102 12.2399C21.5617 12.1812 21.5344 12.1019 21.5344 12.0192C21.5344 11.9365 21.5617 11.8571 21.6102 11.7985C21.6588 11.7398 21.7247 11.7066 21.7936 11.7061H29.1809C29.2152 11.7058 29.2493 11.7137 29.2812 11.7294C29.313 11.745 29.3419 11.768 29.3663 11.7971C29.3907 11.8262 29.41 11.8608 29.4233 11.8989C29.4365 11.937 29.4433 11.9779 29.4433 12.0192C29.4433 12.0604 29.4365 12.1013 29.4233 12.1394C29.41 12.1775 29.3907 12.2121 29.3663 12.2412C29.3419 12.2703 29.313 12.2933 29.2812 12.309C29.2493 12.3246 29.2152 12.3325 29.1809 12.3322Z" fill="#1C1F4A"/>
<path d="M68.8693 21.4818L57.9569 17.6828C57.6619 17.5796 57.413 17.3402 57.2649 17.0171C57.1167 16.6939 57.0814 16.3134 57.1666 15.9591L59.4311 6.58529C59.517 6.23112 59.7164 5.93231 59.9856 5.75442C60.2548 5.57653 60.5718 5.5341 60.867 5.63642L71.7794 9.43542C72.0745 9.53856 72.3234 9.77799 72.4716 10.1012C72.6197 10.4244 72.6551 10.8049 72.5698 11.1594L70.3054 20.5331C70.2194 20.8873 70.02 21.1861 69.7508 21.3639C69.4815 21.5418 69.1646 21.5842 68.8693 21.4818ZM60.7217 6.2378C60.5594 6.18154 60.385 6.20489 60.237 6.30273C60.089 6.40057 59.9793 6.56491 59.932 6.75969L57.6676 16.1335C57.6207 16.3284 57.6401 16.5376 57.7216 16.7153C57.8031 16.8931 57.94 17.0247 58.1022 17.0814L69.0146 20.8804C69.177 20.9367 69.3513 20.9134 69.4994 20.8156C69.6474 20.7178 69.7571 20.5535 69.8044 20.3587L72.0689 10.985C72.1157 10.79 72.0963 10.5807 72.0148 10.403C71.9333 10.2252 71.7964 10.0936 71.6341 10.0368L60.7217 6.2378Z" fill="#E6E6E6"/>
<path d="M68.8574 12.9655L61.7625 10.4955C61.6962 10.4723 61.6403 10.4184 61.607 10.3457C61.5738 10.273 61.5659 10.1875 61.5851 10.1078C61.6044 10.0282 61.6492 9.96094 61.7097 9.92088C61.7701 9.88082 61.8414 9.87121 61.9078 9.89415L69.0027 12.3641C69.0691 12.3873 69.1252 12.4411 69.1585 12.5139C69.1919 12.5866 69.1998 12.6723 69.1805 12.752C69.1613 12.8318 69.1164 12.8991 69.0558 12.9391C68.9952 12.9792 68.9238 12.9887 68.8574 12.9655Z" fill="#1C1F4A"/>
<path d="M68.343 15.0949L61.2481 12.6249C61.2152 12.6134 61.1845 12.5943 61.1578 12.5686C61.131 12.5429 61.1088 12.5112 61.0923 12.4752C61.0757 12.4391 61.0653 12.3996 61.0615 12.3587C61.0578 12.3178 61.0607 12.2765 61.0703 12.237C61.0798 12.1975 61.0957 12.1607 61.1171 12.1286C61.1385 12.0965 61.165 12.0697 61.195 12.0499C61.225 12.0301 61.258 12.0175 61.292 12.013C61.326 12.0085 61.3605 12.012 61.3934 12.0235L68.4883 14.4935C68.5546 14.5167 68.6105 14.5706 68.6438 14.6433C68.677 14.716 68.6849 14.8016 68.6656 14.8812C68.6464 14.9609 68.6016 15.0281 68.5411 15.0681C68.4806 15.1082 68.4094 15.1178 68.343 15.0949Z" fill="#1C1F4A"/>
<path d="M67.8286 17.2241L60.7337 14.7541C60.6674 14.7309 60.6115 14.677 60.5782 14.6043C60.545 14.5316 60.5371 14.446 60.5563 14.3664C60.5756 14.2867 60.6204 14.2195 60.6808 14.1795C60.7413 14.1394 60.8126 14.1298 60.879 14.1527L67.9739 16.6227C68.0403 16.6458 68.0964 16.6997 68.1297 16.7724C68.1631 16.8452 68.171 16.9309 68.1517 17.0106C68.1325 17.0904 68.0876 17.1577 68.027 17.1977C67.9664 17.2377 67.895 17.2472 67.8286 17.2241Z" fill="#1C1F4A"/>
<path d="M140 119.411H25.5487V120H140V119.411Z" fill="#E6E6E6"/>
<path d="M92.0013 118.489H73.3898L74.0207 108.643H91.3704L92.0013 118.489Z" fill="#E6E6E6"/>
<path d="M93.2629 117.353H72.4434V119.625H93.2629V117.353Z" fill="#E6E6E6"/>
<path d="M118.341 45.2136H47.2075C46.7055 45.2136 46.2241 45.453 45.8692 45.8791C45.5142 46.3052 45.3148 46.8831 45.3148 47.4857V99.5549H120.234V47.4857C120.234 47.1873 120.185 46.8919 120.09 46.6162C119.995 46.3405 119.855 46.0901 119.679 45.8791C119.504 45.6681 119.295 45.5007 119.065 45.3865C118.836 45.2724 118.59 45.2136 118.341 45.2136Z" fill="#3F3D56"/>
<path d="M45.3148 99.5549V108.075C45.3148 108.374 45.3638 108.669 45.4589 108.945C45.554 109.221 45.6934 109.471 45.8692 109.682C46.0449 109.893 46.2536 110.06 46.4832 110.175C46.7128 110.289 46.959 110.347 47.2075 110.347H118.341C118.843 110.347 119.324 110.108 119.679 109.682C120.034 109.256 120.234 108.678 120.234 108.075V99.5549H45.3148Z" fill="#E6E6E6"/>
<path d="M116.606 49.9471H49.1002V95.3894H116.606V49.9471Z" fill="#E6E6E6"/>
<path d="M82.8533 107.129C83.8986 107.129 84.746 106.111 84.746 104.857C84.746 103.602 83.8986 102.584 82.8533 102.584C81.808 102.584 80.9606 103.602 80.9606 104.857C80.9606 106.111 81.808 107.129 82.8533 107.129Z" fill="#3F3D56"/>
<path d="M51.2051 51.8665C51.4035 51.8665 51.5643 51.6735 51.5643 51.4353C51.5643 51.1972 51.4035 51.0042 51.2051 51.0042C51.0068 51.0042 50.8459 51.1972 50.8459 51.4353C50.8459 51.6735 51.0068 51.8665 51.2051 51.8665Z" fill="white"/>
<path d="M52.5684 51.8665C52.7668 51.8665 52.9276 51.6735 52.9276 51.4353C52.9276 51.1972 52.7668 51.0042 52.5684 51.0042C52.37 51.0042 52.2092 51.1972 52.2092 51.4353C52.2092 51.6735 52.37 51.8665 52.5684 51.8665Z" fill="white"/>
<path d="M53.9318 51.8665C54.1302 51.8665 54.291 51.6735 54.291 51.4353C54.291 51.1972 54.1302 51.0042 53.9318 51.0042C53.7334 51.0042 53.5726 51.1972 53.5726 51.4353C53.5726 51.6735 53.7334 51.8665 53.9318 51.8665Z" fill="white"/>
<path d="M114.661 52.9005H50.8459V91.0645H114.661V52.9005Z" fill="white"/>
<path d="M55.0879 58.7055C55.0281 58.7055 54.9707 58.7341 54.9284 58.7849C54.8861 58.8356 54.8624 58.9045 54.8623 58.9763V72.6656C54.8624 72.7374 54.8861 72.8063 54.9284 72.857C54.9707 72.9078 55.0281 72.9364 55.0879 72.9364H68.2569C68.3167 72.9364 68.3741 72.9078 68.4164 72.857C68.4586 72.8063 68.4824 72.7374 68.4825 72.6656V58.9763C68.4824 58.9045 68.4586 58.8356 68.4164 58.7849C68.3741 58.7341 68.3167 58.7055 68.2569 58.7055H55.0879Z" fill="#E6E6E6"/>
<path d="M76.2324 58.7495C76.1726 58.7496 76.1152 58.7781 76.0729 58.8289C76.0306 58.8797 76.0068 58.9485 76.0067 59.0203V72.6656C76.0068 72.7374 76.0306 72.8063 76.0729 72.8571C76.1152 72.9078 76.1726 72.9364 76.2324 72.9364H89.3594C89.4192 72.9363 89.4766 72.9078 89.5188 72.857C89.5611 72.8062 89.5849 72.7374 89.585 72.6656V59.0203C89.5849 58.9485 89.5611 58.8797 89.5188 58.8289C89.4766 58.7782 89.4192 58.7496 89.3594 58.7495H76.2324Z" fill="#E6E6E6"/>
<path d="M97.1552 58.6065C97.0954 58.6066 97.0381 58.6351 96.9958 58.6859C96.9535 58.7367 96.9297 58.8055 96.9297 58.8773V72.6656C96.9297 72.7374 96.9535 72.8062 96.9958 72.857C97.0381 72.9078 97.0954 72.9363 97.1552 72.9364H110.419C110.479 72.9363 110.536 72.9078 110.578 72.857C110.62 72.8062 110.644 72.7374 110.644 72.6656V58.8773C110.644 58.8055 110.62 58.7367 110.578 58.6859C110.536 58.6351 110.479 58.6066 110.419 58.6065H97.1552Z" fill="#E6E6E6"/>
<path d="M55.3287 79.7126C55.2052 79.7129 55.0867 79.772 54.9995 79.877C54.9122 79.9819 54.8632 80.1242 54.8632 80.2725C54.8632 80.4208 54.9122 80.5631 54.9995 80.668C55.0867 80.773 55.2052 80.8321 55.3287 80.8324H67.7102C67.8337 80.8321 67.9521 80.773 68.0394 80.668C68.1267 80.5631 68.1757 80.4208 68.1757 80.2725C68.1757 80.1242 68.1267 79.9819 68.0394 79.877C67.9521 79.772 67.8337 79.7129 67.7102 79.7126H55.3287Z" fill="#E6E6E6"/>
<path d="M55.3286 82.3759C55.2051 82.3762 55.0866 82.4353 54.9993 82.5403C54.9121 82.6452 54.863 82.7875 54.863 82.9358C54.863 83.0842 54.9121 83.2264 54.9993 83.3314C55.0866 83.4364 55.2051 83.4955 55.3286 83.4958H60.9033C61.0269 83.4955 61.1453 83.4364 61.2326 83.3314C61.3198 83.2264 61.3689 83.0842 61.3689 82.9358C61.3689 82.7875 61.3198 82.6452 61.2326 82.5403C61.1453 82.4353 61.0269 82.3762 60.9033 82.3759H55.3286Z" fill="#1C1F4A"/>
<path d="M76.7004 79.7126C76.5769 79.7129 76.4584 79.772 76.3712 79.877C76.2839 79.9819 76.2349 80.1242 76.2349 80.2725C76.2349 80.4208 76.2839 80.5631 76.3712 80.668C76.4584 80.773 76.5769 80.8321 76.7004 80.8324H89.0819C89.2054 80.8321 89.3238 80.773 89.4111 80.668C89.4984 80.5631 89.5474 80.4208 89.5474 80.2725C89.5474 80.1242 89.4984 79.9819 89.4111 79.877C89.3238 79.772 89.2054 79.7129 89.0819 79.7126H76.7004Z" fill="#E6E6E6"/>
<path d="M76.7003 82.3759C76.5768 82.3762 76.4583 82.4353 76.3711 82.5403C76.2838 82.6452 76.2347 82.7875 76.2347 82.9358C76.2347 83.0842 76.2838 83.2264 76.3711 83.3314C76.4583 83.4364 76.5768 83.4955 76.7003 83.4958H82.2751C82.3986 83.4955 82.5171 83.4364 82.6043 83.3314C82.6916 83.2264 82.7407 83.0842 82.7407 82.9358C82.7407 82.7875 82.6916 82.6452 82.6043 82.5403C82.5171 82.4353 82.3986 82.3762 82.2751 82.3759H76.7003Z" fill="#1C1F4A"/>
<path d="M97.5379 79.7126C97.4144 79.7129 97.296 79.772 97.2087 79.877C97.1214 79.9819 97.0724 80.1242 97.0724 80.2725C97.0724 80.4208 97.1214 80.5631 97.2087 80.668C97.296 80.773 97.4144 80.8321 97.5379 80.8324H109.919C110.043 80.8321 110.161 80.773 110.249 80.668C110.336 80.5631 110.385 80.4208 110.385 80.2725C110.385 80.1242 110.336 79.9819 110.249 79.877C110.161 79.772 110.043 79.7129 109.919 79.7126H97.5379Z" fill="#E6E6E6"/>
<path d="M55.3287 76.962C55.2052 76.9623 55.0867 77.0214 54.9995 77.1263C54.9122 77.2313 54.8632 77.3736 54.8632 77.5219C54.8632 77.6702 54.9122 77.8125 54.9995 77.9174C55.0867 78.0224 55.2052 78.0815 55.3287 78.0818H67.7102C67.8337 78.0815 67.9521 78.0224 68.0394 77.9174C68.1267 77.8125 68.1757 77.6702 68.1757 77.5219C68.1757 77.3736 68.1267 77.2313 68.0394 77.1263C67.9521 77.0214 67.8337 76.9623 67.7102 76.962H55.3287Z" fill="#E6E6E6"/>
<path d="M76.7004 76.962C76.5769 76.9623 76.4584 77.0214 76.3712 77.1263C76.2839 77.2313 76.2349 77.3736 76.2349 77.5219C76.2349 77.6702 76.2839 77.8125 76.3712 77.9174C76.4584 78.0224 76.5769 78.0815 76.7004 78.0818H89.0819C89.2054 78.0815 89.3238 78.0224 89.4111 77.9174C89.4984 77.8125 89.5474 77.6702 89.5474 77.5219C89.5474 77.3736 89.4984 77.2313 89.4111 77.1263C89.3238 77.0214 89.2054 76.9623 89.0819 76.962H76.7004Z" fill="#E6E6E6"/>
<path d="M97.5379 76.962C97.4144 76.9623 97.296 77.0214 97.2087 77.1263C97.1214 77.2313 97.0724 77.3736 97.0724 77.5219C97.0724 77.6702 97.1214 77.8125 97.2087 77.9174C97.296 78.0224 97.4144 78.0815 97.5379 78.0818H109.919C110.043 78.0815 110.161 78.0224 110.249 77.9174C110.336 77.8125 110.385 77.6702 110.385 77.5219C110.385 77.3736 110.336 77.2313 110.249 77.1263C110.161 77.0214 110.043 76.9623 109.919 76.962H97.5379Z" fill="#E6E6E6"/>
<path d="M97.538 82.3759C97.4144 82.3762 97.296 82.4353 97.2087 82.5403C97.1214 82.6452 97.0724 82.7875 97.0724 82.9358C97.0724 83.0842 97.1214 83.2264 97.2087 83.3314C97.296 83.4364 97.4144 83.4955 97.538 83.4958H103.113C103.236 83.4955 103.355 83.4364 103.442 83.3314C103.529 83.2264 103.578 83.0842 103.578 82.9358C103.578 82.7875 103.529 82.6452 103.442 82.5403C103.355 82.4353 103.236 82.3762 103.113 82.3759H97.538Z" fill="#1C1F4A"/>
</g>
<defs>
<clipPath id="clip0_22_97">
<rect width="140" height="120" fill="white"/>
</clipPath>
</defs>
</svg>
