<svg width="284" height="260" viewBox="0 0 284 260" fill="none" xmlns="http://www.w3.org/2000/svg">
<g clip-path="url(#clip0_7_169)">
<path d="M187.328 68.8837H140.714C139.694 68.8866 138.686 68.6752 137.768 68.2658C136.849 67.8564 136.045 67.2597 135.415 66.5211C134.773 65.7755 134.325 64.9052 134.105 63.9763C133.884 63.0475 133.897 62.0846 134.142 61.161C138.439 44.6075 138.438 27.3561 134.142 10.8027C133.897 9.87911 133.884 8.91629 134.105 7.98749C134.325 7.0587 134.773 6.18842 135.415 5.44284C136.044 4.7042 136.849 4.10747 137.767 3.69806C138.686 3.28865 139.694 3.07734 140.714 3.08023H187.328C188.937 3.08448 190.493 3.61413 191.717 4.57482C192.942 5.53551 193.756 6.86487 194.015 8.32614C197.083 26.6554 197.083 45.3086 194.015 63.6378C193.756 65.0991 192.942 66.4284 191.717 67.3891C190.493 68.3498 188.937 68.8795 187.328 68.8837Z" fill="#E6E6E6"/>
<path d="M140.714 6.30666C140.224 6.30514 139.74 6.40648 139.299 6.60294C138.858 6.79941 138.471 7.08584 138.169 7.44044C137.857 7.80376 137.64 8.22767 137.533 8.67994C137.426 9.1322 137.433 9.60091 137.553 10.0504C141.977 27.0985 141.978 44.8653 137.553 61.9134C137.433 62.3628 137.426 62.8314 137.533 63.2836C137.64 63.7358 137.857 64.1596 138.169 64.5229C138.471 64.8775 138.858 65.1643 139.299 65.3608C139.74 65.5574 140.224 65.6587 140.714 65.6572H187.328C188.101 65.6574 188.849 65.4053 189.438 64.9457C190.028 64.4861 190.421 63.8489 190.548 63.1475C193.561 45.1432 193.561 26.8206 190.548 8.8163C190.421 8.11493 190.028 7.47772 189.438 7.01813C188.849 6.55854 188.101 6.30641 187.328 6.30665L140.714 6.30666Z" fill="white"/>
<path d="M177.156 21.821H152.695C151.765 21.8201 150.874 21.4798 150.216 20.875C149.559 20.2701 149.189 19.45 149.188 18.5947V17.3338C149.189 16.4784 149.559 15.6583 150.216 15.0535C150.874 14.4486 151.765 14.1084 152.695 14.1075H177.156C178.086 14.1084 178.977 14.4486 179.635 15.0535C180.292 15.6583 180.662 16.4784 180.663 17.3338V18.5947C180.662 19.4501 180.292 20.2702 179.635 20.875C178.977 21.4799 178.086 21.8201 177.156 21.821Z" fill="#E6E6E6"/>
<path d="M177.156 37.7521H152.695C151.765 37.7512 150.874 37.411 150.216 36.8061C149.559 36.2013 149.189 35.3812 149.188 34.5258V33.265C149.189 32.4096 149.559 31.5895 150.216 30.9846C150.874 30.3798 151.765 30.0396 152.695 30.0386H177.156C178.086 30.0396 178.977 30.3798 179.635 30.9846C180.292 31.5895 180.662 32.4096 180.663 33.265V34.5258C180.662 35.3812 180.292 36.2013 179.635 36.8061C178.977 37.411 178.086 37.7512 177.156 37.7521Z" fill="#E6E6E6"/>
<path d="M177.156 53.6833H152.695C151.765 53.6824 150.874 53.3421 150.216 52.7373C149.559 52.1324 149.189 51.3123 149.188 50.4569V49.1961C149.189 48.3407 149.559 47.5206 150.216 46.9158C150.874 46.3109 151.765 45.9707 152.695 45.9698H177.156C178.086 45.9707 178.977 46.3109 179.635 46.9158C180.292 47.5206 180.662 48.3407 180.663 49.1961V50.4569C180.662 51.3123 180.292 52.1324 179.635 52.7373C178.977 53.3421 178.086 53.6824 177.156 53.6833Z" fill="#E6E6E6"/>
<path d="M275.012 109.752H228.398C227.378 109.755 226.37 109.544 225.452 109.134C224.534 108.725 223.729 108.128 223.099 107.39C222.458 106.644 222.01 105.774 221.789 104.845C221.569 103.916 221.582 102.953 221.827 102.03C226.123 85.4761 226.123 68.2248 221.826 51.6714C221.581 50.7478 221.569 49.7849 221.789 48.8562C222.01 47.9274 222.458 47.0571 223.099 46.3115C223.729 45.5729 224.533 44.9761 225.452 44.5667C226.37 44.1573 227.378 43.946 228.398 43.9489H275.012C276.622 43.9531 278.177 44.4828 279.402 45.4435C280.626 46.4042 281.44 47.7335 281.699 49.1948C284.767 67.524 284.767 86.1772 281.699 104.506C281.44 105.968 280.626 107.297 279.402 108.258C278.177 109.218 276.622 109.748 275.012 109.752Z" fill="#E6E6E6"/>
<path d="M228.398 47.1754C227.908 47.1739 227.424 47.2752 226.983 47.4716C226.542 47.6681 226.156 47.9546 225.853 48.3092C225.541 48.6725 225.324 49.0964 225.217 49.5487C225.11 50.0009 225.117 50.4696 225.237 50.9191C229.662 67.9672 229.662 85.734 225.237 102.782C225.117 103.232 225.111 103.7 225.217 104.152C225.324 104.605 225.541 105.028 225.853 105.392C226.155 105.746 226.542 106.033 226.983 106.23C227.424 106.426 227.908 106.527 228.398 106.526H275.012C275.785 106.526 276.533 106.274 277.123 105.814C277.713 105.355 278.106 104.718 278.233 104.016C281.246 86.0119 281.246 67.6894 278.233 49.685C278.106 48.9837 277.713 48.3464 277.123 47.8868C276.533 47.4272 275.785 47.1751 275.012 47.1754L228.398 47.1754Z" fill="white"/>
<path d="M182.067 156.267H135.453C134.388 156.27 133.337 156.05 132.379 155.623C131.421 155.195 130.581 154.573 129.924 153.802C129.255 153.025 128.788 152.117 128.558 151.149C128.328 150.18 128.342 149.176 128.597 148.213C132.883 131.701 132.882 114.492 128.597 97.9802C128.341 97.0171 128.328 96.0131 128.558 95.0446C128.788 94.0761 129.255 93.1686 129.924 92.3911C130.581 91.6205 131.421 90.998 132.379 90.5708C133.337 90.1437 134.388 89.9232 135.453 89.9261H182.067C183.746 89.9307 185.369 90.4835 186.646 91.4859C187.924 92.4883 188.773 93.8754 189.043 95.3999C192.115 113.756 192.115 132.437 189.043 150.793C188.773 152.318 187.924 153.705 186.646 154.708C185.369 155.71 183.746 156.263 182.067 156.267Z" fill="#F2F2F2"/>
<path d="M264.84 70.7559H240.379C239.449 70.7549 238.558 70.4147 237.9 69.8099C237.243 69.205 236.873 68.3849 236.872 67.5295V66.2687C236.873 65.4133 237.243 64.5932 237.9 63.9884C238.558 63.3835 239.449 63.0433 240.379 63.0424H264.84C265.77 63.0433 266.662 63.3835 267.319 63.9884C267.977 64.5932 268.347 65.4133 268.348 66.2687V67.5296C268.347 68.3849 267.977 69.205 267.319 69.8099C266.662 70.4147 265.77 70.7549 264.84 70.7559Z" fill="#E6E6E6"/>
<path d="M264.84 86.687H240.379C239.449 86.6861 238.558 86.3459 237.9 85.741C237.243 85.1361 236.873 84.3161 236.872 83.4607V82.1999C236.873 81.3445 237.243 80.5244 237.9 79.9195C238.558 79.3147 239.449 78.9744 240.379 78.9735H264.84C265.77 78.9744 266.662 79.3147 267.319 79.9195C267.977 80.5244 268.347 81.3445 268.348 82.1999V83.4607C268.347 84.3161 267.977 85.1361 267.319 85.741C266.662 86.3459 265.77 86.6861 264.84 86.687Z" fill="#E6E6E6"/>
<path d="M158.89 135.243C166.316 135.243 172.335 129.706 172.335 122.875C172.335 116.044 166.316 110.507 158.89 110.507C151.465 110.507 145.446 116.044 145.446 122.875C145.446 129.706 151.465 135.243 158.89 135.243Z" fill="white"/>
<path d="M165.321 121.262H160.644V116.96C160.644 116.532 160.459 116.121 160.13 115.819C159.802 115.516 159.356 115.346 158.89 115.346C158.425 115.346 157.979 115.516 157.65 115.819C157.321 116.121 157.137 116.532 157.137 116.96V121.262H152.46C151.995 121.262 151.549 121.432 151.22 121.734C150.891 122.037 150.707 122.447 150.707 122.875C150.707 123.303 150.891 123.713 151.22 124.016C151.549 124.318 151.995 124.488 152.46 124.488H157.137V128.79C157.137 129.218 157.321 129.628 157.65 129.931C157.979 130.233 158.425 130.403 158.89 130.403C159.356 130.403 159.802 130.233 160.13 129.931C160.459 129.628 160.644 129.218 160.644 128.79V124.488H165.321C165.786 124.488 166.232 124.318 166.561 124.016C166.89 123.713 167.074 123.303 167.074 122.875C167.074 122.447 166.89 122.037 166.561 121.734C166.232 121.432 165.786 121.262 165.321 121.262Z" fill="#E6E6E6"/>
<path d="M175.843 9.14167H151.291C150.594 9.14095 149.925 8.88577 149.432 8.43212C148.939 7.97846 148.661 7.36338 148.661 6.72182V2.41986C148.661 1.77829 148.939 1.16321 149.432 0.709557C149.925 0.255903 150.594 0.00072303 151.291 0H175.843C176.54 0.00072303 177.209 0.255903 177.702 0.709557C178.195 1.16321 178.473 1.77829 178.473 2.41986V6.72182C178.473 7.36338 178.195 7.97846 177.702 8.43212C177.209 8.88577 176.54 9.14095 175.843 9.14167Z" fill="#CCCCCC"/>
<path d="M264.696 50.5481H240.145C239.447 50.5474 238.779 50.2922 238.286 49.8385C237.792 49.3849 237.515 48.7698 237.514 48.1283V43.8263C237.515 43.1847 237.792 42.5697 238.286 42.116C238.779 41.6623 239.447 41.4072 240.145 41.4064H264.696C265.394 41.4072 266.062 41.6623 266.555 42.116C267.049 42.5697 267.326 43.1847 267.327 43.8263V48.1283C267.326 48.7698 267.049 49.3849 266.555 49.8385C266.062 50.2922 265.394 50.5474 264.696 50.5481Z" fill="#CCCCCC"/>
<path d="M51.79 253.311H58.9567L61.1973 227.882H51.7888L51.79 253.311Z" fill="#FFB8B8"/>
<path d="M49.9622 251.159L64.0757 251.158H64.0763C65.2574 251.158 66.427 251.372 67.5183 251.788C68.6095 252.204 69.6011 252.813 70.4363 253.581C71.2715 254.35 71.934 255.262 72.386 256.266C72.838 257.269 73.0707 258.345 73.0706 259.432V259.701L49.9626 259.702L49.9622 251.159Z" fill="#2F2E41"/>
<path d="M13.2088 253.311H20.3755L23.7853 227.882H13.2076L13.2088 253.311Z" fill="#FFB8B8"/>
<path d="M11.381 251.159L25.4945 251.158H25.4951C26.6763 251.158 27.8459 251.372 28.9371 251.788C30.0284 252.204 31.0199 252.813 31.8551 253.581C32.6903 254.35 33.3528 255.262 33.8048 256.266C34.2568 257.269 34.4895 258.345 34.4895 259.432V259.701L11.3814 259.702L11.381 251.159Z" fill="#2F2E41"/>
<path d="M14.4803 245.278C13.7493 245.278 13.045 245.025 12.5074 244.569C12.2189 244.327 11.9864 244.033 11.8241 243.707C11.6618 243.38 11.573 243.026 11.5629 242.667L8.68884 147.909L49.4978 157.294L62.089 192.042C63.7127 196.512 64.4156 201.221 64.1615 205.928L62.5981 239.611C62.5624 240.301 62.2392 240.952 61.6955 241.429C61.1518 241.905 60.4295 242.171 59.6785 242.17H52.8339C52.1274 242.167 51.4457 241.931 50.9137 241.503C50.3817 241.075 50.0351 240.486 49.9375 239.842L45.0454 202.661C44.6179 199.761 43.5149 196.979 41.8117 194.507L32.1843 180.485C32.1199 180.391 32.0257 180.318 31.9144 180.275C31.8032 180.233 31.6804 180.223 31.5628 180.247C31.4452 180.271 31.3387 180.328 31.2576 180.41C31.1766 180.492 31.125 180.595 31.1101 180.705L23.5548 242.593C23.4737 243.221 23.1545 243.802 22.6533 244.235C22.1521 244.667 21.5012 244.923 20.815 244.958L14.6467 245.273C14.5912 245.276 14.5358 245.278 14.4803 245.278Z" fill="#2F2E41"/>
<path d="M42.7068 86.5593C50.6362 86.5593 57.0643 80.6461 57.0643 73.3518C57.0643 66.0574 50.6362 60.1442 42.7068 60.1442C34.7774 60.1442 28.3494 66.0574 28.3494 73.3518C28.3494 80.6461 34.7774 86.5593 42.7068 86.5593Z" fill="#FFB8B8"/>
<path d="M49.3023 161.148C49.0552 161.147 48.8092 161.118 48.5699 161.062L8.08015 151.512C7.35625 151.341 6.73088 150.922 6.33262 150.34C5.93437 149.759 5.79349 149.059 5.93898 148.384L15.2377 102.305C15.817 99.6409 17.0904 97.1465 18.9486 95.0353C20.8068 92.9242 23.1942 91.2594 25.9058 90.184C28.548 89.1083 31.4373 88.6474 34.3189 88.842C37.2005 89.0366 39.9858 89.8808 42.4288 91.2999C42.9957 91.6253 43.5667 91.98 44.1256 92.3544C46.3755 93.8812 48.2103 95.8667 49.486 98.1553C50.7618 100.444 51.4439 102.973 51.4787 105.545L52.2181 158.421C52.223 158.776 52.1514 159.129 52.0072 159.459C51.863 159.789 51.6492 160.09 51.3781 160.343C51.107 160.597 50.784 160.798 50.4277 160.936C50.0714 161.074 49.6889 161.146 49.3023 161.148Z" fill="#1C1F4A"/>
<path d="M12.2462 161.689C11.7632 161.036 11.4419 160.292 11.305 159.512C11.168 158.731 11.2188 157.933 11.4536 157.172C11.6885 156.412 12.1017 155.708 12.6643 155.11C13.2268 154.513 13.925 154.036 14.7095 153.713L12.9086 134.569L22.4522 139.327L22.6992 156.778C23.2009 158.026 23.1874 159.4 22.6613 160.64C22.1351 161.88 21.1328 162.899 19.8443 163.505C18.5559 164.11 17.0707 164.26 15.6703 163.925C14.2699 163.591 13.0516 162.795 12.2462 161.689Z" fill="#FFB8B8"/>
<path d="M15.6557 151.181C15.3865 151.181 15.1183 151.15 14.8574 151.088C14.2963 150.957 13.7843 150.688 13.3756 150.311C12.9669 149.933 12.6766 149.461 12.5356 148.945L7.84551 131.799C6.20646 125.811 6.9878 119.479 10.0442 113.981L19.87 96.2993C20.4911 94.1822 21.9919 92.3745 24.0486 91.2661C26.1054 90.1577 28.5533 89.8373 30.8645 90.3741C32.0164 90.6417 33.0992 91.117 34.05 91.7724C35.0007 92.4279 35.8006 93.2504 36.4031 94.1924C37.0181 95.1478 37.4203 96.2063 37.5863 97.3061C37.7523 98.4059 37.6788 99.5252 37.37 100.599L23.3829 129.371L23.549 146.598C23.5534 147.206 23.3547 147.8 22.98 148.301C22.6052 148.801 22.0725 149.184 21.4537 149.397L16.7729 150.996C16.4155 151.118 16.0372 151.181 15.6557 151.181Z" fill="#1C1F4A"/>
<path d="M82.6089 154.647C81.7551 154.558 80.9331 154.297 80.2008 153.883C79.4684 153.469 78.8436 152.913 78.3703 152.253C77.8969 151.594 77.5866 150.846 77.4612 150.064C77.3357 149.282 77.3982 148.484 77.6442 147.727L60.6958 136.494L70.8418 132.944L85.3808 144.155C86.7367 144.62 87.8602 145.526 88.5385 146.701C89.2167 147.877 89.4026 149.241 89.061 150.534C88.7193 151.827 87.8738 152.96 86.6846 153.718C85.4955 154.477 84.0453 154.807 82.6089 154.647Z" fill="#FFB8B8"/>
<path d="M73.7366 146.445C73.2369 146.444 72.7441 146.337 72.297 146.132L55.1114 138.218C49.1088 135.454 44.4015 130.779 41.8649 125.062L33.706 106.676C32.367 104.862 31.8568 102.636 32.2852 100.479C32.7136 98.3217 34.0464 96.4058 35.9961 95.1442C36.9703 94.5141 38.0711 94.0687 39.2343 93.8338C40.3975 93.599 41.5999 93.5795 42.7714 93.7765C43.9566 93.9726 45.0878 94.383 46.0994 94.9842C47.1109 95.5853 47.9827 96.3651 48.6642 97.2784L63.2462 125.8L77.548 136.922C78.0516 137.316 78.4117 137.842 78.5797 138.43C78.7477 139.017 78.7154 139.638 78.4872 140.209L76.7512 144.515C76.5245 145.08 76.1151 145.567 75.578 145.911C75.0382 146.258 74.3953 146.445 73.7366 146.445Z" fill="#1C1F4A"/>
<path d="M39.6917 86.7616C40.4546 87.0686 42.0168 81.477 41.317 80.3586C40.2763 78.6954 40.3378 78.7073 39.647 77.6069C38.9562 76.5066 38.8016 75.0004 39.6962 74.0322C40.5908 73.064 42.6611 73.1925 43.0694 74.4064C42.8067 72.1006 45.286 70.2472 47.7418 69.7263C50.1976 69.2055 52.788 69.5288 55.2573 69.0653C58.1231 68.5274 61.1048 66.3176 59.9614 63.4186C59.7652 62.936 59.4714 62.4919 59.0956 62.1097C57.7745 60.7433 55.9266 60.1599 54.1198 59.5958C50.3611 58.4222 46.4995 57.2338 42.5326 57.3634C39.2641 57.5206 36.1162 58.5509 33.4744 60.3282C30.8325 62.1055 28.8111 64.5527 27.6576 67.3704C27.3842 68.0753 27.1724 68.7991 27.0243 69.535C25.6627 76.2699 29.9141 82.913 36.8193 85.4776L39.6917 86.7616Z" fill="#2F2E41"/>
<path opacity="0.2" d="M22.7395 146.989L23.0651 129.282L33.2616 110.422L25.0778 129.781L22.7395 146.989Z" fill="black"/>
<path d="M115.204 191.428L72.1578 174.975C71.2142 174.618 70.3717 174.067 69.6945 173.365C69.0172 172.663 68.5229 171.828 68.2493 170.923C67.9681 170.008 67.9174 169.046 68.1012 168.111C68.285 167.175 68.6985 166.291 69.3101 165.524C80.1816 151.754 87.3769 135.823 90.3136 119.02C90.4726 118.081 90.8625 117.187 91.4535 116.407C92.0445 115.627 92.8211 114.982 93.7242 114.519C94.6139 114.06 95.606 113.793 96.6248 113.739C97.6437 113.685 98.6624 113.845 99.6036 114.208L142.65 130.661C144.134 131.233 145.35 132.271 146.08 133.59C146.81 134.91 147.007 136.425 146.637 137.865C141.825 155.875 134.045 173.1 123.567 188.944C122.719 190.202 121.412 191.142 119.881 191.597C118.349 192.052 116.692 191.992 115.204 191.428Z" fill="#E6E6E6"/>
<path d="M98.2579 117.188C97.806 117.013 97.3167 116.936 96.8275 116.962C96.3382 116.988 95.8617 117.116 95.4343 117.336C94.995 117.562 94.6174 117.877 94.3302 118.257C94.043 118.637 93.8538 119.072 93.7769 119.529C90.7524 136.834 83.3422 153.241 72.1458 167.423C71.8476 167.796 71.6458 168.226 71.5557 168.681C71.4656 169.136 71.4896 169.604 71.6258 170.05C71.7573 170.484 71.9949 170.886 72.3202 171.223C72.6456 171.56 73.0503 171.824 73.5035 171.996L116.55 188.448C117.263 188.721 118.059 188.753 118.795 188.536C119.532 188.32 120.161 187.87 120.57 187.267C130.862 171.705 138.504 154.784 143.231 137.095C143.407 136.402 143.309 135.675 142.956 135.042C142.603 134.41 142.018 133.913 141.304 133.64L98.2579 117.188Z" fill="white"/>
<path d="M121.178 153.812L98.5891 145.179C97.7308 144.849 97.0494 144.221 96.6945 143.43C96.3396 142.639 96.3401 141.751 96.696 140.961L97.2218 139.797C97.5795 139.007 98.2631 138.381 99.1226 138.054C99.982 137.728 100.947 137.728 101.806 138.055L124.395 146.689C125.253 147.018 125.935 147.647 126.29 148.438C126.645 149.228 126.644 150.116 126.288 150.906L125.762 152.071C125.405 152.86 124.721 153.487 123.862 153.813C123.002 154.14 122.037 154.14 121.178 153.812Z" fill="#1C1F4A"/>
<path d="M114.533 168.524L91.9446 159.89C91.0862 159.561 90.4049 158.932 90.05 158.142C89.6951 157.351 89.6956 156.463 90.0514 155.673L90.5773 154.509C90.935 153.719 91.6186 153.092 92.4781 152.766C93.3375 152.439 94.3027 152.44 95.1618 152.767L117.751 161.401C118.609 161.73 119.29 162.359 119.645 163.149C120 163.94 120 164.828 119.644 165.618L119.118 166.783C118.76 167.572 118.077 168.199 117.217 168.525C116.358 168.852 115.393 168.851 114.533 168.524Z" fill="#1C1F4A"/>
<path d="M130.23 133.136C129.891 133.136 129.556 133.076 129.243 132.958L106.482 124.493C105.835 124.252 105.319 123.785 105.047 123.194C104.775 122.603 104.768 121.938 105.029 121.343L106.782 117.354C107.043 116.759 107.551 116.284 108.193 116.034C108.835 115.783 109.56 115.777 110.206 116.018L132.968 124.483C133.614 124.725 134.13 125.192 134.403 125.782C134.675 126.373 134.682 127.039 134.421 127.634L132.668 131.622C132.471 132.069 132.134 132.451 131.7 132.721C131.265 132.991 130.753 133.135 130.23 133.136Z" fill="#CCCCCC"/>
<path d="M82.4233 260H0.584562C0.429527 260 0.280849 259.943 0.171223 259.842C0.0615961 259.742 0 259.605 0 259.462C0 259.32 0.0615961 259.183 0.171223 259.082C0.280849 258.981 0.429527 258.924 0.584562 258.924H82.4233C82.5783 258.924 82.727 258.981 82.8366 259.082C82.9462 259.183 83.0078 259.32 83.0078 259.462C83.0078 259.605 82.9462 259.742 82.8366 259.842C82.727 259.943 82.5783 260 82.4233 260Z" fill="#CCCCCC"/>
</g>
<defs>
<clipPath id="clip0_7_169">
<rect width="284" height="260" fill="white"/>
</clipPath>
</defs>
</svg>
