<svg width="285" height="172" viewBox="0 0 285 172" fill="none" xmlns="http://www.w3.org/2000/svg">
<g clip-path="url(#clip0_7_610)">
<path d="M110.653 154.108C109.119 154.651 107.473 154.787 105.872 154.503C104.271 154.219 102.77 153.525 101.513 152.487C98.3114 149.78 97.3077 145.322 96.491 141.194L94.0754 128.983L99.1327 132.49C102.77 135.012 106.488 137.615 109.007 141.268C111.525 144.922 112.624 149.909 110.601 153.862" fill="#E6E6E6"/>
<path d="M110.221 168.892C110.732 165.137 111.259 161.333 110.9 157.538C110.581 154.167 109.56 150.875 107.481 148.175C106.378 146.745 105.035 145.52 103.514 144.554C103.117 144.302 102.752 144.935 103.147 145.187C105.779 146.862 107.816 149.337 108.962 152.253C110.228 155.496 110.431 159.032 110.213 162.477C110.081 164.56 109.801 166.63 109.52 168.697C109.497 168.791 109.511 168.889 109.558 168.973C109.606 169.056 109.682 169.119 109.773 169.147C109.866 169.173 109.965 169.16 110.049 169.112C110.133 169.064 110.194 168.985 110.221 168.892Z" fill="#F2F2F2"/>
<path d="M105.29 162.247C104.633 163.254 103.729 164.073 102.665 164.626C101.602 165.178 100.415 165.446 99.2195 165.403C96.1463 165.256 93.5843 163.095 91.278 161.045L84.4563 154.978L88.9711 154.761C92.2179 154.604 95.5484 154.458 98.6409 155.467C101.733 156.475 104.585 158.902 105.151 162.126" fill="#E6E6E6"/>
<path d="M111.667 171.05C109.203 166.66 106.346 161.78 101.24 160.221C99.8199 159.788 98.3312 159.634 96.8537 159.765C96.388 159.805 96.5043 160.528 96.9691 160.488C99.4457 160.28 101.918 160.939 103.968 162.353C105.942 163.706 107.479 165.587 108.779 167.581C109.576 168.803 110.289 170.077 111.003 171.349C111.231 171.755 111.898 171.462 111.667 171.05Z" fill="#F2F2F2"/>
<path d="M177.701 83.0955L123.988 127.932C123.313 128.495 122.443 128.765 121.57 128.682C120.696 128.6 119.891 128.172 119.331 127.493L96.6887 99.9775C96.1298 99.2969 95.8619 98.4207 95.9436 97.5413C96.0254 96.6619 96.4501 95.8511 97.1247 95.2867L150.837 50.4504C151.513 49.8875 152.383 49.6176 153.256 49.7C154.129 49.7823 154.934 50.2101 155.495 50.8895L178.137 78.4046C178.696 79.0853 178.964 79.9615 178.882 80.8408C178.8 81.7202 178.376 82.5311 177.701 83.0955Z" fill="#CCCCCC"/>
<path d="M175.549 81.7454L123.071 125.551C122.723 125.841 122.275 125.98 121.825 125.938C121.375 125.895 120.96 125.675 120.672 125.325L99.0526 99.0533C98.7647 98.7027 98.6267 98.2513 98.6688 97.7983C98.7109 97.3453 98.9297 96.9276 99.2772 96.6368L151.755 52.8312C152.103 52.5412 152.551 52.4022 153.001 52.4446C153.451 52.487 153.866 52.7074 154.154 53.0574L175.773 79.3289C176.061 79.6796 176.199 80.1309 176.157 80.584C176.115 81.037 175.896 81.4547 175.549 81.7454Z" fill="white"/>
<path d="M177.968 90.9153L167.174 89.8977L174.899 83.7742L179.061 88.8312C179.223 89.0242 179.324 89.2621 179.35 89.5137C179.375 89.7652 179.325 90.0188 179.206 90.2411C179.127 90.3921 179.02 90.5259 178.89 90.635C178.762 90.7409 178.615 90.8201 178.457 90.8683C178.298 90.9164 178.132 90.9323 177.968 90.9153Z" fill="#CCCCCC"/>
<path d="M156.293 71.4437L129.745 93.6042C129.583 93.7395 129.396 93.8414 129.195 93.904C128.994 93.9665 128.782 93.9885 128.572 93.9688C128.363 93.949 128.159 93.8878 127.973 93.7887C127.787 93.6897 127.622 93.5546 127.487 93.3913C127.353 93.228 127.252 93.0396 127.189 92.8369C127.127 92.6342 127.106 92.4212 127.125 92.21C127.145 91.9988 127.206 91.7936 127.304 91.606C127.402 91.4185 127.536 91.2523 127.699 91.1169L154.246 68.9565C154.408 68.8211 154.595 68.7192 154.797 68.6567C154.998 68.5941 155.209 68.5721 155.419 68.5919C155.629 68.6116 155.832 68.6728 156.019 68.7719C156.205 68.871 156.37 69.006 156.504 69.1694C156.639 69.3327 156.74 69.521 156.802 69.7237C156.864 69.9264 156.886 70.1394 156.866 70.3506C156.847 70.5618 156.786 70.767 156.687 70.9546C156.589 71.1421 156.455 71.3083 156.293 71.4437Z" fill="#CCCCCC"/>
<path d="M143.3 73.3734L125.396 88.3188C125.068 88.5922 124.647 88.7233 124.223 88.6834C123.8 88.6435 123.409 88.4358 123.138 88.1059C122.866 87.7761 122.736 87.3512 122.776 86.9247C122.815 86.4981 123.022 86.105 123.349 85.8316L141.253 70.8861C141.581 70.6128 142.003 70.4816 142.426 70.5216C142.85 70.5615 143.24 70.7692 143.511 71.099C143.783 71.4289 143.913 71.8538 143.873 72.2803C143.834 72.7068 143.628 73.1 143.3 73.3734Z" fill="#CCCCCC"/>
<path d="M115.558 103.939C118.325 103.939 120.569 101.679 120.569 98.8914C120.569 96.1036 118.325 93.8438 115.558 93.8438C112.79 93.8438 110.546 96.1036 110.546 98.8914C110.546 101.679 112.79 103.939 115.558 103.939Z" fill="#1C1F4A"/>
<path d="M155.423 88.7734C156.309 88.7734 157.027 88.0503 157.027 87.1582C157.027 86.2661 156.309 85.543 155.423 85.543C154.538 85.543 153.82 86.2661 153.82 87.1582C153.82 88.0503 154.538 88.7734 155.423 88.7734Z" fill="#E6E6E6"/>
<path d="M159.745 85.166C160.631 85.166 161.349 84.4428 161.349 83.5508C161.349 82.6587 160.631 81.9355 159.745 81.9355C158.859 81.9355 158.141 82.6587 158.141 83.5508C158.141 84.4428 158.859 85.166 159.745 85.166Z" fill="#E6E6E6"/>
<path d="M164.067 81.5585C164.952 81.5585 165.67 80.8353 165.67 79.9432C165.67 79.0512 164.952 78.328 164.067 78.328C163.181 78.328 162.463 79.0512 162.463 79.9432C162.463 80.8353 163.181 81.5585 164.067 81.5585Z" fill="#E6E6E6"/>
<path d="M138.505 168.238L142.187 168.237L143.939 153.934L138.505 153.935L138.505 168.238Z" fill="#FFB8B8"/>
<path d="M137.566 167.027L144.817 167.027H144.817C145.424 167.027 146.025 167.147 146.586 167.381C147.146 167.615 147.656 167.958 148.085 168.39C148.514 168.822 148.854 169.335 149.086 169.899C149.319 170.464 149.438 171.069 149.438 171.68V171.832L137.566 171.832L137.566 167.027Z" fill="#2F2E41"/>
<path d="M125.291 168.238L128.973 168.237L130.725 153.934L125.291 153.935L125.291 168.238Z" fill="#FFB8B8"/>
<path d="M124.352 167.027L131.603 167.027H131.603C132.21 167.027 132.811 167.147 133.372 167.381C133.932 167.615 134.442 167.958 134.871 168.39C135.3 168.822 135.64 169.335 135.872 169.899C136.105 170.464 136.224 171.069 136.224 171.68V171.832L124.353 171.832L124.352 167.027Z" fill="#2F2E41"/>
<path d="M128.986 163.861H128.985L125.854 163.86C125.504 163.862 125.167 163.725 124.915 163.48C124.663 163.235 124.516 162.901 124.505 162.548L124.406 159.789C123.614 137.727 122.796 114.914 127.865 104.66L127.905 104.579L144.686 103.968L148.055 135.095C148.199 136.423 148.147 137.765 147.899 139.077L143.445 162.714C143.385 163.035 143.213 163.323 142.959 163.526C142.706 163.729 142.388 163.834 142.065 163.821L138.548 163.706C138.364 163.699 138.183 163.653 138.017 163.573C137.851 163.493 137.703 163.379 137.582 163.239C137.461 163.099 137.369 162.936 137.313 162.759C137.257 162.582 137.238 162.395 137.256 162.211L140.019 140.348C140.113 139.405 140.028 138.452 139.768 137.54L136.332 125.443C136.304 125.343 136.242 125.256 136.158 125.196C136.073 125.137 135.971 125.108 135.867 125.115C135.764 125.123 135.667 125.165 135.592 125.236C135.516 125.308 135.467 125.403 135.453 125.506L130.324 162.687C130.278 163.012 130.118 163.31 129.872 163.525C129.626 163.741 129.312 163.86 128.986 163.861Z" fill="#2F2E41"/>
<path d="M130.993 72.8472C135.067 72.8472 138.369 69.5211 138.369 65.4182C138.369 61.3153 135.067 57.9893 130.993 57.9893C126.919 57.9893 123.617 61.3153 123.617 65.4182C123.617 69.5211 126.919 72.8472 130.993 72.8472Z" fill="#FFB8B8"/>
<path d="M143.899 106.265H128.637C128.443 106.265 128.251 106.223 128.074 106.142C127.898 106.061 127.741 105.942 127.614 105.795C127.487 105.647 127.393 105.473 127.339 105.286C127.285 105.098 127.271 104.901 127.299 104.708L128.053 99.5062L123.625 87.24C123.168 85.9737 122.998 84.6204 123.128 83.2793C123.258 81.9383 123.684 80.6436 124.376 79.4901C125.067 78.3366 126.006 77.3537 127.124 76.6134C128.242 75.873 129.51 75.3942 130.836 75.2118C132.724 74.9465 134.647 75.2972 136.324 76.2124C138 77.1276 139.342 78.5594 140.152 80.298L141.124 82.3822L145.228 104.656C145.264 104.853 145.257 105.055 145.207 105.248C145.157 105.441 145.065 105.621 144.939 105.775C144.812 105.928 144.653 106.052 144.473 106.137C144.294 106.221 144.098 106.265 143.899 106.265Z" fill="#1C1F4A"/>
<path d="M111.68 119.313C112.139 119.205 112.57 118.998 112.941 118.704C113.312 118.411 113.615 118.04 113.828 117.616C114.041 117.192 114.159 116.727 114.175 116.252C114.19 115.777 114.101 115.305 113.916 114.868L125.809 87.8055L119.005 86.0796L109.454 113.224C108.746 113.587 108.195 114.198 107.906 114.943C107.616 115.688 107.607 116.514 107.882 117.264C108.156 118.015 108.694 118.638 109.394 119.015C110.094 119.393 110.907 119.499 111.68 119.313Z" fill="#FFB8B8"/>
<path d="M124.199 92.6455L117.582 89.526C117.393 89.4372 117.226 89.3086 117.092 89.149C116.957 88.9893 116.859 88.8024 116.802 88.6008C116.746 88.3993 116.734 88.1878 116.766 87.981C116.798 87.7742 116.874 87.5767 116.989 87.4022L121.01 81.2854C121.467 80.3185 122.285 79.5733 123.287 79.2131C124.288 78.853 125.39 78.9073 126.352 79.3641C127.313 79.8209 128.056 80.6429 128.417 81.6502C128.778 82.6574 128.727 83.7676 128.277 84.7376L126.198 91.7437C126.138 91.9443 126.036 92.1295 125.899 92.2869C125.762 92.4443 125.593 92.57 125.403 92.6556C125.213 92.7412 125.008 92.7846 124.8 92.7829C124.592 92.7811 124.387 92.7343 124.199 92.6455Z" fill="#1C1F4A"/>
<path d="M161.292 49.6726C161.436 50.1251 161.479 50.6037 161.419 51.0749C161.36 51.5461 161.198 51.9983 160.946 52.3997C160.693 52.8011 160.357 53.142 159.96 53.3982C159.563 53.6544 159.114 53.8198 158.647 53.8828L141.658 78.0303L136.702 73.0285L154.96 50.8651C154.907 50.0671 155.147 49.2773 155.633 48.6453C156.12 48.0133 156.82 47.583 157.6 47.436C158.381 47.289 159.188 47.4355 159.868 47.8477C160.549 48.26 161.055 48.9093 161.292 49.6726Z" fill="#FFB8B8"/>
<path d="M145.587 75.1959C145.611 75.4039 145.591 75.6146 145.527 75.8138C145.463 76.013 145.357 76.196 145.216 76.3502L140.306 81.7369C139.71 82.624 138.789 83.2366 137.744 83.4406C136.7 83.6446 135.618 83.4233 134.736 82.8251C133.854 82.227 133.243 81.3008 133.038 80.2498C132.832 79.1987 133.049 78.1085 133.64 77.2182L136.798 70.607C136.888 70.4183 137.017 70.2514 137.177 70.1177C137.337 69.9839 137.524 69.8865 137.724 69.8319C137.925 69.7774 138.135 69.767 138.34 69.8016C138.545 69.8362 138.74 69.9149 138.912 70.0323L144.961 74.159C145.134 74.2763 145.279 74.4297 145.387 74.6087C145.494 74.7876 145.563 74.9879 145.587 75.1959Z" fill="#1C1F4A"/>
<path d="M140.685 62.3087C140.68 61.6364 140.587 60.9676 140.409 60.3197C139.22 55.8969 134.833 53.2423 130.431 53.9085C129.575 53.6612 128.688 53.5362 127.797 53.5371C125.531 53.5371 123.34 54.3532 121.619 55.8379C119.899 57.3226 118.762 59.3782 118.414 61.6333L114.857 84.6915H134.078L137.181 64.5695C137.296 63.8218 137.323 63.0629 137.262 62.3087H140.685Z" fill="#2F2E41"/>
<path d="M164.573 172H101.207C101.127 172 101.051 171.968 100.994 171.911C100.938 171.855 100.906 171.778 100.906 171.697C100.906 171.617 100.938 171.54 100.994 171.484C101.051 171.427 101.127 171.395 101.207 171.395H164.573C164.653 171.395 164.729 171.427 164.786 171.484C164.842 171.54 164.874 171.617 164.874 171.697C164.874 171.778 164.842 171.855 164.786 171.911C164.729 171.968 164.653 172 164.573 172Z" fill="#CCCCCC"/>
<path d="M228.412 23.492C228.851 23.4494 229.294 23.5044 229.71 23.6531C230.127 23.8017 230.505 24.0405 230.82 24.3525C231.134 24.6645 231.377 25.0421 231.531 25.4589C231.685 25.8756 231.746 26.3213 231.711 26.7645L241.533 31.1186L236.848 34.1647L228.239 29.563C227.503 29.4535 226.833 29.0761 226.356 28.5024C225.878 27.9287 225.626 27.1985 225.648 26.4502C225.669 25.7019 225.962 24.9874 226.472 24.4422C226.981 23.897 227.671 23.5589 228.412 23.492Z" fill="#A0616A"/>
<path d="M268.033 18.0607C272.107 18.0607 275.409 14.7346 275.409 10.6317C275.409 6.52882 272.107 3.20276 268.033 3.20276C263.959 3.20276 260.657 6.52882 260.657 10.6317C260.657 14.7346 263.959 18.0607 268.033 18.0607Z" fill="#A0616A"/>
<path d="M254.683 116.561L251.001 116.56L249.25 102.257L254.684 102.258L254.683 116.561Z" fill="#A0616A"/>
<path d="M255.622 120.155L243.75 120.155V120.004C243.75 119.392 243.87 118.787 244.102 118.223C244.334 117.658 244.675 117.145 245.104 116.713C245.533 116.281 246.042 115.938 246.603 115.704C247.163 115.47 247.764 115.35 248.371 115.35L255.622 115.35L255.622 120.155Z" fill="#2F2E41"/>
<path d="M269.999 116.561L266.317 116.56L264.566 102.257L270 102.258L269.999 116.561Z" fill="#A0616A"/>
<path d="M270.938 120.155L259.066 120.155V120.004C259.066 119.392 259.186 118.787 259.418 118.223C259.65 117.658 259.991 117.145 260.42 116.713C260.849 116.281 261.358 115.938 261.919 115.704C262.48 115.47 263.08 115.35 263.687 115.35L270.938 115.35L270.938 120.155Z" fill="#2F2E41"/>
<path d="M269.825 113.514C269.77 113.514 269.715 113.511 269.66 113.504L264.27 112.836C263.955 112.797 263.663 112.647 263.446 112.413C263.229 112.179 263.102 111.875 263.086 111.555L261.515 75.9349C261.51 75.8338 261.471 75.7374 261.405 75.6611C261.339 75.5848 261.25 75.5329 261.151 75.5136C261.053 75.4943 260.95 75.5089 260.861 75.5549C260.771 75.6008 260.7 75.6757 260.657 75.7674L256.623 89.3132L255.792 111.072C255.785 111.259 255.739 111.444 255.658 111.613C255.577 111.782 255.462 111.932 255.32 112.054C255.178 112.176 255.013 112.267 254.835 112.322C254.656 112.376 254.469 112.393 254.283 112.371L249.616 111.818C249.283 111.779 248.975 111.616 248.755 111.361C248.534 111.106 248.416 110.778 248.423 110.439L248.819 89.9581L251.981 57.808L252.123 57.8133L271.35 58.5597L271.176 112.158C271.175 112.518 271.032 112.863 270.779 113.117C270.525 113.371 270.182 113.514 269.825 113.514Z" fill="#2F2E41"/>
<path d="M270.621 61.4976C270.609 61.4976 270.597 61.4976 270.586 61.4972L251.222 60.9862C251.032 60.9812 250.845 60.936 250.674 60.8535C250.503 60.771 250.35 60.6531 250.227 60.5074C250.104 60.3617 250.013 60.1916 249.96 60.0081C249.907 59.8246 249.892 59.6318 249.918 59.4423L253.639 31.8597C253.871 29.9973 254.491 28.2051 255.458 26.6003C256.424 24.9954 257.716 23.614 259.249 22.5461C260.597 21.6113 262.128 20.9779 263.74 20.6886C265.351 20.3992 267.005 20.4605 268.591 20.8683C275.35 22.5933 279.405 29.9031 277.63 37.1629L271.933 60.4619C271.86 60.7568 271.691 61.0187 271.453 61.2062C271.216 61.3937 270.923 61.4962 270.621 61.4976Z" fill="#3F3D56"/>
<path d="M245.217 39.5945C243.941 39.5961 242.692 39.2224 241.624 38.5193L230.332 31.0574C230.166 30.9482 230.027 30.8038 229.923 30.6344C229.819 30.465 229.753 30.2747 229.731 30.077C229.708 29.8792 229.728 29.6788 229.791 29.4899C229.853 29.3009 229.956 29.1281 230.092 28.9836L231.793 27.1747C231.978 26.9764 232.219 26.839 232.483 26.7803C232.747 26.7217 233.023 26.7445 233.274 26.8459L245.888 31.9049L257.573 23.5004C258.119 23.1075 258.74 22.833 259.398 22.6944C260.055 22.5558 260.733 22.5561 261.39 22.6953C262.047 22.8344 262.668 23.1094 263.215 23.5029C263.761 23.8963 264.22 24.3996 264.563 24.9809C264.906 25.5622 265.125 26.2089 265.207 26.8801C265.289 27.5512 265.232 28.2322 265.039 28.8799C264.846 29.5277 264.522 30.128 264.087 30.6431C263.652 31.1581 263.116 31.5766 262.512 31.8721L248.07 38.937C247.181 39.3708 246.205 39.5956 245.217 39.5945Z" fill="#3F3D56"/>
<path d="M270.589 17.7361C271.847 18.0354 273.365 18.265 274.264 17.3293C274.424 17.1527 274.566 16.9613 274.69 16.7577L275.865 14.9497C276.766 13.5647 277.683 12.1436 278.064 10.5331C278.283 9.60765 278.317 8.64762 278.165 7.70874C278.012 6.76986 277.676 5.87085 277.176 5.06393C276.675 4.25701 276.021 3.55826 275.25 3.00828C274.479 2.4583 273.608 2.06804 272.686 1.86018C270.931 1.46431 269.213 0.783159 267.418 0.907408C265.623 1.03166 263.518 0.990865 262.012 0C262.106 0.441744 262.614 2.39356 262.614 2.39356C262.614 2.39356 260.349 4.48624 259.895 5.00806C260.489 4.74259 261.136 4.61794 261.786 4.6437C262.436 4.66946 263.071 4.84493 263.643 5.15664C264.215 5.46834 264.709 5.90798 265.086 6.44177C265.463 6.97556 265.713 7.58928 265.818 8.23577C265.946 9.03001 265.871 9.91084 266.339 10.5627C266.785 11.1827 267.584 11.4 268.256 11.7579C269.224 12.3135 269.963 13.1993 270.34 14.2556C270.718 15.3118 270.707 16.469 270.312 17.5184L270.589 17.7361Z" fill="#2F2E41"/>
<path d="M261.733 64.1583H200.591C199.823 64.1574 199.086 63.8495 198.542 63.3021C197.999 62.7548 197.693 62.0126 197.692 61.2385V29.9179C197.693 29.1438 197.999 28.4017 198.542 27.8543C199.086 27.3069 199.823 26.999 200.591 26.9982H261.733C262.501 26.999 263.238 27.3069 263.781 27.8543C264.325 28.4017 264.631 29.1438 264.631 29.9179V61.2385C264.631 62.0126 264.325 62.7548 263.781 63.3021C263.238 63.8495 262.501 64.1574 261.733 64.1583Z" fill="#CCCCCC"/>
<path d="M261.03 62.0348H201.294C200.898 62.0343 200.518 61.8757 200.238 61.5938C199.958 61.3118 199.801 60.9295 199.801 60.5307V30.6257C199.801 30.2269 199.958 29.8446 200.238 29.5626C200.518 29.2806 200.898 29.122 201.294 29.1216H261.03C261.426 29.122 261.805 29.2806 262.085 29.5626C262.365 29.8446 262.523 30.2269 262.523 30.6257V60.5307C262.523 60.9295 262.365 61.3118 262.085 61.5938C261.805 61.8757 261.426 62.0343 261.03 62.0348Z" fill="white"/>
<path d="M257.57 69.5851L250.852 62.8188L259.465 63.0381V68.7946C259.467 69.0163 259.403 69.2334 259.281 69.4177C259.159 69.602 258.984 69.7448 258.78 69.8275C258.643 69.8852 258.496 69.915 258.348 69.9154C258.203 69.915 258.06 69.8855 257.926 69.8288C257.793 69.7721 257.672 69.6893 257.57 69.5851Z" fill="#CCCCCC"/>
<path d="M253.757 44.2371H223.537C223.165 44.2371 222.807 44.088 222.544 43.8225C222.28 43.557 222.132 43.1969 222.132 42.8215C222.132 42.4461 222.28 42.086 222.544 41.8205C222.807 41.555 223.165 41.4059 223.537 41.4059H253.757C254.129 41.4059 254.487 41.555 254.75 41.8205C255.014 42.086 255.162 42.4461 255.162 42.8215C255.162 43.1969 255.014 43.557 254.75 43.8225C254.487 44.088 254.129 44.2371 253.757 44.2371Z" fill="#CCCCCC"/>
<path d="M243.918 38.2208H223.537C223.352 38.221 223.169 38.1846 222.999 38.1136C222.828 38.0426 222.673 37.9384 222.542 37.8069C222.411 37.6754 222.308 37.5192 222.237 37.3474C222.166 37.1755 222.13 36.9912 222.13 36.8051C222.13 36.6191 222.166 36.4348 222.237 36.2629C222.308 36.0911 222.411 35.9349 222.542 35.8034C222.673 35.6719 222.828 35.5677 222.999 35.4967C223.169 35.4257 223.352 35.3893 223.537 35.3895H243.918C244.29 35.3895 244.648 35.5387 244.911 35.8042C245.175 36.0696 245.323 36.4297 245.323 36.8051C245.323 37.1806 245.175 37.5407 244.911 37.8061C244.648 38.0716 244.29 38.2208 243.918 38.2208Z" fill="#CCCCCC"/>
<path d="M211.028 44.2372C213.454 44.2372 215.42 42.2566 215.42 39.8133C215.42 37.3701 213.454 35.3895 211.028 35.3895C208.602 35.3895 206.635 37.3701 206.635 39.8133C206.635 42.2566 208.602 44.2372 211.028 44.2372Z" fill="#1C1F4A"/>
<path d="M244.444 55.7669C245.22 55.7669 245.849 55.1331 245.849 54.3513C245.849 53.5695 245.22 52.9357 244.444 52.9357C243.668 52.9357 243.038 53.5695 243.038 54.3513C243.038 55.1331 243.668 55.7669 244.444 55.7669Z" fill="#E6E6E6"/>
<path d="M249.363 55.7669C250.14 55.7669 250.769 55.1331 250.769 54.3513C250.769 53.5695 250.14 52.9357 249.363 52.9357C248.587 52.9357 247.958 53.5695 247.958 54.3513C247.958 55.1331 248.587 55.7669 249.363 55.7669Z" fill="#E6E6E6"/>
<path d="M254.283 55.7669C255.059 55.7669 255.688 55.1331 255.688 54.3513C255.688 53.5695 255.059 52.9357 254.283 52.9357C253.506 52.9357 252.877 53.5695 252.877 54.3513C252.877 55.1331 253.506 55.7669 254.283 55.7669Z" fill="#E6E6E6"/>
<path d="M260.786 60.4335C260.834 59.9915 260.978 59.5657 261.208 59.1859C261.438 58.8061 261.747 58.4817 262.115 58.2354C262.482 57.9891 262.899 57.827 263.336 57.7605C263.772 57.694 264.218 57.7247 264.641 57.8505L270.883 49.0579L272.885 54.3004L266.651 61.8462C266.394 62.5487 265.89 63.1319 265.235 63.4853C264.579 63.8387 263.818 63.9376 263.095 63.7635C262.372 63.5894 261.738 63.1542 261.312 62.5405C260.887 61.9267 260.699 61.177 260.786 60.4335Z" fill="#A0616A"/>
<path d="M267.935 59.9591C267.837 59.9673 267.738 59.9648 267.641 59.9516C267.445 59.9252 267.257 59.8557 267.091 59.748C266.924 59.6404 266.783 59.4971 266.678 59.3285L265.359 57.2208C265.214 56.9907 265.141 56.7219 265.15 56.4495C265.159 56.1771 265.25 55.9138 265.41 55.6939L273.399 44.6376L268.206 31.1548C267.742 29.9685 267.76 28.6461 268.255 27.4727C268.75 26.2993 269.683 25.3688 270.853 24.8817C271.514 24.6025 272.228 24.4743 272.944 24.5063C273.66 24.5383 274.361 24.7297 274.994 25.0668C275.628 25.404 276.18 25.8784 276.61 26.4559C277.04 27.0335 277.338 27.6999 277.482 28.4072L280.704 44.2485C280.928 45.3657 280.862 46.5222 280.512 47.6061C280.162 48.69 279.54 49.6646 278.706 50.4354L268.733 59.6079C268.513 59.8106 268.232 59.9341 267.935 59.9591Z" fill="#3F3D56"/>
<path d="M284.7 120.883H221.333C221.253 120.883 221.177 120.851 221.121 120.794C221.064 120.737 221.033 120.66 221.033 120.58C221.033 120.5 221.064 120.423 221.121 120.366C221.177 120.31 221.253 120.278 221.333 120.278H284.7C284.779 120.278 284.856 120.31 284.912 120.366C284.968 120.423 285 120.5 285 120.58C285 120.66 284.968 120.737 284.912 120.794C284.856 120.851 284.779 120.883 284.7 120.883Z" fill="#CCCCCC"/>
<path d="M77.0664 45.6052H15.9252C15.1566 45.6043 14.4198 45.2964 13.8763 44.749C13.3328 44.2017 13.0271 43.4595 13.0262 42.6854V11.3648C13.0271 10.5907 13.3328 9.84857 13.8763 9.3012C14.4198 8.75383 15.1566 8.44594 15.9252 8.44507H77.0664C77.835 8.44594 78.5718 8.75384 79.1153 9.3012C79.6588 9.84857 79.9645 10.5907 79.9653 11.3648V42.6854C79.9645 43.4595 79.6588 44.2017 79.1153 44.749C78.5718 45.2964 77.835 45.6043 77.0664 45.6052Z" fill="#CCCCCC"/>
<path d="M76.3636 43.4817H16.6279C16.232 43.4813 15.8524 43.3226 15.5724 43.0407C15.2924 42.7587 15.135 42.3764 15.1345 41.9776V12.0726C15.135 11.6738 15.2924 11.2915 15.5724 11.0095C15.8524 10.7275 16.232 10.5689 16.6279 10.5685H76.3636C76.7595 10.5689 77.1391 10.7275 77.4191 11.0095C77.699 11.2915 77.8565 11.6738 77.857 12.0726V41.9776C77.8565 42.3764 77.699 42.7587 77.4191 43.0407C77.1391 43.3226 76.7595 43.4813 76.3636 43.4817Z" fill="white"/>
<path d="M72.9042 51.032L66.186 44.2657L74.7991 44.485V50.2415C74.8014 50.4632 74.7372 50.6803 74.615 50.8646C74.4927 51.0489 74.3181 51.1917 74.1139 51.2744C73.9771 51.3321 73.8303 51.3619 73.6821 51.3623C73.5372 51.3619 73.3938 51.3324 73.2603 51.2757C73.1268 51.219 73.0057 51.1362 72.9042 51.032Z" fill="#CCCCCC"/>
<path d="M69.0905 25.684H38.8712C38.4985 25.684 38.141 25.5349 37.8774 25.2694C37.6138 25.0039 37.4657 24.6439 37.4657 24.2684C37.4657 23.893 37.6138 23.5329 37.8774 23.2674C38.141 23.0019 38.4985 22.8528 38.8712 22.8528H69.0905C69.4632 22.8528 69.8207 23.0019 70.0843 23.2674C70.3479 23.5329 70.496 23.893 70.496 24.2684C70.496 24.6439 70.3479 25.0039 70.0843 25.2694C69.8207 25.5349 69.4632 25.684 69.0905 25.684Z" fill="#CCCCCC"/>
<path d="M59.2516 19.6677H38.8712C38.4985 19.6677 38.141 19.5185 37.8774 19.253C37.6138 18.9876 37.4657 18.6275 37.4657 18.252C37.4657 17.8766 37.6138 17.5165 37.8774 17.2511C38.141 16.9856 38.4985 16.8364 38.8712 16.8364H59.2516C59.6244 16.8364 59.9819 16.9856 60.2455 17.2511C60.5091 17.5165 60.6572 17.8766 60.6572 18.252C60.6572 18.6275 60.5091 18.9876 60.2455 19.253C59.9819 19.5185 59.6244 19.6677 59.2516 19.6677Z" fill="#CCCCCC"/>
<path d="M26.3618 25.6841C28.7876 25.6841 30.7541 23.7035 30.7541 21.2602C30.7541 18.817 28.7876 16.8364 26.3618 16.8364C23.936 16.8364 21.9695 18.817 21.9695 21.2602C21.9695 23.7035 23.936 25.6841 26.3618 25.6841Z" fill="#1C1F4A"/>
<path d="M59.7777 37.2138C60.554 37.2138 61.1833 36.58 61.1833 35.7982C61.1833 35.0164 60.554 34.3826 59.7777 34.3826C59.0015 34.3826 58.3722 35.0164 58.3722 35.7982C58.3722 36.58 59.0015 37.2138 59.7777 37.2138Z" fill="#E6E6E6"/>
<path d="M64.6972 37.2138C65.4734 37.2138 66.1027 36.58 66.1027 35.7982C66.1027 35.0164 65.4734 34.3826 64.6972 34.3826C63.9209 34.3826 63.2916 35.0164 63.2916 35.7982C63.2916 36.58 63.9209 37.2138 64.6972 37.2138Z" fill="#E6E6E6"/>
<path d="M69.6166 37.2138C70.3929 37.2138 71.0222 36.58 71.0222 35.7982C71.0222 35.0164 70.3929 34.3826 69.6166 34.3826C68.8403 34.3826 68.2111 35.0164 68.2111 35.7982C68.2111 36.58 68.8403 37.2138 69.6166 37.2138Z" fill="#E6E6E6"/>
<path d="M74.5308 5.43581C74.1154 5.58642 73.7378 5.82694 73.4247 6.14041C73.1116 6.45388 72.8705 6.83269 72.7185 7.25015C72.5664 7.66761 72.5071 8.11356 72.5447 8.5566C72.5823 8.99965 72.7159 9.42899 72.9361 9.81441L65.9026 17.9781L71.4311 18.7158L77.2626 10.8503C77.8809 10.4348 78.3265 9.80538 78.5148 9.08118C78.7032 8.35698 78.6212 7.58836 78.2845 6.92096C77.9477 6.25356 77.3796 5.73376 76.6878 5.46003C75.996 5.18631 75.2285 5.17769 74.5308 5.43581Z" fill="#FFB8B8"/>
<path d="M27.5685 8.70417C27.7185 9.12237 27.7756 9.56861 27.7359 10.0115C27.6962 10.4543 27.5605 10.883 27.3385 11.2673C27.1165 11.6517 26.8135 11.9823 26.4508 12.2359C26.0882 12.4896 25.6748 12.6601 25.2397 12.7354L23.4894 23.3993L19.3969 19.5838L21.6864 10.0421C21.6092 9.2975 21.8059 8.55027 22.2392 7.942C22.6725 7.33373 23.3123 6.90667 24.0374 6.74176C24.7624 6.57684 25.5223 6.68552 26.1731 7.0472C26.8239 7.40889 27.3204 7.99846 27.5685 8.70417Z" fill="#FFB8B8"/>
<path d="M38.5603 116.561L42.2422 116.56L43.9936 102.257L38.5597 102.258L38.5603 116.561Z" fill="#FFB8B8"/>
<path d="M37.6211 115.35L44.8719 115.35H44.8722C45.479 115.35 46.0799 115.47 46.6405 115.704C47.2011 115.938 47.7105 116.281 48.1396 116.713C48.5687 117.145 48.909 117.658 49.1412 118.223C49.3735 118.787 49.493 119.392 49.493 120.004V120.155L37.6213 120.155L37.6211 115.35Z" fill="#2F2E41"/>
<path d="M19.6404 116.561L23.3222 116.56L25.0737 102.257L19.6398 102.258L19.6404 116.561Z" fill="#FFB8B8"/>
<path d="M18.7012 115.35L25.9519 115.35H25.9522C26.5591 115.35 27.1599 115.47 27.7206 115.704C28.2812 115.938 28.7906 116.281 29.2197 116.713C29.6487 117.145 29.9891 117.658 30.2213 118.223C30.4535 118.787 30.5731 119.392 30.5731 120.004V120.155L18.7014 120.155L18.7012 115.35Z" fill="#2F2E41"/>
<path d="M37.7917 18.9067C41.8654 18.9067 45.1678 15.5807 45.1678 11.4778C45.1678 7.37489 41.8654 4.04883 37.7917 4.04883C33.718 4.04883 30.4156 7.37489 30.4156 11.4778C30.4156 15.5807 33.718 18.9067 37.7917 18.9067Z" fill="#FFB8B8"/>
<path d="M36.9075 111.809L36.2976 72.6678C36.296 72.5571 36.2544 72.4509 36.1805 72.369C36.1066 72.2871 36.0055 72.2353 35.8963 72.2232C35.7871 72.2112 35.6772 72.2397 35.5875 72.3036C35.4977 72.3674 35.4342 72.462 35.4089 72.5697L25.4111 110.855C25.3358 111.161 25.1585 111.433 24.9086 111.623C24.6587 111.813 24.3515 111.912 24.0383 111.901L18.5456 111.665C18.3588 111.657 18.1758 111.61 18.008 111.527C17.8402 111.444 17.6913 111.327 17.5708 111.183C17.4502 111.039 17.3606 110.871 17.3075 110.691C17.2545 110.51 17.2392 110.321 17.2626 110.134L25.7462 60.935L25.7635 60.7961L49.393 61.9221L49.5472 61.9292L44.4801 111.891C44.4535 112.233 44.3002 112.553 44.0505 112.786C43.8009 113.019 43.4732 113.15 43.1325 113.151H38.2588C37.9041 113.15 37.564 113.008 37.3115 112.758C37.0589 112.507 36.9139 112.166 36.9075 111.809Z" fill="#2F2E41"/>
<path d="M55.5705 65.2377L21.2811 62.4035C21.0742 62.3864 20.8739 62.3216 20.6959 62.2139C20.5178 62.1062 20.3669 61.9587 20.2546 61.7827C20.1424 61.6067 20.0719 61.4071 20.0487 61.1992C20.0255 60.9914 20.0502 60.781 20.1209 60.5843L25.5208 45.548L25.8315 27.7014C25.8428 27.0535 25.9816 26.4144 26.2401 25.821C26.4985 25.2276 26.8713 24.6919 27.337 24.2447C27.8026 23.7976 28.3517 23.4481 28.9525 23.2164C29.5533 22.9847 30.1938 22.8754 30.8369 22.8949L33.1172 20.8131H41.4718L42.1993 21.7737L48.0126 22.6734C49.048 22.838 50.0035 23.3336 50.7378 24.0871C51.4722 24.8405 51.9466 25.8117 52.0909 26.8575L57.0204 63.6997C57.046 63.8919 57.0306 64.0874 56.9752 64.2731C56.9198 64.4588 56.8256 64.6304 56.6989 64.7765C56.5723 64.9226 56.4161 65.0397 56.2409 65.1201C56.0656 65.2004 55.8754 65.2421 55.6828 65.2424C55.6456 65.2424 55.6081 65.2409 55.5705 65.2377Z" fill="#2F2E41"/>
<path d="M48.8898 24.4035L63.5102 20.0891L70.127 11.3152C70.3092 11.0735 70.5663 10.9001 70.8575 10.8225C71.1488 10.7449 71.4574 10.7675 71.7344 10.8869L75.8657 12.6653C76.0418 12.7412 76.1999 12.8538 76.3295 12.9959C76.4591 13.1379 76.5573 13.3061 76.6175 13.4892C76.6776 13.6724 76.6985 13.8663 76.6786 14.0582C76.6587 14.2501 76.5985 14.4355 76.5021 14.6021L71.5572 23.1487C70.752 24.5467 69.5264 25.6508 68.0574 26.3013L50.8609 33.9575L48.8898 24.4035Z" fill="#2F2E41"/>
<path d="M20.8398 30.8573C19.9661 30.2234 19.2693 29.3733 18.8167 28.3892C18.3642 27.4051 18.171 26.3201 18.256 25.2389L18.8976 16.6767C18.9241 16.3347 19.0774 16.0153 19.3272 15.7821C19.5769 15.5488 19.9047 15.4189 20.2453 15.4181H20.2572L25.1019 15.4615C25.3004 15.4633 25.496 15.5092 25.6749 15.5957C25.8538 15.6823 26.0116 15.8075 26.137 15.9624C26.2625 16.1173 26.3525 16.2981 26.4007 16.492C26.449 16.6859 26.4542 16.8882 26.4161 17.0843L25.5172 21.7035L31.932 24.4334L26.5302 35.0177L20.8398 30.8573Z" fill="#2F2E41"/>
<path d="M42.0826 2.56975C42.0826 2.56975 34.369 -1.61347 30.1646 3.32362C25.9602 8.26071 31.7664 15.9812 31.7664 15.9812L40.0395 17.0321C40.0395 17.0321 40.3399 11.3679 42.3096 11.4779C44.2794 11.5879 50.3969 4.44052 42.0826 2.56975Z" fill="#2F2E41"/>
<path d="M63.667 120.58H0.300316C0.220667 120.58 0.144281 120.548 0.0879603 120.492C0.0316401 120.435 0 120.358 0 120.278C0 120.198 0.0316401 120.121 0.0879603 120.064C0.144281 120.007 0.220667 119.975 0.300316 119.975H63.667C63.7467 119.975 63.823 120.007 63.8794 120.064C63.9357 120.121 63.9673 120.198 63.9673 120.278C63.9673 120.358 63.9357 120.435 63.8794 120.492C63.823 120.548 63.7467 120.58 63.667 120.58Z" fill="#CCCCCC"/>
</g>
<defs>
<clipPath id="clip0_7_610">
<rect width="285" height="172" fill="white"/>
</clipPath>
</defs>
</svg>
