<svg width="280" height="160" viewBox="0 0 280 160" fill="none" xmlns="http://www.w3.org/2000/svg">
<g clip-path="url(#clip0_7_681)">
<path d="M46.024 72.7498V27.7843C46.024 27.1422 46.2791 26.5263 46.7331 26.0723C47.187 25.6182 47.8028 25.3631 48.4448 25.3631C49.0868 25.3631 49.7025 25.6182 50.1565 26.0723C50.6105 26.5263 50.8655 27.1422 50.8655 27.7843V72.7498C50.8655 73.3919 50.6105 74.0078 50.1565 74.4618C49.7025 74.9159 49.0868 75.171 48.4448 75.171C47.8028 75.171 47.187 74.9159 46.7331 74.4618C46.2791 74.0078 46.024 73.3919 46.024 72.7498Z" fill="#F0F0F0"/>
<path d="M40.2316 72.7498V27.7843C40.2316 27.1422 40.4866 26.5263 40.9406 26.0723C41.3946 25.6182 42.0103 25.3631 42.6523 25.3631C43.2943 25.3631 43.91 25.6182 44.364 26.0723C44.818 26.5263 45.073 27.1422 45.073 27.7843V72.7498C45.073 73.3919 44.818 74.0078 44.364 74.4618C43.91 74.9159 43.2943 75.171 42.6523 75.171C42.0103 75.171 41.3946 74.9159 40.9406 74.4618C40.4866 74.0078 40.2316 73.3919 40.2316 72.7498Z" fill="#F0F0F0"/>
<path d="M34.4392 72.7498V27.7843C34.4392 27.1422 34.6943 26.5263 35.1482 26.0723C35.6022 25.6182 36.2179 25.3631 36.8599 25.3631C37.5019 25.3631 38.1177 25.6182 38.5716 26.0723C39.0256 26.5263 39.2807 27.1422 39.2807 27.7843V72.7498C39.2807 73.3919 39.0256 74.0078 38.5716 74.4618C38.1177 74.9159 37.5019 75.171 36.8599 75.171C36.2179 75.171 35.6022 74.9159 35.1482 74.4618C34.6943 74.0078 34.4392 73.3919 34.4392 72.7498Z" fill="#F0F0F0"/>
<path d="M253.136 144.569C252.161 144.569 251.193 144.401 250.276 144.072L250.134 144.021L250.199 143.708C248.556 140.387 249.13 135.838 251.67 132.097C253.979 128.697 257.49 126.225 260.587 124.044C260.98 123.767 261.447 123.614 261.928 123.605C262.408 123.596 262.881 123.731 263.284 123.992C263.687 124.253 264.003 124.63 264.191 125.072C264.379 125.514 264.43 126.003 264.339 126.475L263.231 132.159C262.432 136.26 261.481 140.141 258.66 142.561C257.111 143.858 255.156 144.568 253.136 144.569Z" fill="#E6E6E6"/>
<path d="M260.39 154.391C259.317 154.385 258.263 154.11 257.323 153.593C256.383 153.076 255.587 152.331 255.008 151.428L254.927 151.303L255.119 151.134C255.614 148.43 257.945 146.021 261.075 144.984C263.919 144.043 267.059 144.197 269.828 144.332C270.194 144.35 270.546 144.476 270.84 144.694C271.134 144.913 271.357 145.213 271.48 145.558C271.603 145.903 271.621 146.277 271.532 146.633C271.442 146.988 271.249 147.308 270.977 147.554L267.862 150.366C265.598 152.41 263.341 154.254 260.617 154.387C260.541 154.39 260.466 154.391 260.39 154.391Z" fill="#E6E6E6"/>
<path d="M250.722 157.397C250.262 153.971 249.789 150.501 250.112 147.038C250.399 143.963 251.316 140.959 253.184 138.496C254.171 137.196 255.378 136.077 256.75 135.192C257.106 134.962 257.435 135.54 257.08 135.769C254.701 137.313 252.872 139.57 251.854 142.217C250.716 145.176 250.533 148.401 250.729 151.544C250.848 153.445 251.099 155.334 251.352 157.22C251.373 157.304 251.361 157.393 251.318 157.47C251.276 157.546 251.207 157.603 251.124 157.631C251.083 157.642 251.039 157.645 250.996 157.639C250.953 157.633 250.912 157.619 250.875 157.597C250.838 157.576 250.805 157.547 250.779 157.513C250.753 157.478 250.733 157.439 250.722 157.397Z" fill="#F2F2F2"/>
<path d="M249.422 159.367C251.637 155.361 254.205 150.909 258.794 149.486C260.068 149.092 261.407 148.951 262.735 149.07C263.154 149.107 263.049 149.766 262.632 149.73C260.4 149.542 258.174 150.144 256.341 151.431C254.568 152.666 253.187 154.382 252.018 156.202C251.302 157.316 250.661 158.478 250.019 159.639C249.814 160.01 249.215 159.742 249.422 159.367Z" fill="#F2F2F2"/>
<path d="M248.426 159.308L250.662 159.359L237.182 87.3324L234.946 87.7537L238.466 106.439H227.125L230.645 87.7537L228.41 87.3324L215.042 159.359L217.166 159.308L224.193 122.003H241.398L248.426 159.308ZM224.715 119.236L226.604 109.206H238.987L240.877 119.236H224.715Z" fill="#CACACA"/>
<path d="M150.807 73.897V50.2433C150.807 49.541 151.893 48.9697 153.228 48.9697C154.562 48.9697 155.648 49.541 155.648 50.2433V73.897C155.648 74.5993 154.562 75.1707 153.228 75.1707C151.893 75.1707 150.807 74.5993 150.807 73.897Z" fill="#F0F0F0"/>
<path d="M145.014 73.897V50.2433C145.014 49.541 146.1 48.9697 147.435 48.9697C148.77 48.9697 149.856 49.541 149.856 50.2433V73.897C149.856 74.5993 148.77 75.1707 147.435 75.1707C146.1 75.1707 145.014 74.5993 145.014 73.897Z" fill="#F0F0F0"/>
<path d="M139.222 73.897V50.2433C139.222 49.541 140.308 48.9697 141.643 48.9697C142.977 48.9697 144.063 49.541 144.063 50.2433V73.897C144.063 74.5993 142.977 75.1707 141.643 75.1707C140.308 75.1707 139.222 74.5993 139.222 73.897Z" fill="#F0F0F0"/>
<path d="M187.953 56.5022C187.942 56.4303 187.916 56.3615 187.877 56.3002C187.838 56.2389 187.786 56.1866 187.726 56.1465L169.476 44.0962C169.751 43.9813 169.981 43.7798 170.131 43.5222C170.313 43.2042 170.362 42.8269 170.267 42.4728C170.173 42.1187 169.941 41.8165 169.625 41.6323L168.127 40.7676C167.809 40.5852 167.432 40.5361 167.078 40.631C166.724 40.7258 166.422 40.957 166.238 41.274C166.138 41.4482 166.078 41.6422 166.062 41.8422L152.889 33.1437C152.446 32.072 151.776 31.1097 150.923 30.3238C150.071 29.5379 149.058 28.9473 147.954 28.5931V24.7578H143.112V28.5931C141.506 29.1069 140.105 30.1178 139.11 31.4801C138.116 32.8423 137.58 34.4854 137.579 36.1721V37.2098H142.421C142.421 38.0354 142.749 38.8272 143.332 39.411C143.916 39.9948 144.708 40.3228 145.533 40.3228C146.359 40.3228 147.15 39.9948 147.734 39.411C148.318 38.8272 148.646 38.0354 148.646 37.2098H153.487V36.1721C153.486 35.6747 153.44 35.1784 153.347 34.6897L186.673 56.695L172.83 73.5295C172.722 73.529 172.615 73.528 172.507 73.528C171.402 73.528 170.332 73.5542 169.313 73.5991C169.374 73.4282 169.401 73.2466 169.392 73.0652C169.371 72.6991 169.207 72.3559 168.935 72.1105C168.663 71.8651 168.304 71.7375 167.938 71.7555L166.211 71.8455C165.845 71.8656 165.502 72.0298 165.257 72.3022C165.012 72.5746 164.884 72.933 164.902 73.2992C164.915 73.5155 164.979 73.7256 165.089 73.912C162.036 74.2366 160.057 74.684 160.057 74.9116C160.057 75.2845 165.37 74.9295 172.02 74.9124C172.051 74.9989 172.104 75.0757 172.174 75.135C172.243 75.1942 172.328 75.2338 172.418 75.2497C172.509 75.2655 172.601 75.2571 172.687 75.2252C172.773 75.1933 172.849 75.1391 172.907 75.0681L173.036 74.9125C179.666 74.9309 184.956 75.2838 184.956 74.9116C184.956 74.5606 180.253 73.6877 174.158 73.5477L187.84 56.909C187.887 56.8528 187.92 56.7876 187.94 56.7175C187.959 56.6474 187.963 56.5741 187.953 56.5022Z" fill="#CCCCCC"/>
<path d="M188.452 159.481H145.841C144.98 159.48 144.155 159.138 143.546 158.529C142.937 157.919 142.595 157.094 142.594 156.232V86.2884C142.593 85.5188 142.287 84.7811 141.743 84.2369C141.199 83.6928 140.461 83.3867 139.692 83.3858H40.0215C39.2521 83.3867 38.5144 83.6928 37.9703 84.2369C37.4263 84.7811 37.1202 85.5188 37.1193 86.2884V156.232C37.1183 157.094 36.7758 157.919 36.167 158.529C35.5581 159.138 34.7325 159.48 33.8714 159.481H32.4135C31.5524 159.48 30.7268 159.138 30.1179 158.529C29.509 157.919 29.1665 157.094 29.1655 156.232V82.5211C29.1678 80.4578 29.9883 78.4796 31.447 77.0206C32.9058 75.5616 34.8835 74.741 36.9464 74.7386H183.919C185.982 74.741 187.96 75.5617 189.418 77.0207C190.877 78.4797 191.697 80.4578 191.7 82.5211V156.232C191.699 157.094 191.356 157.919 190.747 158.529C190.138 159.138 189.313 159.48 188.452 159.481Z" fill="#E4E4E4"/>
<path d="M191.527 92.8977H142.767V94.973H191.527V92.8977Z" fill="white"/>
<path d="M191.527 120.915H142.767V122.99H191.527V120.915Z" fill="white"/>
<path d="M102.404 74.3971L101.003 73.8069L100.041 66.7802H87.2389L86.1969 73.7782L84.9431 74.4052C84.8831 74.4352 84.835 74.4846 84.8066 74.5453C84.7782 74.6061 84.7711 74.6747 84.7865 74.7399C84.8019 74.8052 84.8389 74.8634 84.8915 74.905C84.9441 74.9466 85.0092 74.9693 85.0763 74.9693H102.288C102.357 74.9693 102.424 74.9455 102.477 74.902C102.53 74.8584 102.567 74.7978 102.58 74.7305C102.594 74.6631 102.584 74.5931 102.552 74.5323C102.519 74.4715 102.467 74.4237 102.404 74.3971Z" fill="#E6E6E6"/>
<path d="M125.154 67.7151H62.2662C61.9363 67.7143 61.6201 67.5827 61.387 67.3491C61.154 67.1154 61.0231 66.7989 61.0231 66.4689V57.599H126.398V66.4689C126.398 66.7989 126.267 67.1154 126.034 67.3491C125.801 67.5827 125.484 67.7143 125.154 67.7151Z" fill="#CCCCCC"/>
<path d="M126.463 61.7911H60.9657V23.8388C60.9662 23.4405 61.1245 23.0587 61.4061 22.777C61.6877 22.4954 62.0695 22.337 62.4677 22.3365H124.961C125.36 22.337 125.741 22.4954 126.023 22.777C126.304 23.0587 126.463 23.4405 126.463 23.8388V61.7911Z" fill="#3F3D56"/>
<path d="M122.551 59.0365H64.8777C64.5707 59.0362 64.2763 58.9141 64.0593 58.6969C63.8422 58.4798 63.7201 58.1854 63.7197 57.8784V26.2493C63.7201 25.9422 63.8422 25.6478 64.0593 25.4307C64.2763 25.2136 64.5707 25.0914 64.8777 25.0911H122.551C122.858 25.0914 123.153 25.2136 123.37 25.4307C123.587 25.6478 123.709 25.9422 123.709 26.2493V57.8784C123.709 58.1854 123.587 58.4798 123.37 58.6969C123.153 58.9141 122.858 59.0362 122.551 59.0365Z" fill="white"/>
<path d="M187.205 28.7221C187.756 28.6426 188.319 28.685 188.852 28.8464C189.386 29.0079 189.877 29.2843 190.293 29.6563C190.708 30.0284 191.036 30.4869 191.255 30.9997C191.474 31.5124 191.578 32.0669 191.559 32.6241L204.204 37.4923L198.475 41.5863L187.345 36.3357C186.412 36.2424 185.545 35.8096 184.908 35.1196C184.272 34.4295 183.911 33.53 183.894 32.5915C183.877 31.653 184.204 30.7407 184.814 30.0276C185.424 29.3144 186.275 28.8499 187.205 28.7221Z" fill="#9E616A"/>
<path d="M235.217 26.3323L237.356 30.2224C236.84 32.6897 235.503 34.9097 233.565 36.5213C230.29 39.2841 213.165 49.5739 213.165 49.5739L191.545 38.7181L195.327 33.6913L212.301 39.3808C218.597 33.4339 226.196 29.0404 234.49 26.5505L235.217 26.3323Z" fill="#E4E4E4"/>
<path d="M231.239 90.7037C240.558 90.7037 248.112 88.2417 248.112 85.2048C248.112 82.1678 240.558 79.7058 231.239 79.7058C221.921 79.7058 214.367 82.1678 214.367 85.2048C214.367 88.2417 221.921 90.7037 231.239 90.7037Z" fill="#CACACA"/>
<path d="M193.387 154.648L188.907 153.41L191.552 135.535L198.164 137.363L193.387 154.648Z" fill="#9E616A"/>
<path d="M193.329 159.308L178.883 155.314L178.933 155.131C179.345 153.639 180.333 152.373 181.679 151.61C183.025 150.846 184.619 150.649 186.11 151.061L186.111 151.062L194.934 153.501L193.329 159.308Z" fill="#2F2E41"/>
<path d="M180.397 154.706L176.144 152.828L181.363 135.53L187.639 138.301L180.397 154.706Z" fill="#9E616A"/>
<path d="M179.661 159.308L165.95 153.253L166.027 153.079C166.652 151.663 167.813 150.554 169.256 149.995C170.699 149.436 172.304 149.473 173.72 150.098L173.72 150.098L182.094 153.797L179.661 159.308Z" fill="#2F2E41"/>
<path d="M244.371 71.7603C244.371 71.7603 246.624 78.7448 232.796 87.5778L214.986 105.328L196.48 149.604L185.494 144.678L187.648 138.925L189.094 135.064L189.834 133.09L190.627 130.973L202.389 99.5705L212.269 82.268L212.555 72.8794L214.986 66.2613L232.617 60.0039L244.371 71.7603Z" fill="#2F2E41"/>
<path d="M235.379 72.1062C235.379 72.1062 237.633 79.0907 223.804 87.9237L205.994 105.674L187.489 149.95L176.502 145.024L178.657 139.271L180.103 135.41L180.843 133.435L181.636 131.318L193.398 99.9164L196.706 94.1231C201.07 86.4804 206.373 79.4138 212.491 73.0879L215.734 69.7349L216.08 64.5466L223.625 60.3499L235.379 72.1062Z" fill="#2F2E41"/>
<path d="M224.725 37.9132L230.258 26.153L239.914 24.8356C239.914 24.8356 247.454 34.4433 245.474 47.9439C244.732 53.0067 244.127 58.047 244.091 62.4712C244.081 63.6484 245.111 64.1741 245.128 65.2383C245.146 66.2838 243.177 67.9868 243.745 68.6972C244.558 69.6764 245.042 70.8865 245.128 72.1561C244.443 73.7874 223.703 64.9499 214.986 66.2614L224.725 37.9132Z" fill="#E4E4E4"/>
<path d="M238.44 18.915C240.904 14.768 239.541 9.40785 235.395 6.94271C231.249 4.47756 225.89 5.84096 223.425 9.98794C220.961 14.1349 222.324 19.4951 226.47 21.9602C230.616 24.4254 235.975 23.062 238.44 18.915Z" fill="#9E616A"/>
<path d="M236.516 11.315C236.499 11.5449 236.476 11.8493 236.45 12.1937C236.422 13.1365 236.688 14.0645 237.21 14.8501C237.699 15.6765 237.116 20.6682 237.116 20.6682C251.421 10.6941 240.118 0.673462 235.696 1.56422C235.788 0.295808 232.182 0.798295 232.182 0.798295C230.808 -1.342 227.796 1.49906 227.796 1.49906L228.378 0.521261C226.039 1.11609 223.729 8.34364 223.729 8.34364C224.521 11.4617 236.608 10.0466 236.516 11.315Z" fill="#2F2E41"/>
<path d="M181.019 42.5394C185.935 35.999 189.821 28.7447 192.543 21.0282C192.701 20.5667 192.689 20.0641 192.511 19.6101C192.333 19.156 192 18.7799 191.57 18.5486L174.748 9.53297C174.476 9.38601 174.174 9.3031 173.865 9.29055C173.556 9.27801 173.248 9.33615 172.965 9.46057C172.676 9.58593 172.42 9.77546 172.216 10.0147C172.012 10.254 171.865 10.5367 171.787 10.8413C169.829 18.277 166.148 25.1474 161.043 30.8965C160.833 31.1305 160.679 31.4094 160.593 31.7119C160.507 32.0145 160.491 32.3327 160.546 32.6423C160.599 32.947 160.721 33.2356 160.903 33.4859C161.085 33.7363 161.321 33.942 161.594 34.0872L178.416 43.1029C178.847 43.3324 179.344 43.4017 179.821 43.2985C180.298 43.1953 180.722 42.9263 181.019 42.5394Z" fill="#CCCCCC"/>
<path d="M179.871 41.6766C179.781 41.7896 179.654 41.8674 179.512 41.8967C179.37 41.926 179.223 41.9049 179.095 41.837L162.272 32.8212C162.191 32.7786 162.12 32.7176 162.066 32.6431C162.012 32.5686 161.975 32.4826 161.96 32.3917C161.942 32.2958 161.947 32.1971 161.974 32.1035C162.001 32.0098 162.05 31.9236 162.116 31.8517C167.371 25.9333 171.16 18.8605 173.176 11.2056C173.199 11.111 173.244 11.0231 173.307 10.9488C173.37 10.8744 173.449 10.8157 173.539 10.7771C173.623 10.7394 173.715 10.7218 173.807 10.7256C173.899 10.7294 173.989 10.7546 174.07 10.7991L190.892 19.8147C191.02 19.8835 191.119 19.9948 191.173 20.1291C191.227 20.2635 191.233 20.4126 191.189 20.5506C188.516 28.1289 184.699 35.2534 179.871 41.6766Z" fill="white"/>
<path d="M173.986 19.3647L185.589 26.167C186.743 26.8438 187.789 25.0507 186.636 24.375L175.033 17.5727C173.879 16.8959 172.833 18.689 173.986 19.3647Z" fill="#1C1F4A"/>
<path d="M171.911 23.1695L183.514 29.9718C184.668 30.6486 185.714 28.8556 184.561 28.1798L172.958 21.3775C171.804 20.7007 170.758 22.4938 171.911 23.1695Z" fill="#1C1F4A"/>
<path d="M169.49 27.3202L181.093 34.1225C182.248 34.7992 183.293 33.0062 182.14 32.3305L170.538 25.5282C169.383 24.8514 168.338 26.6445 169.49 27.3202Z" fill="#1C1F4A"/>
<path d="M167.07 30.779L178.673 37.5813C179.827 38.2581 180.872 36.465 179.72 35.7893L168.117 28.987C166.962 28.3102 165.917 30.1033 167.07 30.779Z" fill="#1C1F4A"/>
<path d="M219.964 70.7909L224.32 80.5883C224.425 80.8228 224.47 81.0799 224.451 81.3361C224.431 81.5924 224.349 81.8399 224.21 82.0561C224.046 82.3145 223.81 82.5187 223.53 82.643C223.251 82.7672 222.941 82.806 222.64 82.7545C222.537 82.7388 222.436 82.7119 222.339 82.6744C221.954 82.5256 221.644 82.2304 221.476 81.8532L217.12 72.0558C217.037 71.869 216.992 71.6677 216.986 71.4634C216.981 71.259 217.016 71.0557 217.089 70.8649C217.238 70.4796 217.533 70.1688 217.91 70.0011C218.287 69.8334 218.715 69.8223 219.1 69.9705C219.486 70.1186 219.796 70.4137 219.964 70.7909Z" fill="#1C1F4A"/>
<path d="M223.969 79.7981L224.842 81.7755L225.288 84.5789C225.317 84.7634 225.285 84.9525 225.196 85.1168C225.107 85.2811 224.966 85.4114 224.795 85.4873C224.624 85.5632 224.433 85.5806 224.252 85.5367C224.07 85.4928 223.908 85.3901 223.791 85.2446L221.985 82.9973L221.125 81.063L223.969 79.7981Z" fill="#3F3D56"/>
<path d="M216.152 68.065L216.776 71.9874C216.797 72.1159 216.846 72.2379 216.922 72.344C216.997 72.4502 217.095 72.5377 217.209 72.5997C217.324 72.6617 217.451 72.6967 217.581 72.7018C217.71 72.7069 217.84 72.6821 217.959 72.6292L218.577 72.354L219.772 75.0404C219.809 75.124 219.878 75.1895 219.964 75.2223C220.049 75.2551 220.144 75.2526 220.228 75.2154C220.312 75.1781 220.377 75.1092 220.41 75.0237C220.443 74.9382 220.441 74.8431 220.404 74.7593L219.209 72.0729L219.828 71.7976C220.033 71.7062 220.194 71.5373 220.275 71.3278C220.356 71.1182 220.35 70.8851 220.26 70.6796C220.23 70.6115 220.19 70.5477 220.144 70.4897L217.65 67.399C217.532 67.2535 217.37 67.1509 217.189 67.1071C217.007 67.0633 216.816 67.0807 216.645 67.1567C216.474 67.2326 216.333 67.3628 216.244 67.5271C216.155 67.6914 216.123 67.8804 216.152 68.065Z" fill="#3F3D56"/>
<path d="M217.959 75.1447C218.057 74.5959 218.275 74.0753 218.596 73.6195C218.917 73.1638 219.334 72.7841 219.818 72.507C220.301 72.2299 220.84 72.0623 221.395 72.0159C221.951 71.9696 222.51 72.0456 223.032 72.2386L231.632 61.7657L233.714 68.4931L225.229 77.4069C224.846 78.2641 224.163 78.9511 223.308 79.3379C222.453 79.7247 221.485 79.7843 220.589 79.5054C219.693 79.2266 218.931 78.6286 218.446 77.8249C217.961 77.0212 217.788 76.0676 217.959 75.1447Z" fill="#9E616A"/>
<path d="M228.785 74.4642L224.998 68.9925L235.752 54.6501L230.212 42.7758L230.615 28.6514L235.193 27.8055L235.25 27.8341C237.476 29.1155 239.197 31.12 240.126 33.5145C241.268 36.3702 243.818 47.0907 245.236 53.2267C245.514 54.4158 245.484 55.6564 245.147 56.8303C244.811 58.0043 244.179 59.0725 243.313 59.9332L228.785 74.4642Z" fill="#E4E4E4"/>
<path d="M122.148 48.025C122.116 48.2908 122.106 48.5586 122.116 48.826L102.725 62.9361L97.3981 60.578L92.7893 68.1542L101.814 73.2454C102.543 73.6567 103.386 73.8203 104.216 73.7117C105.046 73.6031 105.819 73.2282 106.418 72.6432L125.934 53.5767C126.933 53.8306 127.985 53.7742 128.952 53.4152C129.918 53.0561 130.752 52.4114 131.343 51.5667C131.934 50.722 132.253 49.7174 132.259 48.6865C132.266 47.6556 131.958 46.6472 131.377 45.7956C130.796 44.9439 129.97 44.2893 129.008 43.9189C128.046 43.5484 126.994 43.4796 125.992 43.7216C124.99 43.9636 124.086 44.505 123.399 45.2737C122.712 46.0424 122.276 47.0021 122.148 48.025Z" fill="#FFB6B6"/>
<path d="M102.098 63.452L96.4432 72.8768C96.2823 73.1449 96.0655 73.3752 95.8076 73.552C95.5497 73.7288 95.2567 73.848 94.9486 73.9013C94.6405 73.9546 94.3246 73.9409 94.0222 73.8611C93.7199 73.7813 93.4383 73.6373 93.1967 73.4388L84.73 66.4839C83.3633 65.6526 82.3818 64.3132 82.0008 62.7593C81.6198 61.2055 81.8703 59.5639 82.6975 58.1945C83.5246 56.825 84.8608 55.8395 86.4132 55.4538C87.9657 55.0682 89.6076 55.314 90.9792 56.1372L101.067 60.3222C101.355 60.4421 101.615 60.6229 101.828 60.8521C102.04 61.0814 102.201 61.3539 102.299 61.6509C102.397 61.9479 102.429 62.2625 102.395 62.5733C102.36 62.8842 102.259 63.1838 102.098 63.452Z" fill="#1C1F4A"/>
<path d="M77.8691 145.371H88.9534V126.999H77.8691V145.371Z" fill="#CACACA"/>
<path d="M88.398 136.72L86.9753 138.817L113.578 156.872L115 154.775L88.398 136.72Z" fill="#CACACA"/>
<path d="M78.4246 136.72L51.8223 154.775L53.2449 156.872L79.8473 138.817L78.4246 136.72Z" fill="#CACACA"/>
<path d="M114.289 159.308C116.213 159.308 117.773 157.748 117.773 155.824C117.773 153.9 116.213 152.34 114.289 152.34C112.365 152.34 110.805 153.9 110.805 155.824C110.805 157.748 112.365 159.308 114.289 159.308Z" fill="#CACACA"/>
<path d="M83.2529 159.308C85.1769 159.308 86.7366 157.748 86.7366 155.824C86.7366 153.9 85.1769 152.34 83.2529 152.34C81.329 152.34 79.7693 153.9 79.7693 155.824C79.7693 157.748 81.329 159.308 83.2529 159.308Z" fill="#CACACA"/>
<path d="M52.5336 159.308C54.4575 159.308 56.0172 157.748 56.0172 155.824C56.0172 153.9 54.4575 152.34 52.5336 152.34C50.6096 152.34 49.0499 153.9 49.0499 155.824C49.0499 157.748 50.6096 159.308 52.5336 159.308Z" fill="#CACACA"/>
<path d="M84.5196 137.769H81.9861V155.824H84.5196V137.769Z" fill="#CACACA"/>
<path d="M81.0362 135.235H85.7866V110.844H81.0362V135.235Z" fill="#CACACA"/>
<path d="M69.7935 114.645V108.944C69.7946 107.894 70.2121 106.887 70.9542 106.145C71.6964 105.403 72.7026 104.985 73.7521 104.984H94.9707C96.0202 104.985 97.0264 105.403 97.7685 106.145C98.5107 106.887 98.9281 107.894 98.9293 108.944V114.645C98.9281 115.695 98.5107 116.701 97.7685 117.444C97.0264 118.186 96.0202 118.604 94.9706 118.605H73.7521C72.7026 118.604 71.6964 118.186 70.9542 117.444C70.2121 116.701 69.7946 115.695 69.7935 114.645Z" fill="#3F3D56"/>
<path d="M108.117 153.619L113.984 153.619L116.777 138.396L108.116 138.396L108.117 153.619Z" fill="#FFB8B8"/>
<path d="M106.62 159.308L125.542 159.308V159.068C125.542 158.101 125.351 157.143 124.981 156.249C124.611 155.356 124.069 154.544 123.385 153.86C122.701 153.176 121.889 152.633 120.995 152.263C120.102 151.893 119.144 151.702 118.177 151.702H118.176L106.62 151.702L106.62 159.308Z" fill="#2F2E41"/>
<path d="M116.894 144.179L128.592 117.94C129.569 115.728 129.677 113.23 128.895 110.942C128.113 108.655 126.498 106.746 124.371 105.596L98.9963 91.9857L87.4171 91.0006L76.7361 90.0295L76.6591 90.16C76.5606 90.3264 74.264 94.2939 75.8164 98.6443C76.9939 101.944 80.0567 104.522 84.9198 106.305C96.2708 110.468 109.383 114.026 114.494 115.362C114.72 115.42 114.931 115.525 115.113 115.67C115.296 115.815 115.445 115.998 115.552 116.205C115.66 116.409 115.723 116.634 115.74 116.865C115.756 117.095 115.724 117.327 115.646 117.545L104.778 141.968C104.664 142.278 104.623 142.609 104.658 142.938C104.693 143.266 104.803 143.581 104.979 143.86C105.155 144.139 105.393 144.374 105.675 144.546C105.956 144.719 106.273 144.824 106.601 144.855L114.722 145.446C114.791 145.452 114.86 145.456 114.928 145.456C115.344 145.456 115.751 145.335 116.1 145.108C116.449 144.882 116.724 144.559 116.894 144.179Z" fill="#2F2E41"/>
<path d="M104.288 153.619L110.155 153.619L112.948 138.396L104.287 138.396L104.288 153.619Z" fill="#FFB8B8"/>
<path d="M102.791 159.308L121.712 159.308V159.068C121.712 158.101 121.522 157.143 121.152 156.249C120.782 155.356 120.239 154.544 119.555 153.86C118.871 153.176 118.06 152.633 117.166 152.263C116.273 151.893 115.315 151.702 114.348 151.702H114.347L102.791 151.702L102.791 159.308Z" fill="#2F2E41"/>
<path d="M112.586 145.615L124.285 119.376C125.261 117.164 125.369 114.666 124.587 112.378C123.805 110.091 122.19 108.182 120.064 107.032L94.6884 93.4219L83.1093 92.4368L74.7434 91.711L74.7445 91.5962C74.646 91.7626 72.3495 95.7301 73.9018 100.08C75.0794 103.38 75.7489 105.958 80.612 107.741C91.963 111.904 105.076 115.462 110.186 116.798C110.412 116.856 110.623 116.961 110.806 117.106C110.988 117.252 111.138 117.434 111.245 117.641C111.352 117.846 111.416 118.07 111.432 118.301C111.448 118.532 111.416 118.763 111.339 118.981L100.47 143.404C100.357 143.714 100.316 144.046 100.351 144.374C100.385 144.702 100.495 145.017 100.671 145.296C100.848 145.575 101.085 145.81 101.367 145.982C101.648 146.155 101.965 146.26 102.293 146.291L110.414 146.882C110.483 146.889 110.552 146.892 110.62 146.892C111.036 146.892 111.443 146.771 111.792 146.545C112.141 146.318 112.417 145.995 112.586 145.615Z" fill="#2F2E41"/>
<path d="M105.248 32.596C106.75 26.2781 102.847 19.9385 96.5302 18.436C90.2136 16.9335 83.8752 20.8371 82.373 27.155C80.8708 33.4729 84.7737 39.8126 91.0903 41.3151C97.4069 42.8176 103.745 38.9139 105.248 32.596Z" fill="#FFB8B8"/>
<path d="M134.334 75.0529C139.25 68.5125 143.136 61.2581 145.858 53.5417C146.015 53.0802 146.004 52.5776 145.826 52.1235C145.648 51.6695 145.315 51.2933 144.885 51.0621L128.063 42.0465C127.791 41.8995 127.488 41.8166 127.179 41.804C126.87 41.7915 126.563 41.8496 126.279 41.9741C125.991 42.0994 125.735 42.2889 125.531 42.5282C125.327 42.7675 125.18 43.0502 125.101 43.3548C123.143 50.7905 119.463 57.6609 114.358 63.41C114.148 63.644 113.993 63.9229 113.907 64.2254C113.821 64.5279 113.805 64.8462 113.861 65.1558C113.914 65.4605 114.036 65.749 114.218 65.9994C114.399 66.2498 114.636 66.4555 114.909 66.6007L131.731 75.6164C132.161 75.8459 132.659 75.9152 133.136 75.812C133.612 75.7088 134.037 75.4398 134.334 75.0529Z" fill="#CCCCCC"/>
<path d="M133.186 74.1901C133.095 74.303 132.968 74.3809 132.827 74.4101C132.685 74.4394 132.537 74.4183 132.41 74.3504L115.587 65.3346C115.505 65.292 115.435 65.2311 115.38 65.1566C115.326 65.0821 115.29 64.996 115.275 64.9052C115.257 64.8092 115.262 64.7106 115.289 64.6169C115.316 64.5232 115.364 64.437 115.43 64.3652C120.686 58.4467 124.475 51.3739 126.49 43.719C126.514 43.6244 126.559 43.5365 126.622 43.4622C126.685 43.3879 126.764 43.3291 126.853 43.2905C126.938 43.2529 127.029 43.2352 127.122 43.239C127.214 43.2428 127.304 43.268 127.385 43.3125L144.207 52.3281C144.334 52.397 144.434 52.5082 144.488 52.6426C144.542 52.7769 144.548 52.926 144.504 53.064C141.831 60.6423 138.014 67.7668 133.186 74.1901Z" fill="white"/>
<path d="M127.301 51.8782L138.903 58.6805C140.058 59.3573 141.103 57.5642 139.951 56.8885L128.348 50.0862C127.193 49.4094 126.148 51.2025 127.301 51.8782Z" fill="#CCCCCC"/>
<path d="M125.226 55.683L136.829 62.4853C137.983 63.1621 139.028 61.369 137.876 60.6933L126.273 53.891C125.118 53.2142 124.073 55.0073 125.226 55.683Z" fill="#CCCCCC"/>
<path d="M123.595 59.4729L134.148 65.7385C135.198 66.3619 136.321 65.0731 135.272 64.4507L124.72 58.185C123.67 57.5616 122.547 58.8505 123.595 59.4729Z" fill="#CCCCCC"/>
<path d="M120.384 63.2925L131.987 70.0948C133.141 70.7716 134.187 68.9785 133.034 68.3028L121.431 61.5005C120.277 60.8237 119.231 62.6168 120.384 63.2925Z" fill="#CCCCCC"/>
<path d="M100.589 92.9381L77.3241 92.7989L77.3178 92.6334C76.8742 80.9584 78.3008 70.3824 81.6791 60.3017C81.7269 59.9244 81.7785 59.5211 81.8291 59.1252C82.4062 54.6151 82.8644 51.0343 87.1522 49.7008C86.795 49.2256 86.5844 48.6564 86.5464 48.0632C86.5194 47.6689 86.571 47.2732 86.6984 46.8991C86.8257 46.525 87.0262 46.18 87.2882 45.8842C87.5388 45.5984 87.8438 45.3655 88.1853 45.1988C88.5268 45.0321 88.8981 44.9351 89.2775 44.9134L97.5583 44.6313C97.9934 44.6284 98.4169 44.772 98.7605 45.039C99.3909 45.5075 99.834 46.1851 100.01 46.9505C100.187 47.7159 100.085 48.5192 99.7232 49.2164C99.6256 49.4106 99.5883 49.4991 99.5741 49.5376C99.8685 51.0803 100.742 52.9127 101.666 54.8519C102.99 57.6285 104.49 60.7752 104.875 64.1419C105.084 65.9597 104.997 67.7992 104.619 69.5893C104.446 70.554 104.407 71.5377 104.501 72.5131C104.577 73.9595 104.648 75.3252 103.831 76.6459C103.622 77.0039 103.384 77.3856 103.104 77.8085L101.954 80.5577L100.589 92.9381Z" fill="#1C1F4A"/>
<path d="M65.6764 109.277V61.7303C65.6781 60.1809 66.2943 58.6956 67.3896 57.6C68.4849 56.5045 69.97 55.8882 71.519 55.8865H73.135C74.684 55.8882 76.169 56.5045 77.2644 57.6C78.3597 58.6956 78.9758 60.1809 78.9776 61.7303V109.277C78.9758 110.826 78.3597 112.311 77.2644 113.407C76.169 114.502 74.684 115.119 73.135 115.12H71.519C69.97 115.119 68.4849 114.502 67.3896 113.407C66.2943 112.311 65.6781 110.826 65.6764 109.277Z" fill="#3F3D56"/>
<path d="M128.063 66.4758C127.896 66.6848 127.746 66.9068 127.614 67.1395L103.698 68.8861L100.418 64.0708L92.5051 68.0722L97.4836 77.1612C97.8858 77.8955 98.5153 78.4795 99.2776 78.8254C100.04 79.1714 100.894 79.2608 101.711 79.08L128.349 73.19C129.064 73.933 129.987 74.4409 130.998 74.646C132.008 74.8512 133.056 74.7439 134.004 74.3384C134.952 73.9329 135.753 73.2485 136.303 72.3761C136.852 71.5038 137.122 70.4848 137.079 69.4549C137.035 68.4249 136.678 67.4326 136.057 66.6102C135.436 65.7877 134.578 65.1739 133.6 64.8505C132.621 64.5271 131.567 64.5094 130.578 64.7997C129.589 65.09 128.712 65.6746 128.063 66.4758Z" fill="#FFB6B6"/>
<path d="M102.893 68.9931L93.1165 74.0124C92.8383 74.1552 92.5327 74.2364 92.2203 74.2504C91.9079 74.2644 91.5962 74.2108 91.3064 74.0935C91.0166 73.9761 90.7554 73.7977 90.5408 73.5703C90.3261 73.3429 90.163 73.0719 90.0625 72.7757L86.5418 62.3986C85.82 60.974 85.6915 59.3215 86.1845 57.8024C86.6776 56.2833 87.752 55.0214 89.1728 54.2925C84.839 56.5175 93.865 50.1974 97.3099 56.9101L103.669 65.7903C103.851 66.0446 103.976 66.3351 104.036 66.6421C104.095 66.9491 104.088 67.2654 104.014 67.5693C103.941 67.8733 103.802 68.1578 103.609 68.4035C103.416 68.6492 103.171 68.8503 102.893 68.9931Z" fill="#1C1F4A"/>
<path d="M88.4993 41.3123C87.7918 41.3123 87.011 40.9711 86.1307 40.28C83.5405 38.2457 81.689 35.4176 80.8603 32.2295C80.0317 29.0415 80.2716 25.6695 81.5433 22.631C82.1834 21.1018 83.3804 19.0235 85.4485 17.8054C86.9351 16.9302 88.6814 16.6141 90.2016 16.3864C91.5177 16.1891 92.8503 16.0321 94.1623 15.9203C95.73 15.7862 97.5409 15.6956 99.1926 16.3232C100.403 16.7833 101.433 17.5956 102.429 18.3813C102.776 18.6549 103.135 18.9383 103.495 19.2004C104.366 19.8803 105.371 20.3684 106.444 20.633C106.67 20.6799 106.884 20.7749 107.07 20.9116C107.257 21.0482 107.412 21.2233 107.525 21.4251C107.64 21.6301 107.71 21.8575 107.73 22.092C107.75 22.3264 107.719 22.5624 107.64 22.784C107.485 23.2197 107.345 23.6125 107.628 24.0381C107.733 24.1881 107.874 24.3099 108.037 24.3931C108.2 24.4762 108.381 24.5181 108.564 24.5151C108.661 24.5135 108.756 24.5361 108.842 24.5808C108.928 24.6255 109.001 24.6909 109.055 24.7711C109.109 24.8506 109.144 24.9422 109.155 25.0381C109.166 25.134 109.154 25.2311 109.119 25.321L109.073 25.4382C109.195 25.4496 109.312 25.4904 109.415 25.557C109.517 25.6237 109.602 25.7143 109.661 25.8209C109.75 25.9729 109.785 26.1505 109.759 26.3246C109.733 26.4986 109.648 26.6587 109.519 26.7782C108.47 27.777 107.162 28.4617 105.744 28.7546C104.773 28.945 103.774 28.9427 102.805 28.7478L102.649 28.7174L102.668 28.5445C98.7449 27.145 95.2037 29.52 93.1849 32.2351L92.8933 32.051C92.9434 31.9498 92.9725 31.8395 92.9789 31.7268C92.9853 31.6141 92.9688 31.5012 92.9304 31.395C92.8897 31.2676 92.8244 31.1494 92.738 31.0473C92.6517 30.9452 92.546 30.8611 92.4271 30.7998C92.1867 30.7006 91.9223 30.6749 91.6672 30.7258C91.4122 30.7767 91.1779 30.902 90.9939 31.0859C90.8066 31.2823 90.6622 31.5155 90.57 31.7708C90.4777 32.026 90.4396 32.2977 90.4581 32.5685C90.5111 33.1424 90.6573 33.7038 90.8909 34.2307C90.9858 34.4827 91.0839 34.7434 91.1637 35.0062C91.6106 36.4991 91.4914 38.1044 90.8291 39.5149C90.5236 40.1584 89.971 40.9789 89.0739 41.2332C88.887 41.286 88.6936 41.3126 88.4993 41.3123Z" fill="#2F2E41"/>
<path d="M279.588 160H0.411789C0.302791 160 0.198366 159.956 0.121404 159.879C0.0444418 159.802 0.0012207 159.697 0.0012207 159.588C0.0012207 159.479 0.0444418 159.375 0.121404 159.297C0.198366 159.22 0.302791 159.177 0.411789 159.176H279.588C279.698 159.176 279.802 159.22 279.879 159.297C279.957 159.374 280 159.479 280 159.588C280 159.697 279.957 159.802 279.879 159.879C279.802 159.957 279.698 160 279.588 160Z" fill="#CACACA"/>
</g>
<defs>
<clipPath id="clip0_7_681">
<rect width="280" height="160" fill="white"/>
</clipPath>
</defs>
</svg>
