<svg width="102" height="40" viewBox="0 0 102 40" fill="none" xmlns="http://www.w3.org/2000/svg">
<path d="M15.2372 14.3224L10.9229 11.7009L24.564 0L15.2372 14.3224Z" fill="url(#paint0_linear_54_2043)"/>
<path d="M23.4243 12.3098L24.4241 7.33377L39.9444 16.348L23.4243 12.3098Z" fill="url(#paint1_linear_54_2043)"/>
<path d="M28.2059 19.2373L33.2276 18.8307L28.9197 36.3533L28.2059 19.2373Z" fill="url(#paint2_linear_54_2043)"/>
<path d="M22.5643 25.7066L24.6744 30.3169L6.8675 32.2827L22.5643 25.7066Z" fill="url(#paint3_linear_54_2043)"/>
<path d="M14.8522 23.1492L11.1338 26.5748L3.86975 10.0733L14.8522 23.1492Z" fill="url(#paint4_linear_54_2043)"/>
<path d="M18.1116 18.3286L16.0265 18.0351L19.3621 11.2815L18.1116 18.3286Z" fill="url(#paint5_linear_54_2043)"/>
<path d="M20.9305 16.2005L20.504 14.1229L27.9368 15.0187L20.9305 16.2005Z" fill="url(#paint6_linear_54_2043)"/>
<path d="M23.8966 18.0714L25.7601 17.0842L26.9596 24.5306L23.8966 18.0714Z" fill="url(#paint7_linear_54_2043)"/>
<path d="M22.7821 21.4909L24.3441 22.9134L17.8216 26.6153L22.7821 21.4909Z" fill="url(#paint8_linear_54_2043)"/>
<path d="M19.402 21.7842L18.5312 23.7158L13.0512 18.5766L19.402 21.7842Z" fill="url(#paint9_linear_54_2043)"/>
<path d="M45.8994 20.002C45.7627 20.002 45.6325 19.9759 45.5088 19.9238C45.3883 19.8685 45.2826 19.7969 45.1914 19.709C45.1003 19.6178 45.0286 19.512 44.9766 19.3916C44.9245 19.2679 44.8984 19.1377 44.8984 19.001V16.999C44.8984 16.8623 44.9245 16.7337 44.9766 16.6133C45.0286 16.4896 45.1003 16.3838 45.1914 16.2959C45.2826 16.2048 45.3883 16.1331 45.5088 16.0811C45.6325 16.0257 45.7627 15.998 45.8994 15.998H49.2979C49.4346 15.998 49.5632 16.0257 49.6836 16.0811C49.8073 16.1331 49.9147 16.2048 50.0059 16.2959C50.097 16.3838 50.1686 16.4896 50.2207 16.6133C50.2728 16.7337 50.2988 16.8623 50.2988 16.999V17.9023H49.2979V16.999H45.8994V19.001H49.2979C49.4346 19.001 49.5632 19.027 49.6836 19.0791C49.8073 19.1312 49.9147 19.2028 50.0059 19.2939C50.097 19.3851 50.1686 19.4925 50.2207 19.6162C50.2728 19.7367 50.2988 19.8652 50.2988 20.002V21.999C50.2988 22.1357 50.2728 22.266 50.2207 22.3896C50.1686 22.5101 50.097 22.6159 50.0059 22.707C49.9147 22.7982 49.8073 22.8698 49.6836 22.9219C49.5632 22.974 49.4346 23 49.2979 23H45.8018C45.665 23 45.5348 22.974 45.4111 22.9219C45.2907 22.8698 45.1849 22.7982 45.0938 22.707C45.0026 22.6159 44.931 22.5101 44.8789 22.3896C44.8268 22.266 44.8008 22.1357 44.8008 21.999V21.1006H45.8018V21.999H49.2979V20.002H45.8994ZM52.3594 25.0996L53.4482 22.5312L51.4072 17.7998H52.418L53.9365 21.3789L55.4551 17.7998H56.4658L53.3164 25.0996H52.3594ZM62.0664 23H61.1045V18.7617H58.4238V23H57.4668V17.7998H58.4238V18.7178C58.4303 18.5908 58.4596 18.472 58.5117 18.3613C58.5638 18.2474 58.6322 18.1497 58.7168 18.0684C58.8047 17.9837 58.9056 17.9186 59.0195 17.873C59.1335 17.8242 59.2555 17.7998 59.3857 17.7998H61.1045C61.238 17.7998 61.3633 17.8258 61.4805 17.8779C61.5977 17.9268 61.6986 17.9951 61.7832 18.083C61.8711 18.1676 61.9395 18.2686 61.9883 18.3857C62.0404 18.5029 62.0664 18.6283 62.0664 18.7617V23ZM64.625 18.7617V22.0381H67.1055V21.1592H68.0674V22.0381C68.0674 22.1715 68.0413 22.2969 67.9893 22.4141C67.9404 22.5312 67.8721 22.6338 67.7842 22.7217C67.6995 22.8063 67.5986 22.8747 67.4814 22.9268C67.3643 22.9756 67.2389 23 67.1055 23H64.625C64.4948 23 64.3711 22.9756 64.2539 22.9268C64.1367 22.8747 64.0342 22.8063 63.9463 22.7217C63.8617 22.6338 63.7933 22.5312 63.7412 22.4141C63.6924 22.2969 63.668 22.1715 63.668 22.0381V18.7617C63.668 18.6283 63.6924 18.5029 63.7412 18.3857C63.7933 18.2686 63.8617 18.1676 63.9463 18.083C64.0342 17.9951 64.1367 17.9268 64.2539 17.8779C64.3711 17.8258 64.4948 17.7998 64.625 17.7998H67.1055C67.2389 17.7998 67.3643 17.8258 67.4814 17.8779C67.5986 17.9268 67.6995 17.9951 67.7842 18.083C67.8721 18.1676 67.9404 18.2686 67.9893 18.3857C68.0413 18.5029 68.0674 18.6283 68.0674 18.7617V19.6406H67.1055V18.7617H64.625ZM70.7725 20.002C70.6357 20.002 70.5055 19.9759 70.3818 19.9238C70.2614 19.8685 70.1556 19.7969 70.0645 19.709C69.9733 19.6178 69.9017 19.512 69.8496 19.3916C69.7975 19.2679 69.7715 19.1377 69.7715 19.001V16.999C69.7715 16.8623 69.7975 16.7337 69.8496 16.6133C69.9017 16.4896 69.9733 16.3838 70.0645 16.2959C70.1556 16.2048 70.2614 16.1331 70.3818 16.0811C70.5055 16.0257 70.6357 15.998 70.7725 15.998H74.1709C74.3076 15.998 74.4362 16.0257 74.5566 16.0811C74.6803 16.1331 74.7878 16.2048 74.8789 16.2959C74.9701 16.3838 75.0417 16.4896 75.0938 16.6133C75.1458 16.7337 75.1719 16.8623 75.1719 16.999V17.9023H74.1709V16.999H70.7725V19.001H74.1709C74.3076 19.001 74.4362 19.027 74.5566 19.0791C74.6803 19.1312 74.7878 19.2028 74.8789 19.2939C74.9701 19.3851 75.0417 19.4925 75.0938 19.6162C75.1458 19.7367 75.1719 19.8652 75.1719 20.002V21.999C75.1719 22.1357 75.1458 22.266 75.0938 22.3896C75.0417 22.5101 74.9701 22.6159 74.8789 22.707C74.7878 22.7982 74.6803 22.8698 74.5566 22.9219C74.4362 22.974 74.3076 23 74.1709 23H70.6748C70.5381 23 70.4079 22.974 70.2842 22.9219C70.1637 22.8698 70.0579 22.7982 69.9668 22.707C69.8757 22.6159 69.804 22.5101 69.752 22.3896C69.6999 22.266 69.6738 22.1357 69.6738 21.999V21.1006H70.6748V21.999H74.1709V20.002H70.7725ZM81.002 18.7617V23H80.04V18.7617H77.8379V23H76.8809V17.7998H77.8379V18.7178C77.8444 18.5908 77.8737 18.472 77.9258 18.3613C77.9779 18.2474 78.0462 18.1497 78.1309 18.0684C78.2188 17.9837 78.3197 17.9186 78.4336 17.873C78.5475 17.8242 78.6696 17.7998 78.7998 17.7998H80.04C80.167 17.7998 80.2874 17.8242 80.4014 17.873C80.5153 17.9186 80.6162 17.9837 80.7041 18.0684C80.792 18.1497 80.862 18.2474 80.9141 18.3613C80.9694 18.472 80.9987 18.5908 81.002 18.7178C81.0085 18.5908 81.0361 18.472 81.085 18.3613C81.137 18.2474 81.2054 18.1497 81.29 18.0684C81.3779 17.9837 81.4788 17.9186 81.5928 17.873C81.7067 17.8242 81.8288 17.7998 81.959 17.7998H83.1992C83.3327 17.7998 83.458 17.8258 83.5752 17.8779C83.6924 17.9268 83.7933 17.9951 83.8779 18.083C83.9658 18.1676 84.0342 18.2686 84.083 18.3857C84.1351 18.5029 84.1611 18.6283 84.1611 18.7617V23H83.1992V18.7617H81.002ZM85.7676 20.7295C85.7676 20.596 85.792 20.4723 85.8408 20.3584C85.8929 20.2412 85.9613 20.1387 86.0459 20.0508C86.1338 19.9629 86.2363 19.8945 86.3535 19.8457C86.4707 19.7936 86.5944 19.7676 86.7246 19.7676H89.2051V18.7617H86.0654V17.7998H89.2051C89.3385 17.7998 89.4639 17.8258 89.5811 17.8779C89.6982 17.9268 89.7992 17.9951 89.8838 18.083C89.9717 18.1676 90.04 18.2686 90.0889 18.3857C90.141 18.5029 90.167 18.6283 90.167 18.7617V23H89.2051V22.1211C89.1953 22.2415 89.1628 22.3555 89.1074 22.4629C89.0521 22.5703 88.9805 22.6647 88.8926 22.7461C88.8079 22.8242 88.7103 22.8861 88.5996 22.9316C88.4889 22.9772 88.3717 23 88.248 23H86.7246C86.5944 23 86.4707 22.9756 86.3535 22.9268C86.2363 22.8747 86.1338 22.8063 86.0459 22.7217C85.9613 22.6338 85.8929 22.5312 85.8408 22.4141C85.792 22.2969 85.7676 22.1715 85.7676 22.0381V20.7295ZM86.7246 22.0381H89.2051V20.7295H86.7246V22.0381ZM92.7305 18.7617V23H91.7734V17.7998H92.7305V18.7178C92.737 18.5908 92.7663 18.472 92.8184 18.3613C92.8704 18.2474 92.9388 18.1497 93.0234 18.0684C93.1113 17.9837 93.2122 17.9186 93.3262 17.873C93.4401 17.8242 93.5622 17.7998 93.6924 17.7998H94.7129C94.8464 17.7998 94.9701 17.8258 95.084 17.8779C95.2012 17.9268 95.3037 17.9951 95.3916 18.083C95.4795 18.1676 95.5479 18.2686 95.5967 18.3857C95.6488 18.5029 95.6748 18.6283 95.6748 18.7617V19.6406H94.7129V18.7617H92.7305ZM96.5684 17.7998H97.8379V16.1982H98.7998V17.7998H100.509V18.7617H98.7998V22.0381H100.509V23H98.7998C98.6696 23 98.5459 22.9756 98.4287 22.9268C98.3115 22.8747 98.209 22.8063 98.1211 22.7217C98.0332 22.6338 97.9632 22.5312 97.9111 22.4141C97.8623 22.2969 97.8379 22.1715 97.8379 22.0381V18.7617H96.5684V17.7998Z" fill="url(#paint10_linear_54_2043)"/>
<defs>
<linearGradient id="paint0_linear_54_2043" x1="2.39461" y1="2.84011" x2="24.6362" y2="6.5631" gradientUnits="userSpaceOnUse">
<stop stop-color="#2DB8D9"/>
<stop offset="1" stop-color="#1C1F4A"/>
</linearGradient>
<linearGradient id="paint1_linear_54_2043" x1="29.8386" y1="-3.73889" x2="33.8386" y2="18.6219" gradientUnits="userSpaceOnUse">
<stop stop-color="#2DB8D9"/>
<stop offset="1" stop-color="#1C1F4A"/>
</linearGradient>
<linearGradient id="paint2_linear_54_2043" x1="45.2834" y1="21.0151" x2="24.9771" y2="30.8894" gradientUnits="userSpaceOnUse">
<stop stop-color="#2DB8D9"/>
<stop offset="1" stop-color="#1C1F4A"/>
</linearGradient>
<linearGradient id="paint3_linear_54_2043" x1="26.796" y1="42.4744" x2="10.3827" y2="26.8959" gradientUnits="userSpaceOnUse">
<stop stop-color="#2DB8D9"/>
<stop offset="1" stop-color="#1C1F4A"/>
</linearGradient>
<linearGradient id="paint4_linear_54_2043" x1="0.28315" y1="32.3025" x2="10.3104" y2="11.9516" gradientUnits="userSpaceOnUse">
<stop stop-color="#2DB8D9"/>
<stop offset="1" stop-color="#1C1F4A"/>
</linearGradient>
<linearGradient id="paint5_linear_54_2043" x1="11.3056" y1="16.0412" x2="20.4725" y2="13.8471" gradientUnits="userSpaceOnUse">
<stop stop-color="#2DB8D9"/>
<stop offset="1" stop-color="#1C1F4A"/>
</linearGradient>
<linearGradient id="paint6_linear_54_2043" x1="20.7806" y1="8.97194" x2="25.9959" y2="16.8799" gradientUnits="userSpaceOnUse">
<stop stop-color="#2DB8D9"/>
<stop offset="1" stop-color="#1C1F4A"/>
</linearGradient>
<linearGradient id="paint7_linear_54_2043" x1="30.7488" y1="15.9287" x2="24.5431" y2="23.0735" gradientUnits="userSpaceOnUse">
<stop stop-color="#2DB8D9"/>
<stop offset="1" stop-color="#1C1F4A"/>
</linearGradient>
<linearGradient id="paint8_linear_54_2043" x1="27.1402" y1="27.2342" x2="18.3035" y2="23.9399" gradientUnits="userSpaceOnUse">
<stop stop-color="#2DB8D9"/>
<stop offset="1" stop-color="#1C1F4A"/>
</linearGradient>
<linearGradient id="paint9_linear_54_2043" x1="15.2948" y1="27.7123" x2="15.782" y2="18.2301" gradientUnits="userSpaceOnUse">
<stop stop-color="#2DB8D9"/>
<stop offset="1" stop-color="#1C1F4A"/>
</linearGradient>
<linearGradient id="paint10_linear_54_2043" x1="35.1614" y1="19.6875" x2="102" y2="20.0055" gradientUnits="userSpaceOnUse">
<stop stop-color="#2DB8D9"/>
<stop offset="0.9999" stop-color="#1C1F4A"/>
</linearGradient>
</defs>
</svg>
