<svg width="1440" height="408" viewBox="0 0 1440 408" fill="none" xmlns="http://www.w3.org/2000/svg">
<path fill-rule="evenodd" clip-rule="evenodd" d="M0 257.898L60 231.065C120 204.231 240 150.565 360 134.167C480 117.769 600 139.384 720 166.218C840 193.051 960 225.102 1080 198.269C1200 171.435 1320 85.7176 1380 43.2315L1440 0V322H1380C1320 322 1200 322 1080 322C960 322 840 322 720 322C600 322 480 322 360 322C240 322 120 322 60 322H0V257.898Z" fill="url(#paint0_linear_7_164)"/>
<path fill-rule="evenodd" clip-rule="evenodd" d="M0 34L48 77.7333C96 121.467 192 208.933 288 263.6C384 318.267 480 340.133 576 301.867C672 263.6 768 165.2 864 143.333C960 121.467 1056 176.133 1152 214.4C1248 252.667 1344 274.533 1392 285.467L1440 296.4V362H1392C1344 362 1248 362 1152 362C1056 362 960 362 864 362C768 362 672 362 576 362C480 362 384 362 288 362C192 362 96 362 48 362H0V34Z" fill="url(#paint1_linear_7_164)"/>
<path fill-rule="evenodd" clip-rule="evenodd" d="M0 245.064L34 266.939C69 288.815 137 331.812 206 337.092C274 343.127 343 309.936 411 309.936C480 309.936 549 343.127 617 331.812C686 321.251 754 266.939 823 228.468C891 190.751 960 168.876 1029 168.876C1097 168.876 1166 190.751 1234 190.751C1303 190.751 1371 168.876 1406 158.315L1440 147V408H1406C1371 408 1303 408 1234 408C1166 408 1097 408 1029 408C960 408 891 408 823 408C754 408 686 408 617 408C549 408 480 408 411 408C343 408 274 408 206 408C137 408 69 408 34 408H0V245.064Z" fill="url(#paint2_linear_7_164)"/>
<defs>
<linearGradient id="paint0_linear_7_164" x1="0" y1="161" x2="1440" y2="161" gradientUnits="userSpaceOnUse">
<stop stop-color="#BCC0F7"/>
<stop offset="1" stop-color="#6E7091"/>
</linearGradient>
<linearGradient id="paint1_linear_7_164" x1="0" y1="198" x2="1440" y2="198" gradientUnits="userSpaceOnUse">
<stop stop-color="#2A32A2"/>
<stop offset="1" stop-color="#10123B"/>
</linearGradient>
<linearGradient id="paint2_linear_7_164" x1="0" y1="277.5" x2="1440" y2="277.5" gradientUnits="userSpaceOnUse">
<stop stop-color="#1C1F4A"/>
<stop offset="1" stop-color="#434AB0"/>
</linearGradient>
</defs>
</svg>
